# Aspose.3D Wavefront OBJ Exporter
# Copyright 2004-2020 Aspose Pty Ltd.
# File created: 3/1/2021 4:02:40 AM


#
# object BD_head_figure_tgt-1
#

v 5.00030167116595869 48.2086346810417794 -21.25321762425748772
v 5.00029846201078331 48.2086346810417794 21.25333152603611352
v 3.40899778465097112 49.70058858782860512 -21.25321774439758828
v 3.40899457549579576 49.70058858782860512 21.253331405896013
v 3.40899282803450008 -0.0613130740917569 43.87591892570361552
v 3.408992886295938 25.26781135646019292 43.62532362259588584
v 3.40899945313050608 -0.0613130740917569 -43.876138426907616
v 3.4089994735277376 25.26781135646019292 -43.62520711355300304
v 5.00029659826435057 2.23704250574291132 42.89604767240949456
v 5.00030332397492305 23.7758574496733672 -43.14747445850103702
v 5.00030307540411023 2.23704250574291132 -42.89626978087778752
v 5.00029680887894389 23.7758574496733672 43.14758836027965572
v 3.40899457533435776 25.26781135646019292 21.253331405896013
v 3.4089977844895332 25.26781135646019292 -21.25321774439758828
v 5.00029846184934534 23.7758574496733672 21.25333152603611352
v 5.00030167100452072 23.7758574496733672 -21.25321762425748772
# 16 vertices

vn 0.41640152623520568 -1.8281475378783887E-05 0.90918079182104912
vn 0.41640152623520568 -1.8281475378783887E-05 0.90918079182104912
vn 0.41640152623520568 -1.8281475378783887E-05 0.90918079182104912
vn 0.41640152623520568 -1.8281475378783887E-05 0.90918079182104912
vn 0.41639764020486416 -5.325446689774578E-06 -0.90918257669044928
vn 0.41639764020486416 -5.325446689774578E-06 -0.90918257669044928
vn 0.41639764020486416 -5.325446689774578E-06 -0.90918257669044928
vn 0.41639764020486416 -5.325446689774578E-06 -0.90918257669044928
vn 0.82216969624417696 -0.56924245375052672 6.207208502750916E-08
vn 0.82216969624417696 -0.56924245375052672 6.207208502750916E-08
vn 0.82216969624417696 -0.56924245375052672 6.207208502750916E-08
vn 0.82216969624417696 -0.56924245375052672 6.207208502750916E-08
vn 0.68396702617360648 0.72951295962387904 5.163807381691754E-08
vn 0.68396702617360648 0.72951295962387904 5.163807381691754E-08
vn 0.68396702617360648 0.72951295962387904 5.163807381691754E-08
vn 0.68396702617360648 0.72951295962387904 5.163807381691754E-08
vn -0.99999999999999808 1.5532322095168903E-09 -7.549789948768648E-08
vn -0.99999999999999808 1.5532322095168903E-09 -7.549789948768648E-08
vn -0.99999999999999808 1.5532322095168903E-09 -7.549789948768648E-08
vn -0.99999999999999808 1.5532322095168903E-09 -7.549789948768648E-08
vn -0.99999999999999808 1.5532322095168903E-09 -7.549789948768648E-08
vn -0.99999999999999808 1.5532322095168903E-09 -7.549789948768648E-08
vn 0.68396720498753024 0.72951272120529216 5.163808736163844E-08
vn 0.68396720498753024 0.72951272120529216 5.163808736163844E-08
vn 0.68396720498753024 0.72951272120529216 5.163808736163844E-08
vn 0.68396720498753024 0.72951272120529216 5.163808736163844E-08
vn 0.68396756261538592 0.72951242318205264 5.163811434005794E-08
vn 0.68396756261538592 0.72951242318205264 5.163811434005794E-08
vn 0.68396756261538592 0.72951242318205264 5.163811434005794E-08
vn 0.68396756261538592 0.72951242318205264 5.163811434005794E-08
vn 0.99999999999999808 -6.604494728916601E-12 7.549789959870878E-08
vn 0.99999999999999808 -6.604494728916601E-12 7.549789959870878E-08
vn 0.99999999999999808 -6.604494728916601E-12 7.549789959870878E-08
vn 0.99999999999999808 -6.604494728916601E-12 7.549789959870878E-08
vn 0.9999999999999976 -1.0660073712642783E-08 7.549789948768648E-08
vn 0.9999999999999976 -1.0660073712642783E-08 7.549789948768648E-08
vn 0.9999999999999976 -1.0660073712642783E-08 7.549789948768648E-08
vn 0.9999999999999976 -1.0660073712642783E-08 7.549789948768648E-08
vn 0.9999999999999976 -1.0660073712642783E-08 7.549789948768648E-08
vn 0.9999999999999976 -1.0660073712642783E-08 7.549789948768648E-08
vn 7.549789948768648E-08 3.308722450212111E-24 -0.99999999999999712
vn 7.549789948768648E-08 3.308722450212111E-24 -0.99999999999999712
vn 7.549789948768648E-08 3.308722450212111E-24 -0.99999999999999712
vn 7.549789948768648E-08 3.308722450212111E-24 -0.99999999999999712
vn -7.549789948768648E-08 -3.308722450212111E-24 0.99999999999999712
vn -7.549789948768648E-08 -3.308722450212111E-24 0.99999999999999712
vn -7.549789948768648E-08 -3.308722450212111E-24 0.99999999999999712
vn -7.549789948768648E-08 -3.308722450212111E-24 0.99999999999999712
vn -0.99999994039535328 6.608994754502732E-12 -7.549789504679438E-08
vn -0.99999994039535328 6.608994754502732E-12 -7.549789504679438E-08
vn -0.99999994039535328 6.608994754502732E-12 -7.549789504679438E-08
vn -0.99999994039535328 6.608994754502732E-12 -7.549789504679438E-08
# 52 vertex normals

vt 0.73508590459823616 0.27911877632141112 0
vt 0.73508590459823616 0.27911877632141112 0
vt 0.73508590459823616 0.27769809961318968 0
vt 0.73508590459823616 0.28323882818222044 0
vt 0.73508590459823616 0.28181815147399904 0
vt 0.73508590459823616 0.28183308243751524 0
vt 0.73508590459823616 0.28183305263519288 0
vt 0.7060759663581848 0.286150723695755 0
vt 0.7060759663581848 0.286150723695755 0
vt 0.73508590459823616 0.27910384535789488 0
vt 0.73508590459823616 0.27910387516021728 0
vt 0.73508590459823616 0.27910384535789488 0
vt 0.73508590459823616 0.27910387516021728 0
vt 0.73508590459823616 0.28323882818222044 0
vt 0.73508590459823616 0.27769809961318968 0
vt 0.73508590459823616 0.28183305263519288 0
vt 0.73508590459823616 0.28183308243751524 0
vt 0.73508590459823616 0.28181815147399904 0
vt 0.7060759663581848 0.27478620409965516 0
vt 0.7060759663581848 0.27478620409965516 0
# 20 texture coords

g BD_head_figure_tgt-1
usemtl Material.001
s 1
f 6/4/1 5/9/2 9/8/3 12/14/4
f 7/20/5 8/15/6 10/3/7 11/19/8
f 5/9/9 7/20/10 11/19/11 9/8/12
f 13/5/13 6/4/14 12/14/15 15/17/16
f 13/5/17 14/2/18 8/15/19 7/20/20 5/9/21 6/4/22
f 8/15/23 14/2/24 16/10/25 10/3/26
f 4/18/27 2/6/28 1/12/29 3/1/30
f 15/16/31 16/11/32 1/13/33 2/7/34
f 11/19/35 10/3/36 16/11/37 15/16/38 12/14/39 9/8/40
f 16/10/41 14/2/42 3/1/43 1/12/44
f 13/5/45 15/17/46 2/6/47 4/18/48
f 14/2/49 13/5/50 4/18/51 3/1/52
#12 polygons

