# Aspose.3D Wavefront OBJ Exporter
# Copyright 2004-2020 Aspose Pty Ltd.
# File created: 3/1/2021 4:03:37 AM


#
# object BD_IPSC_tgt-1
#

v -4.2413607359904095E-07 1.5313083854416192 5.3827563715115172
v 3.8863825097685983E-07 1.5313083854416192 -5.38276598197408872
v -1.591303029513754 0.219444719922528 -6.13784875604182912
v -1.59130395630139288 0.219444719922528 6.13782573540596576
v -1.59130417225651048 40.07871578356324704 8.50271141368159712
v -1.591302888379188 40.07871578356324704 -8.50275935033153552
v -8.018141404873706E-07 41.39057660153787312 7.5324214356264356
v 3.355537221095395E-07 41.39057660153787312 -7.5324726914268432
v -1.59130439073418192 44.99568044193430432 11.88603062442410512
v -1.5913044573973816 49.8912696518349392 13.24613033896803848
v -1.59130245728491392 49.89127819446833456 -13.24615763092059416
v -1.59130241801802616 44.99568400136487872 -11.88608069673237296
v -1.59130310585715584 66.92244769133611728 -4.22415578637709288
v -1.59130290245429952 65.02603290959956439 -8.01628485391177569
v -1.5913026659196796 59.78300020584520528 -11.82756081042987088
v -1.59130275002672608 55.46332223675375416 -13.21451429305205672
v -9.232472699200101E-07 51.18612315454861772 12.45492314420990888
v -8.504486334760713E-07 46.32757373522098732 11.03500221554289773
v 9.45905499273773E-07 54.95288487221586144 -12.47919988454722072
v 1.3923739127576865E-06 59.3030529236674866 -11.1596064900194687
v 8.122604900960934E-07 64.49214245696089168 -7.54333180224451192
v 2.569597949128367E-07 66.41698427509267336 -3.78832474812928992
v 4.598508488239617E-07 46.32757658276546664 -11.03504777625436972
v 9.573958494394545E-07 51.1861331209542456 -12.45494450079339368
v -1.3709278103742466E-07 66.41698427509265912 3.78836425780875216
v -5.047254696495875E-07 64.49214103318865912 7.5433709559809312
v -6.486252847867556E-07 59.30305363555361708 11.15963923678087256
v -9.384022111539166E-07 54.95288273655751248 12.4792112747250812
v -1.59130456739262936 55.46331938920928192 13.21452971426644752
v -1.59130445183440552 59.78299878207297264 11.82759616445553344
v -1.59130411288285088 65.02603148582733183 8.01632661491249187
v -1.59130374369000592 66.92244769133611728 4.22419647954864708
# 32 vertices

vn 0.6868012815317228 -0.41633605978902608 -0.5957920628825972
vn 0.6868012815317228 -0.41633605978902608 -0.5957920628825972
vn 0.6868012815317228 -0.41633605978902608 -0.5957920628825972
vn 0.6868012815317228 -0.41633605978902608 -0.5957920628825972
vn 0.636106636175042 -0.77160116830421984 4.80247147605084E-08
vn 0.636106636175042 -0.77160116830421984 4.80247147605084E-08
vn 0.636106636175042 -0.77160116830421984 4.80247147605084E-08
vn 0.636106636175042 -0.77160116830421984 4.80247147605084E-08
vn 0.43037348702870456 0.52353535201449664 0.7353157726007864
vn 0.43037348702870456 0.52353535201449664 0.7353157726007864
vn 0.43037348702870456 0.52353535201449664 0.7353157726007864
vn 0.43037348702870456 0.52353535201449664 0.7353157726007864
vn -0.9999999999999984 7.246896416291103E-10 -7.023788306526058E-08
vn -0.9999999999999984 7.246896416291103E-10 -7.023788306526058E-08
vn -0.9999999999999984 7.246896416291103E-10 -7.023788306526058E-08
vn -0.9999999999999984 7.246896416291103E-10 -7.023788306526058E-08
vn -0.9999999999999984 7.246896416291103E-10 -7.023788306526058E-08
vn -0.9999999999999984 7.246896416291103E-10 -7.023788306526058E-08
vn -0.9999999999999984 7.246896416291103E-10 -7.023788306526058E-08
vn -0.9999999999999984 7.246896416291103E-10 -7.023788306526058E-08
vn -0.9999999999999984 7.246896416291103E-10 -7.023788306526058E-08
vn -0.9999999999999984 7.246896416291103E-10 -7.023788306526058E-08
vn -0.9999999999999984 7.246896416291103E-10 -7.023788306526058E-08
vn -0.9999999999999984 7.246896416291103E-10 -7.023788306526058E-08
vn -0.9999999999999984 7.246896416291103E-10 -7.023788306526058E-08
vn -0.9999999999999984 7.246896416291103E-10 -7.023788306526058E-08
vn 0.99999994039535264 -1.710434377828776E-08 7.629600407010884E-08
vn 0.99999994039535264 -1.710434377828776E-08 7.629600407010884E-08
vn 0.99999994039535264 -1.710434377828776E-08 7.629600407010884E-08
vn 0.99999994039535264 -1.710434377828776E-08 7.629600407010884E-08
vn 0.99999994039535264 -1.710434377828776E-08 7.629600407010884E-08
vn 0.99999994039535264 -1.710434377828776E-08 7.629600407010884E-08
vn 0.99999994039535264 -1.710434377828776E-08 7.629600407010884E-08
vn 0.99999994039535264 -1.710434377828776E-08 7.629600407010884E-08
vn 0.99999994039535264 -1.710434377828776E-08 7.629600407010884E-08
vn 0.99999994039535264 -1.710434377828776E-08 7.629600407010884E-08
vn 0.99999994039535264 -1.710434377828776E-08 7.629600407010884E-08
vn 0.99999994039535264 -1.710434377828776E-08 7.629600407010884E-08
vn 0.99999994039535264 -1.710434377828776E-08 7.629600407010884E-08
vn 0.99999994039535264 -1.710434377828776E-08 7.629600407010884E-08
vn 0.43037270398866504 0.52353636529349688 -0.7353157076162568
vn 0.43037270398866504 0.52353636529349688 -0.7353157076162568
vn 0.43037270398866504 0.52353636529349688 -0.7353157076162568
vn 0.43037270398866504 0.52353636529349688 -0.7353157076162568
vn 0.50678599205291832 -0.04874273369635335 -0.86069276083006368
vn 0.50678599205291832 -0.04874273369635335 -0.86069276083006368
vn 0.50678599205291832 -0.04874273369635335 -0.86069276083006368
vn 0.50678599205291832 -0.04874273369635335 -0.86069276083006368
vn 0.9999999403953536 5.40359129301533E-09 7.549789504679438E-08
vn 0.9999999403953536 5.40359129301533E-09 7.549789504679438E-08
vn 0.9999999403953536 5.40359129301533E-09 7.549789504679438E-08
vn 0.9999999403953536 5.40359129301533E-09 7.549789504679438E-08
vn -0.99999999999999808 -9.385807686612415E-10 -7.549789959870878E-08
vn -0.99999999999999808 -9.385807686612415E-10 -7.549789959870878E-08
vn -0.99999999999999808 -9.385807686612415E-10 -7.549789959870878E-08
vn -0.99999999999999808 -9.385807686612415E-10 -7.549789959870878E-08
vn 0.50678341830140192 -0.0487420817704443 0.86069432746854464
vn 0.50678341830140192 -0.0487420817704443 0.86069432746854464
vn 0.50678341830140192 -0.0487420817704443 0.86069432746854464
vn 0.50678341830140192 -0.0487420817704443 0.86069432746854464
vn 0.30273572796239688 0.95307456123752192 2.0373317644040156E-08
vn 0.30273572796239688 0.95307456123752192 2.0373317644040156E-08
vn 0.30273572796239688 0.95307456123752192 2.0373317644040156E-08
vn 0.30273572796239688 0.95307456123752192 2.0373317644040156E-08
vn 0.43232921616294496 0.00071346121490126 -0.90171560361341168
vn 0.43232921616294496 0.00071346121490126 -0.90171560361341168
vn 0.43232921616294496 0.00071346121490126 -0.90171560361341168
vn 0.43232921616294496 0.00071346121490126 -0.90171560361341168
vn 0.43233027210030128 0.0007062371784685 0.9017150132422944
vn 0.43233027210030128 0.0007062371784685 0.9017150132422944
vn 0.43233027210030128 0.0007062371784685 0.9017150132422944
vn 0.43233027210030128 0.0007062371784685 0.9017150132422944
vn 0.45687838017478312 0.26507614046012296 -0.84911539681539056
vn 0.45687838017478312 0.26507614046012296 -0.84911539681539056
vn 0.45687838017478312 0.26507614046012296 -0.84911539681539056
vn 0.45687838017478312 0.26507614046012296 -0.84911539681539056
vn 0.38750139657343472 0.82245550846003264 -0.4164246028169084
vn 0.38750139657343472 0.82245550846003264 -0.4164246028169084
vn 0.38750139657343472 0.82245550846003264 -0.4164246028169084
vn 0.38750139657343472 0.82245550846003264 -0.4164246028169084
vn 0.58561949875790096 -0.22217346307439708 -0.77954395164419904
vn 0.58561949875790096 -0.22217346307439708 -0.77954395164419904
vn 0.58561949875790096 -0.22217346307439708 -0.77954395164419904
vn 0.58561949875790096 -0.22217346307439708 -0.77954395164419904
vn 0.58561920223601312 -0.22217705425423696 0.77954308639594432
vn 0.58561920223601312 -0.22217705425423696 0.77954308639594432
vn 0.58561920223601312 -0.22217705425423696 0.77954308639594432
vn 0.58561920223601312 -0.22217705425423696 0.77954308639594432
vn 0.45687911622904976 0.26507235556514196 0.84911618105789952
vn 0.45687911622904976 0.26507235556514196 0.84911618105789952
vn 0.45687911622904976 0.26507235556514196 0.84911618105789952
vn 0.45687911622904976 0.26507235556514196 0.84911618105789952
vn 0.38750139329968704 0.82245550846002992 0.41642495935121496
vn 0.38750139329968704 0.82245550846002992 0.41642495935121496
vn 0.38750139329968704 0.82245550846002992 0.41642495935121496
vn 0.38750139329968704 0.82245550846002992 0.41642495935121496
vn 0.68680101275566384 -0.4163366856377884 0.59579204737739568
vn 0.68680101275566384 -0.4163366856377884 0.59579204737739568
vn 0.68680101275566384 -0.4163366856377884 0.59579204737739568
vn 0.68680101275566384 -0.4163366856377884 0.59579204737739568
# 100 vertex normals

vt 0.67282044887542728 0.2561592161655426 0
vt 0.672820508480072 0.2561592161655426 0
vt 0.70131683349609376 0.25565481185913084 0
vt 0.70131677389144896 0.25580766797065736 0
vt 0.68331110477447512 0.2533375918865204 0
vt 0.70131671428680416 0.25993046164512636 0
vt 0.70131677389144896 0.259817898273468 0
vt 0.6820136904716492 0.262577623128891 0
vt 0.6820136904716492 0.2627263367176056 0
vt 0.6997787356376648 0.25511473417282104 0
vt 0.69977867603302 0.25511470437049864 0
vt 0.69977867603302 0.26081895828247072 0
vt 0.6997787356376648 0.26081895828247072 0
vt 0.672820508480072 0.2561592161655426 0
vt 0.67267858982086184 0.25584986805915832 0
vt 0.67282044887542728 0.2561592161655426 0
vt 0.70183050632476808 0.25652924180030824 0
vt 0.70183050632476808 0.25669273734092712 0
vt 0.67502778768539432 0.25357836484909056 0
vt 0.67502784729003904 0.25357836484909056 0
vt 0.6728205680847168 0.25603681802749632 0
vt 0.672820508480072 0.25603681802749632 0
vt 0.67484718561172488 0.2623770236968994 0
vt 0.67484718561172488 0.2624104619026184 0
vt 0.69297873973846432 0.25430798530578612 0
vt 0.6929786801338196 0.25430798530578612 0
vt 0.69989639520645144 0.26035827398300172 0
vt 0.69989633560180664 0.26070398092269896 0
vt 0.67267858982086184 0.26008376479148864 0
vt 0.67282044887542728 0.25977444648742676 0
vt 0.672820508480072 0.25977447628974916 0
vt 0.69410848617553712 0.25442138314247132 0
vt 0.70127522945404056 0.2603323757648468 0
vt 0.70127528905868528 0.2603323757648468 0
vt 0.672820508480072 0.25989684462547304 0
vt 0.6728205680847168 0.2598968744277954 0
vt 0.6748472452163696 0.25352320075035096 0
vt 0.67488825321197512 0.2536126673221588 0
vt 0.70183044672012328 0.25663214921951292 0
vt 0.70183038711547848 0.25663211941719056 0
vt 0.69297873973846432 0.2616257071495056 0
vt 0.69410860538482664 0.26116791367530824 0
vt 0.69410848617553712 0.26151227951049804 0
vt 0.6728205680847168 0.25603681802749632 0
vt 0.672820508480072 0.25603681802749632 0
vt 0.67502778768539432 0.26235532760620116 0
vt 0.67502784729003904 0.26235532760620116 0
vt 0.69989639520645144 0.25513738393783568 0
vt 0.69989639520645144 0.25517788529396056 0
vt 0.70183044672012328 0.2593015432357788 0
vt 0.70183038711547848 0.25930151343345644 0
vt 0.672820508480072 0.25977447628974916 0
vt 0.67282044887542728 0.25977444648742676 0
vt 0.68331116437911984 0.26259613037109376 0
vt 0.6820136904716492 0.25320735573768616 0
vt 0.6820136308670044 0.25320735573768616 0
vt 0.70127528905868528 0.25560131669044496 0
vt 0.70127522945404056 0.25560128688812256 0
vt 0.70183050632476808 0.25893512368202208 0
vt 0.70183050632476808 0.25899338722229004 0
vt 0.6728205680847168 0.2598968744277954 0
vt 0.672820508480072 0.25989684462547304 0
vt 0.68331110477447512 0.26259610056877136 0
vt 0.6929786801338196 0.2616257071495056 0
# 64 texture coords

g BD_IPSC_tgt-1
usemtl Material.001
s 1
f 12/37/1 23/19/2 8/44/3 6/15/4
f 3/1/5 2/21/6 1/35/7 4/52/8
f 30/28/9 27/12/10 26/33/11 31/6/12
f 6/14/13 5/29/14 9/23/15 10/8/16 29/42/17 30/27/18 31/7/19 32/59/20 13/17/21 14/3/22 15/48/23 16/32/24 11/55/25 12/38/26
f 7/61/27 8/44/28 23/20/29 24/5/30 19/25/31 20/10/32 21/57/33 22/39/34 25/50/35 26/34/36 27/13/37 28/64/38 17/63/39 18/46/40
f 20/11/41 15/49/42 14/4/43 21/58/44
f 6/16/45 8/44/46 2/21/47 3/1/48
f 8/45/49 7/61/50 1/36/51 2/22/52
f 5/30/53 6/14/54 3/2/55 4/53/56
f 7/62/57 5/31/58 4/52/59 1/35/60
f 13/18/61 32/60/62 25/51/63 22/40/64
f 11/56/65 16/32/66 19/26/67 24/5/68
f 29/43/69 10/9/70 17/54/71 28/41/72
f 19/26/73 16/32/74 15/49/75 20/11/76
f 13/18/77 22/40/78 21/58/79 14/4/80
f 11/56/81 24/5/82 23/19/83 12/37/84
f 17/54/85 10/9/86 9/24/87 18/47/88
f 29/43/89 28/41/90 27/12/91 30/28/92
f 25/51/93 32/60/94 31/6/95 26/33/96
f 18/47/97 9/24/98 5/29/99 7/61/100
#20 polygons

