# Aspose.3D Wavefront OBJ Exporter
# Copyright 2004-2020 Aspose Pty Ltd.
# File created: 3/1/2021 4:03:53 AM


#
# object BD_IPSC_tgt-2
#

v -6.662947793120525E-07 2.69886125188753568 7.95833862767889936
v 5.353821027008428E-07 2.69886125188753568 -7.95835428917346816
v -1.35139014288430804 0.75927917890327024 -9.07473419874784781
v -1.35139151312845372 0.75927917890327024 9.0746998241599286
v -1.35139169272967564 59.69072108296577992 12.57115411215969128
v -1.35138979453282636 59.69072108296577992 -12.57122550482564624
v -1.1778159178740182E-06 61.6302960370888968 11.13659263565244828
v 5.037684820756707E-07 61.6302960370888968 -11.13666809558082348
v -1.351392019574702 66.96039531947967312 17.57335004768824048
v -1.35139212196371796 74.1984646599752722 19.5842375406945344
v -1.3513892538080874 74.1984774739253652 -19.5842804579158276
v -1.35138927708105228 66.96040101456858912 -17.57342428789865
v -1.35139022802840668 99.3788518767087936 -6.24536276241204024
v -1.35138983831406368 96.57502576176950984 -11.85197848610529376
v -1.35138939578608608 88.8232665186288272 -17.48690449687068592
v -1.35138952013749568 82.43667668700918224 -19.53749530235405272
v -1.4501677887184442E-06 76.11289010138250432 18.41445213873129208
v -1.2497215470999342E-06 68.92958331226769536 16.3151156433219242
v 1.3095231686280771E-06 81.68200117286883712 -18.4503440129418088
v 1.710321119120442E-06 88.11367119280178884 -16.49934180380902048
v 1.108102053253393E-06 95.78567498679137776 -11.15272397504731394
v 2.794396879443314E-07 98.63153085803574528 -5.600992179317724
v 8.578546177555063E-07 68.92958900735663968 -16.31518256061688632
v 1.3303400043417412E-06 76.11290433910482988 -18.4144820379481828
v -3.883193718295719E-07 98.63153085803573104 5.60104913020701648
v -9.318596644304021E-07 95.78567498679139184 11.15277950216439606
v -1.0479710652043259E-06 88.1136726165740356 16.49939021206497712
v -1.4764027124659745E-06 81.68199761343825568 18.45036109820858528
v -1.35139229224770952 82.43667170380635408 19.53751930242765768
v -1.35139203623911876 88.82326509485659472 17.48695554861674136
v -1.35139162791786328 96.57502291422504472 11.85204092802920256
v -1.35139099308491704 99.37885187670877944 6.2454223567915026
# 32 vertices

vn 0.85450663096411888 -0.29753497997862316 -0.42578333125375736
vn 0.85450663096411888 -0.29753497997862316 -0.42578333125375736
vn 0.85450663096411888 -0.29753497997862316 -0.42578333125375736
vn 0.85450663096411888 -0.29753497997862316 -0.42578333125375736
vn 0.82048509006287632 -0.57166776667280096 6.194490076438797E-08
vn 0.82048509006287632 -0.57166776667280096 6.194490076438797E-08
vn 0.82048509006287632 -0.57166776667280096 6.194490076438797E-08
vn 0.82048509006287632 -0.57166776667280096 6.194490076438797E-08
vn 0.63870194753026912 0.44628170321014216 0.62681131416609184
vn 0.63870194753026912 0.44628170321014216 0.62681131416609184
vn 0.63870194753026912 0.44628170321014216 0.62681131416609184
vn 0.63870194753026912 0.44628170321014216 0.62681131416609184
vn -0.9999999999999984 1.2227410195464737E-09 -7.068527896336718E-08
vn -0.9999999999999984 1.2227410195464737E-09 -7.068527896336718E-08
vn -0.9999999999999984 1.2227410195464737E-09 -7.068527896336718E-08
vn -0.9999999999999984 1.2227410195464737E-09 -7.068527896336718E-08
vn -0.9999999999999984 1.2227410195464737E-09 -7.068527896336718E-08
vn -0.9999999999999984 1.2227410195464737E-09 -7.068527896336718E-08
vn -0.9999999999999984 1.2227410195464737E-09 -7.068527896336718E-08
vn -0.9999999999999984 1.2227410195464737E-09 -7.068527896336718E-08
vn -0.9999999999999984 1.2227410195464737E-09 -7.068527896336718E-08
vn -0.9999999999999984 1.2227410195464737E-09 -7.068527896336718E-08
vn -0.9999999999999984 1.2227410195464737E-09 -7.068527896336718E-08
vn -0.9999999999999984 1.2227410195464737E-09 -7.068527896336718E-08
vn -0.9999999999999984 1.2227410195464737E-09 -7.068527896336718E-08
vn -0.9999999999999984 1.2227410195464737E-09 -7.068527896336718E-08
vn 0.9999999999999976 -1.1503455965566913E-08 7.630832121741093E-08
vn 0.9999999999999976 -1.1503455965566913E-08 7.630832121741093E-08
vn 0.9999999999999976 -1.1503455965566913E-08 7.630832121741093E-08
vn 0.9999999999999976 -1.1503455965566913E-08 7.630832121741093E-08
vn 0.9999999999999976 -1.1503455965566913E-08 7.630832121741093E-08
vn 0.9999999999999976 -1.1503455965566913E-08 7.630832121741093E-08
vn 0.9999999999999976 -1.1503455965566913E-08 7.630832121741093E-08
vn 0.9999999999999976 -1.1503455965566913E-08 7.630832121741093E-08
vn 0.9999999999999976 -1.1503455965566913E-08 7.630832121741093E-08
vn 0.9999999999999976 -1.1503455965566913E-08 7.630832121741093E-08
vn 0.9999999999999976 -1.1503455965566913E-08 7.630832121741093E-08
vn 0.9999999999999976 -1.1503455965566913E-08 7.630832121741093E-08
vn 0.9999999999999976 -1.1503455965566913E-08 7.630832121741093E-08
vn 0.9999999999999976 -1.1503455965566913E-08 7.630832121741093E-08
vn 0.63870102889724544 0.4462827760937924 -0.626811515748074
vn 0.63870102889724544 0.4462827760937924 -0.626811515748074
vn 0.63870102889724544 0.4462827760937924 -0.626811515748074
vn 0.63870102889724544 0.4462827760937924 -0.626811515748074
vn 0.71525709955780104 -0.0395145766161454 -0.69774342143675768
vn 0.71525709955780104 -0.0395145766161454 -0.69774342143675768
vn 0.71525709955780104 -0.0395145766161454 -0.69774342143675768
vn 0.71525709955780104 -0.0395145766161454 -0.69774342143675768
vn 0.9999999999999984 4.608232018199461E-09 7.549789948768648E-08
vn 0.9999999999999984 4.608232018199461E-09 7.549789948768648E-08
vn 0.9999999999999984 4.608232018199461E-09 7.549789948768648E-08
vn 0.9999999999999984 4.608232018199461E-09 7.549789948768648E-08
vn -0.99999999999999808 1.4317258489882343E-09 -7.549789948768648E-08
vn -0.99999999999999808 1.4317258489882343E-09 -7.549789948768648E-08
vn -0.99999999999999808 1.4317258489882343E-09 -7.549789948768648E-08
vn -0.99999999999999808 1.4317258489882343E-09 -7.549789948768648E-08
vn 0.71525484843409904 -0.03951414075708669 0.69774585401855128
vn 0.71525484843409904 -0.03951414075708669 0.69774585401855128
vn 0.71525484843409904 -0.03951414075708669 0.69774585401855128
vn 0.71525484843409904 -0.03951414075708669 0.69774585401855128
vn 0.48393357645050952 0.87510464460281808 2.9274018875646846E-08
vn 0.48393357645050952 0.87510464460281808 2.9274018875646846E-08
vn 0.48393357645050952 0.87510464460281808 2.9274018875646846E-08
vn 0.48393357645050952 0.87510464460281808 2.9274018875646846E-08
vn 0.64080673294372736 0.00060755344936774 -0.76770205428157296
vn 0.64080673294372736 0.00060755344936774 -0.76770205428157296
vn 0.64080673294372736 0.00060755344936774 -0.76770205428157296
vn 0.64080673294372736 0.00060755344936774 -0.76770205428157296
vn 0.64080733227943896 0.00060108064102757 0.76770149538965008
vn 0.64080733227943896 0.00060108064102757 0.76770149538965008
vn 0.64080733227943896 0.00060108064102757 0.76770149538965008
vn 0.64080733227943896 0.00060108064102757 0.76770149538965008
vn 0.66656852151280224 0.22213894195368388 -0.71157617304889168
vn 0.66656852151280224 0.22213894195368388 -0.71157617304889168
vn 0.66656852151280224 0.22213894195368388 -0.71157617304889168
vn 0.66656852151280224 0.22213894195368388 -0.71157617304889168
vn 0.5905596607760968 0.71996853154360728 -0.36453355860536288
vn 0.5905596607760968 0.71996853154360728 -0.36453355860536288
vn 0.5905596607760968 0.71996853154360728 -0.36453355860536288
vn 0.5905596607760968 0.71996853154360728 -0.36453355860536288
vn 0.78275571066087808 -0.17057395422685736 -0.59849649718563304
vn 0.78275571066087808 -0.17057395422685736 -0.59849649718563304
vn 0.78275571066087808 -0.17057395422685736 -0.59849649718563304
vn 0.78275571066087808 -0.17057395422685736 -0.59849649718563304
vn 0.78275508384849872 -0.17057690465675032 0.59849637695983064
vn 0.78275508384849872 -0.17057690465675032 0.59849637695983064
vn 0.78275508384849872 -0.17057690465675032 0.59849637695983064
vn 0.78275508384849872 -0.17057690465675032 0.59849637695983064
vn 0.66656906971872096 0.22213594682025524 0.71157657172120344
vn 0.66656906971872096 0.22213594682025524 0.71157657172120344
vn 0.66656906971872096 0.22213594682025524 0.71157657172120344
vn 0.66656906971872096 0.22213594682025524 0.71157657172120344
vn 0.59055900968659 0.71996882956685728 0.36453403520753256
vn 0.59055900968659 0.71996882956685728 0.36453403520753256
vn 0.59055900968659 0.71996882956685728 0.36453403520753256
vn 0.59055900968659 0.71996882956685728 0.36453403520753256
vn 0.85450632825400848 -0.29753545681577092 0.42578354968761304
vn 0.85450632825400848 -0.29753545681577092 0.42578354968761304
vn 0.85450632825400848 -0.29753545681577092 0.42578354968761304
vn 0.85450632825400848 -0.29753545681577092 0.42578354968761304
# 100 vertex normals

vt 0.66482287645339968 0.3536677360534668 0
vt 0.6648229360580444 0.3536677360534668 0
vt 0.69331926107406616 0.35316336154937744 0
vt 0.69331920146942136 0.35331618785858156 0
vt 0.67531353235244752 0.3508461117744446 0
vt 0.69331914186477664 0.35743898153305052 0
vt 0.69331920146942136 0.3573264479637146 0
vt 0.6740161180496216 0.3600861430168152 0
vt 0.6740161180496216 0.3602348566055298 0
vt 0.6917811632156372 0.35262328386306764 0
vt 0.6917811036109924 0.35262322425842284 0
vt 0.6917811036109924 0.35832750797271728 0
vt 0.6917811632156372 0.35832750797271728 0
vt 0.6648229360580444 0.3536677360534668 0
vt 0.66468101739883424 0.35335838794708252 0
vt 0.66482287645339968 0.3536677360534668 0
vt 0.69383293390274048 0.35403776168823244 0
vt 0.69383293390274048 0.35420125722885132 0
vt 0.66703021526336672 0.35108691453933716 0
vt 0.66703027486801144 0.35108691453933716 0
vt 0.6648229956626892 0.35354536771774292 0
vt 0.6648229360580444 0.35354536771774292 0
vt 0.66684961318969728 0.359885573387146 0
vt 0.66684961318969728 0.359919011592865 0
vt 0.6849811673164368 0.35181653499603272 0
vt 0.684981107711792 0.35181653499603272 0
vt 0.69189882278442384 0.35786682367324828 0
vt 0.69189876317977904 0.35821253061294556 0
vt 0.66468101739883424 0.35759228467941284 0
vt 0.66482287645339968 0.35728299617767332 0
vt 0.6648229360580444 0.35728299617767332 0
vt 0.68611091375350952 0.35192990303039552 0
vt 0.69327765703201296 0.357840895652771 0
vt 0.69327771663665768 0.357840895652771 0
vt 0.6648229360580444 0.3574053645133972 0
vt 0.6648229956626892 0.357405424118042 0
vt 0.66684967279434208 0.35103172063827516 0
vt 0.66689068078994752 0.351121187210083 0
vt 0.69383287429809568 0.35414069890975952 0
vt 0.69383281469345096 0.35414063930511476 0
vt 0.6849811673164368 0.3591342568397522 0
vt 0.68611103296279904 0.35867643356323244 0
vt 0.68611091375350952 0.35902082920074464 0
vt 0.6648229956626892 0.35354536771774292 0
vt 0.6648229360580444 0.35354536771774292 0
vt 0.66703021526336672 0.35986387729644776 0
vt 0.66703027486801144 0.35986387729644776 0
vt 0.69189882278442384 0.35264593362808228 0
vt 0.69189882278442384 0.35268640518188476 0
vt 0.69383287429809568 0.3568100929260254 0
vt 0.69383281469345096 0.3568100333213806 0
vt 0.6648229360580444 0.35728299617767332 0
vt 0.66482287645339968 0.35728299617767332 0
vt 0.67531359195709232 0.36010468006134032 0
vt 0.6740161180496216 0.35071587562561036 0
vt 0.6740160584449768 0.35071587562561036 0
vt 0.69327771663665768 0.35310983657836916 0
vt 0.69327765703201296 0.35310983657836916 0
vt 0.69383293390274048 0.35644364356994628 0
vt 0.69383293390274048 0.35650193691253664 0
vt 0.6648229956626892 0.357405424118042 0
vt 0.6648229360580444 0.3574053645133972 0
vt 0.67531353235244752 0.36010462045669556 0
vt 0.684981107711792 0.3591342568397522 0
# 64 texture coords

g BD_IPSC_tgt-2
usemtl Material.001
s 1
f 12/37/1 23/19/2 8/44/3 6/15/4
f 3/1/5 2/21/6 1/35/7 4/52/8
f 30/28/9 27/12/10 26/33/11 31/6/12
f 6/14/13 5/29/14 9/23/15 10/8/16 29/42/17 30/27/18 31/7/19 32/59/20 13/17/21 14/3/22 15/48/23 16/32/24 11/55/25 12/38/26
f 7/61/27 8/44/28 23/20/29 24/5/30 19/25/31 20/10/32 21/57/33 22/39/34 25/50/35 26/34/36 27/13/37 28/64/38 17/63/39 18/46/40
f 20/11/41 15/49/42 14/4/43 21/58/44
f 6/16/45 8/44/46 2/21/47 3/1/48
f 8/45/49 7/61/50 1/36/51 2/22/52
f 5/30/53 6/14/54 3/2/55 4/53/56
f 7/62/57 5/31/58 4/52/59 1/35/60
f 13/18/61 32/60/62 25/51/63 22/40/64
f 11/56/65 16/32/66 19/26/67 24/5/68
f 29/43/69 10/9/70 17/54/71 28/41/72
f 19/26/73 16/32/74 15/49/75 20/11/76
f 13/18/77 22/40/78 21/58/79 14/4/80
f 11/56/81 24/5/82 23/19/83 12/37/84
f 17/54/85 10/9/86 9/24/87 18/47/88
f 29/43/89 28/41/90 27/12/91 30/28/92
f 25/51/93 32/60/94 31/6/95 26/33/96
f 18/47/97 9/24/98 5/29/99 7/61/100
#20 polygons

