# Aspose.3D Wavefront OBJ Exporter
# Copyright 2004-2020 Aspose Pty Ltd.
# File created: 3/1/2021 4:04:13 AM


#
# object BD_lmg_tgt
#

v -1.4387003184011946E-05 74.21113449399651076 0.09472752952696962
v -1.4387074112199113E-05 0.41332072035487496 0.09472752952696962
v -1.2061539583586322E-05 0.41332072035487496 -30.7079112775576348
v -1.2061468655399155E-05 74.21113449399651076 -30.70791127755762776
v 0.834549120677352 51.1355652592877803 0.09472759253476148
v 0.83455144621188064 51.1355652592877803 -30.70791121454983848
v -1.205830653534244E-05 51.13556244822324004 -30.70791127755762776
v -1.4383841063955231E-05 51.13556244822324004 0.09472752952696962
v 0.83455229583103952 51.1355652592877803 -41.96145819647340144
v -1.1211920424665096E-05 0.41332072035487496 -41.96145825948119776
v -1.1208687376421216E-05 51.13556244822324004 -41.96145825948119072
v -1.6889808249438014E-05 0.41332072035487496 33.24444631934686356
v 0.83454661794321472 51.1355652592877803 33.24444638235465276
v -1.6886575201194134E-05 51.13556244822324004 33.24444631934686356
v 0.57551612211783152 35.39232340598918824 0.09472757297831346
v 0.57551911929949216 35.39231201581133488 -41.96145821602986096
v -1.2059309932321368E-05 35.39231204096856232 -30.70791127755762776
v 0.57551826968033328 35.39231201581133488 -30.70791123410629808
v -1.4384844585404282E-05 35.3923091934240972 0.09472752952696962
v 0.5755133524257784 35.39230916826687688 33.24444636279818612
v -1.1209690773400144E-05 35.39231204096856232 -41.96145825948119072
v -1.6887578847113304E-05 35.39230634587963208 33.24444631934686356
v -1.764381559061483E-05 0.41332072035487496 43.23157637585644152
v 0.5755125984184372 35.39230916826687688 43.23157641930777116
v -1.764158618829012E-05 35.39230634587963208 43.23157637585644864
# 25 vertices

vn -0.99999999999999808 6.375699967978026E-11 -7.549790148608793E-08
vn -0.99999999999999808 6.375699967978026E-11 -7.549790148608793E-08
vn -0.99999999999999808 6.375699967978026E-11 -7.549790148608793E-08
vn -0.99999999999999808 6.375699967978026E-11 -7.549790148608793E-08
vn 7.549788982874617E-08 -2.2074918604175743E-07 -0.99999999999999728
vn 7.549788982874617E-08 -2.2074918604175743E-07 -0.99999999999999728
vn 7.549788982874617E-08 -2.2074918604175743E-07 -0.99999999999999728
vn 0.99934661546382688 0.0361429090573645 7.544857039132324E-08
vn 0.99934661546382688 0.0361429090573645 7.544857039132324E-08
vn 0.99934661546382688 0.0361429090573645 7.544857039132324E-08
vn 0.99934661546382688 0.0361429090573645 7.544857039132324E-08
vn -0.99999999999999808 -1.3703171930498765E-10 -7.549789959870878E-08
vn -0.99999999999999808 -1.3703171930498765E-10 -7.549789959870878E-08
vn -0.99999999999999808 -1.3703171930498765E-10 -7.549789959870878E-08
vn -0.99999999999999808 -1.3703171930498765E-10 -7.549789959870878E-08
vn -0.99999999999999808 6.374989425242266E-11 -7.549790392857858E-08
vn -0.99999999999999808 6.374989425242266E-11 -7.549790392857858E-08
vn -0.99999999999999808 6.374989425242266E-11 -7.549790392857858E-08
vn -0.99999999999999808 6.374989425242266E-11 -7.549790392857858E-08
vn 0.9998646967372456 -0.01645137269831763 7.548768443665921E-08
vn 0.9998646967372456 -0.01645137269831763 7.548768443665921E-08
vn 0.9998646967372456 -0.01645137269831763 7.548768443665921E-08
vn 0.9998646967372456 -0.01645137269831763 7.548768443665921E-08
vn -0.99999999999999808 6.374989425242266E-11 -7.549789959870878E-08
vn -0.99999999999999808 6.374989425242266E-11 -7.549789959870878E-08
vn -0.99999999999999808 6.374989425242266E-11 -7.549789959870878E-08
vn -0.99999999999999808 6.374989425242266E-11 -7.549789959870878E-08
vn -7.549789704519583E-08 5.518729651043936E-08 0.99999999999999712
vn -7.549789704519583E-08 5.518729651043936E-08 0.99999999999999712
vn -7.549789704519583E-08 5.518729651043936E-08 0.99999999999999712
vn 7.549789948768648E-08 3.308722450212111E-24 -0.99999999999999712
vn 7.549789948768648E-08 3.308722450212111E-24 -0.99999999999999712
vn 7.549789948768648E-08 3.308722450212111E-24 -0.99999999999999712
vn -3.5774842856994698E-06 1.00000000000015742 -2.7009254928154797E-13
vn -3.5774842856994698E-06 1.00000000000015742 -2.7009254928154797E-13
vn -3.5774842856994698E-06 1.00000000000015742 -2.7009254928154797E-13
vn -3.5774842856994698E-06 1.00000000000015742 -2.7009254928154797E-13
vn 0.9998646967372456 -0.01645137269831763 7.548768443665921E-08
vn 0.9998646967372456 -0.01645137269831763 7.548768443665921E-08
vn 0.9998646967372456 -0.01645137269831763 7.548768443665921E-08
vn 0.9998646967372456 -0.01645137269831763 7.548768443665921E-08
vn -7.549789737826273E-08 4.7874959108185014E-08 0.99999999999999728
vn -7.549789737826273E-08 4.7874959108185014E-08 0.99999999999999728
vn -7.549789737826273E-08 4.7874959108185014E-08 0.99999999999999728
vn -7.549789737826273E-08 4.7874959108185014E-08 0.99999999999999728
vn -2.4149101776060795E-06 1.00000000000010658 -1.8232064561766168E-13
vn -2.4149101776060795E-06 1.00000000000010658 -1.8232064561766168E-13
vn -2.4149101776060795E-06 1.00000000000010658 -1.8232064561766168E-13
vn -2.4149101776060795E-06 1.00000000000010658 -1.8232064561766168E-13
vn 0.9998646371326008 -0.01645137269831503 7.548767988474481E-08
vn 0.9998646371326008 -0.01645137269831503 7.548767988474481E-08
vn 0.9998646371326008 -0.01645137269831503 7.548767988474481E-08
vn 0.9998646371326008 -0.01645137269831503 7.548767988474481E-08
vn -7.5497904816757E-08 -1.1995331306025026E-07 0.99999999999999712
vn -7.5497904816757E-08 -1.1995331306025026E-07 0.99999999999999712
vn -7.5497904816757E-08 -1.1995331306025026E-07 0.99999999999999712
vn -0.99999999999999808 6.372857797034986E-11 -7.549790159711023E-08
vn -0.99999999999999808 6.372857797034986E-11 -7.549790159711023E-08
vn -0.99999999999999808 6.372857797034986E-11 -7.549790159711023E-08
vn -0.99999999999999808 6.372857797034986E-11 -7.549790159711023E-08
vn -5.873159643954273E-06 1.00000000000025757 -4.43411216726993E-13
vn -5.873159643954273E-06 1.00000000000025757 -4.43411216726993E-13
vn -5.873159643954273E-06 1.00000000000025757 -4.43411216726993E-13
vn -5.873159643954273E-06 1.00000000000025757 -4.43411216726993E-13
vn 7.549789948768648E-08 3.308722450212111E-24 -0.99999999999999712
vn 7.549789948768648E-08 3.308722450212111E-24 -0.99999999999999712
vn 7.549789948768648E-08 3.308722450212111E-24 -0.99999999999999712
vn 7.549789948768648E-08 3.308722450212111E-24 -0.99999999999999712
vn 0.99986463713260112 -0.01645137083566988 7.548767988474481E-08
vn 0.99986463713260112 -0.01645137083566988 7.548767988474481E-08
vn 0.99986463713260112 -0.01645137083566988 7.548767988474481E-08
vn 0.99986463713260112 -0.01645137083566988 7.548767988474481E-08
vn -0.99999999999999808 6.373568339770746E-11 -7.549789959870878E-08
vn -0.99999999999999808 6.373568339770746E-11 -7.549789959870878E-08
vn -0.99999999999999808 6.373568339770746E-11 -7.549789959870878E-08
vn -0.99999999999999808 6.373568339770746E-11 -7.549789959870878E-08
vn 0.99986463713260048 -0.01645137642360533 7.752386865789163E-08
vn 0.99986463713260048 -0.01645137642360533 7.752386865789163E-08
vn 0.99986463713260048 -0.01645137642360533 7.752386865789163E-08
vn 0.99986463713260048 -0.01645137642360533 7.752386865789163E-08
vn 0.9998646967372456 -0.01645137642360793 7.548768443665921E-08
vn 0.9998646967372456 -0.01645137642360793 7.548768443665921E-08
vn 0.9998646967372456 -0.01645137642360793 7.548768443665921E-08
vn 0.9998646967372456 -0.01645137642360793 7.548768443665921E-08
vn -0.99999999999999808 6.373213068402204E-11 -7.549790659311384E-08
vn -0.99999999999999808 6.373213068402204E-11 -7.549790659311384E-08
vn -0.99999999999999808 6.373213068402204E-11 -7.549790659311384E-08
vn -0.99999999999999808 6.373213068402204E-11 -7.549790659311384E-08
vn -0.99999999999999808 6.373568339770746E-11 -7.549789959870878E-08
vn -0.99999999999999808 6.373568339770746E-11 -7.549789959870878E-08
vn -0.99999999999999808 6.373568339770746E-11 -7.549789959870878E-08
vn -0.99999999999999808 6.373568339770746E-11 -7.549789959870878E-08
vn 0.99986463713260112 -0.01645136711037958 7.548767988474481E-08
vn 0.99986463713260112 -0.01645136711037958 7.548767988474481E-08
vn 0.99986463713260112 -0.01645136711037958 7.548767988474481E-08
vn 0.99986463713260112 -0.01645136711037958 7.548767988474481E-08
# 96 vertex normals

vt 0.76894366741180416 0.32907813787460328 0
vt 0.7640941739082336 0.33292442560195924 0
vt 0.7633368372917176 0.33173060417175292 0
vt 0.76979702711105344 0.32907813787460328 0
vt 0.7640941739082336 0.33173060417175292 0
vt 0.76894366741180416 0.33292442560195924 0
vt 0.7640941739082336 0.33292442560195924 0
vt 0.7633368372917176 0.32907813787460328 0
vt 0.76660794019699104 0.32907813787460328 0
vt 0.76979702711105344 0.33292442560195924 0
vt 0.76660794019699104 0.33173060417175292 0
vt 0.76660794019699104 0.33292442560195924 0
vt 0.76979702711105344 0.33173060417175292 0
vt 0.76660794019699104 0.33467423915863036 0
vt 0.7640941739082336 0.32907813787460328 0
vt 0.7640941739082336 0.33173060417175292 0
vt 0.76660794019699104 0.33292442560195924 0
vt 0.76894366741180416 0.33173060417175292 0
vt 0.76660794019699104 0.33173060417175292 0
vt 0.7633368372917176 0.33173060417175292 0
vt 0.76894366741180416 0.33467423915863036 0
vt 0.76979702711105344 0.33292442560195924 0
vt 0.76979702711105344 0.33173060417175292 0
vt 0.76894366741180416 0.33292442560195924 0
vt 0.76894366741180416 0.33173060417175292 0
# 25 texture coords

g BD_lmg_tgt
usemtl Material.001
s 1
f 8/17/1 19/11/2 22/16/3 14/2/4
f 7/24/5 4/21/6 6/6/7
f 6/6/8 4/21/9 1/14/10 5/12/11
f 7/24/12 8/17/13 1/14/14 4/21/15
f 3/1/16 2/9/17 19/11/18 17/25/19
f 3/1/20 18/18/21 15/19/22 2/9/23
f 3/1/24 17/25/25 21/23/26 10/4/27
f 1/14/28 8/17/29 5/12/30
f 10/4/31 21/23/32 16/13/33
f 7/24/34 6/6/35 9/10/36 11/22/37
f 6/6/38 18/18/39 16/13/40 9/10/41
f 14/2/42 22/16/43 20/5/44 13/7/45
f 5/12/46 8/17/47 14/2/48 13/7/49
f 2/9/50 15/19/51 20/5/52 12/15/53
f 24/3/54 25/20/55 23/8/56
f 17/25/57 19/11/58 8/17/59 7/24/60
f 20/5/61 22/16/62 25/20/63 24/3/64
f 16/13/65 21/23/66 11/22/67 9/10/68
f 15/19/69 18/18/70 6/6/71 5/12/72
f 21/23/73 17/25/74 7/24/75 11/22/76
f 20/5/77 15/19/78 5/12/79 13/7/80
f 16/13/81 18/18/82 3/1/83 10/4/84
f 22/16/85 19/11/86 2/9/87 12/15/88
f 22/16/89 12/15/90 23/8/91 25/20/92
f 12/15/93 20/5/94 24/3/95 23/8/96
#25 polygons

