solid AssimpScene
 facet normal 0 0 -1
  outer loop
  vertex -233 -0.5 0
  vertex -233 0.5 0
  vertex 233 0.5 0
  endloop
 endfacet

 facet normal 0 0 -1
  outer loop
  vertex -233 -0.5 0
  vertex 233 0.5 0
  vertex 233 -0.5 0
  endloop
 endfacet

 facet normal 0 0 1
  outer loop
  vertex -383 -0.5 67
  vertex 383 -0.5 67
  vertex 383 0.5 67
  endloop
 endfacet

 facet normal 0 0 1
  outer loop
  vertex -383 -0.5 67
  vertex 383 0.5 67
  vertex -383 0.5 67
  endloop
 endfacet

 facet normal 0 -1 0
  outer loop
  vertex -233 -0.5 0
  vertex 233 -0.5 0
  vertex 383 -0.5 67
  endloop
 endfacet

 facet normal 0 -1 0
  outer loop
  vertex -233 -0.5 0
  vertex 383 -0.5 67
  vertex -383 -0.5 67
  endloop
 endfacet

 facet normal 0.40778929 0 -0.91307604
  outer loop
  vertex 233 -0.5 0
  vertex 233 0.5 0
  vertex 383 0.5 67
  endloop
 endfacet

 facet normal 0.40778929 0 -0.91307604
  outer loop
  vertex 233 -0.5 0
  vertex 383 0.5 67
  vertex 383 -0.5 67
  endloop
 endfacet

 facet normal 0 1 0
  outer loop
  vertex 233 0.5 0
  vertex -233 0.5 0
  vertex -383 0.5 67
  endloop
 endfacet

 facet normal 0 1 0
  outer loop
  vertex 233 0.5 0
  vertex -383 0.5 67
  vertex 383 0.5 67
  endloop
 endfacet

 facet normal -0.40778929 0 -0.91307604
  outer loop
  vertex -233 0.5 0
  vertex -233 -0.5 0
  vertex -383 -0.5 67
  endloop
 endfacet

 facet normal -0.40778929 0 -0.91307604
  outer loop
  vertex -233 0.5 0
  vertex -383 -0.5 67
  vertex -383 0.5 67
  endloop
 endfacet

 facet normal 0 0 -1
  outer loop
  vertex -383 -0.5 67
  vertex -383 0.5 67
  vertex 383 0.5 67
  endloop
 endfacet

 facet normal 0 0 -1
  outer loop
  vertex -383 -0.5 67
  vertex 383 0.5 67
  vertex 383 -0.5 67
  endloop
 endfacet

 facet normal 0 0 1
  outer loop
  vertex -383 -0.5 137
  vertex 383 -0.5 137
  vertex 383 0.5 137
  endloop
 endfacet

 facet normal 0 0 1
  outer loop
  vertex -383 -0.5 137
  vertex 383 0.5 137
  vertex -383 0.5 137
  endloop
 endfacet

 facet normal 0 -1 0
  outer loop
  vertex -383 -0.5 67
  vertex 383 -0.5 67
  vertex 383 -0.5 137
  endloop
 endfacet

 facet normal 0 -1 0
  outer loop
  vertex -383 -0.5 67
  vertex 383 -0.5 137
  vertex -383 -0.5 137
  endloop
 endfacet

 facet normal 1 0 0
  outer loop
  vertex 383 -0.5 67
  vertex 383 0.5 67
  vertex 383 0.5 137
  endloop
 endfacet

 facet normal 1 0 0
  outer loop
  vertex 383 -0.5 67
  vertex 383 0.5 137
  vertex 383 -0.5 137
  endloop
 endfacet

 facet normal 0 1 0
  outer loop
  vertex 383 0.5 67
  vertex -383 0.5 67
  vertex -383 0.5 137
  endloop
 endfacet

 facet normal 0 1 0
  outer loop
  vertex 383 0.5 67
  vertex -383 0.5 137
  vertex 383 0.5 137
  endloop
 endfacet

 facet normal -1 0 0
  outer loop
  vertex -383 0.5 67
  vertex -383 -0.5 67
  vertex -383 -0.5 137
  endloop
 endfacet

 facet normal -1 0 0
  outer loop
  vertex -383 0.5 67
  vertex -383 -0.5 137
  vertex -383 0.5 137
  endloop
 endfacet

 facet normal 0 0 -1
  outer loop
  vertex -230 -0.5 137
  vertex -230 0.5 137
  vertex 230 0.5 137
  endloop
 endfacet

 facet normal 0 0 -1
  outer loop
  vertex -230 -0.5 137
  vertex 230 0.5 137
  vertex 230 -0.5 137
  endloop
 endfacet

 facet normal 0 0 1
  outer loop
  vertex -230 -0.5 237
  vertex 230 -0.5 237
  vertex 230 0.5 237
  endloop
 endfacet

 facet normal 0 0 1
  outer loop
  vertex -230 -0.5 237
  vertex 230 0.5 237
  vertex -230 0.5 237
  endloop
 endfacet

 facet normal 0 -1 0
  outer loop
  vertex -230 -0.5 137
  vertex 230 -0.5 137
  vertex 230 -0.5 237
  endloop
 endfacet

 facet normal 0 -1 0
  outer loop
  vertex -230 -0.5 137
  vertex 230 -0.5 237
  vertex -230 -0.5 237
  endloop
 endfacet

 facet normal 1 0 0
  outer loop
  vertex 230 -0.5 137
  vertex 230 0.5 137
  vertex 230 0.5 237
  endloop
 endfacet

 facet normal 1 0 0
  outer loop
  vertex 230 -0.5 137
  vertex 230 0.5 237
  vertex 230 -0.5 237
  endloop
 endfacet

 facet normal 0 1 0
  outer loop
  vertex 230 0.5 137
  vertex -230 0.5 137
  vertex -230 0.5 237
  endloop
 endfacet

 facet normal 0 1 0
  outer loop
  vertex 230 0.5 137
  vertex -230 0.5 237
  vertex 230 0.5 237
  endloop
 endfacet

 facet normal -1 0 0
  outer loop
  vertex -230 0.5 137
  vertex -230 -0.5 137
  vertex -230 -0.5 237
  endloop
 endfacet

 facet normal -1 0 0
  outer loop
  vertex -230 0.5 137
  vertex -230 -0.5 237
  vertex -230 0.5 237
  endloop
 endfacet

 facet normal 0 0 -1
  outer loop
  vertex -0.5 -230.5 137
  vertex -0.5 -0.5 137
  vertex 0.5 -0.5 137
  endloop
 endfacet

 facet normal 0 0 -1
  outer loop
  vertex -0.5 -230.5 137
  vertex 0.5 -0.5 137
  vertex 0.5 -230.5 137
  endloop
 endfacet

 facet normal 0 0 1
  outer loop
  vertex -0.5 -230.5 237
  vertex 0.5 -230.5 237
  vertex 0.5 -0.5 237
  endloop
 endfacet

 facet normal 0 0 1
  outer loop
  vertex -0.5 -230.5 237
  vertex 0.5 -0.5 237
  vertex -0.5 -0.5 237
  endloop
 endfacet

 facet normal 0 -1 0
  outer loop
  vertex -0.5 -230.5 137
  vertex 0.5 -230.5 137
  vertex 0.5 -230.5 237
  endloop
 endfacet

 facet normal 0 -1 0
  outer loop
  vertex -0.5 -230.5 137
  vertex 0.5 -230.5 237
  vertex -0.5 -230.5 237
  endloop
 endfacet

 facet normal 1 0 0
  outer loop
  vertex 0.5 -230.5 137
  vertex 0.5 -0.5 137
  vertex 0.5 -0.5 237
  endloop
 endfacet

 facet normal 1 0 0
  outer loop
  vertex 0.5 -230.5 137
  vertex 0.5 -0.5 237
  vertex 0.5 -230.5 237
  endloop
 endfacet

 facet normal 0 1 0
  outer loop
  vertex 0.5 -0.5 137
  vertex -0.5 -0.5 137
  vertex -0.5 -0.5 237
  endloop
 endfacet

 facet normal 0 1 0
  outer loop
  vertex 0.5 -0.5 137
  vertex -0.5 -0.5 237
  vertex 0.5 -0.5 237
  endloop
 endfacet

 facet normal -1 0 0
  outer loop
  vertex -0.5 -0.5 137
  vertex -0.5 -230.5 137
  vertex -0.5 -230.5 237
  endloop
 endfacet

 facet normal -1 0 0
  outer loop
  vertex -0.5 -0.5 137
  vertex -0.5 -230.5 237
  vertex -0.5 -0.5 237
  endloop
 endfacet

 facet normal 0 0 -1
  outer loop
  vertex -0.5 -382.75 0
  vertex -0.5 -0.25 0
  vertex 0.5 -0.25 0
  endloop
 endfacet

 facet normal 0 0 -1
  outer loop
  vertex -0.5 -382.75 0
  vertex 0.5 -0.25 0
  vertex 0.5 -382.75 0
  endloop
 endfacet

 facet normal 0 0 1
  outer loop
  vertex -0.5 -382.75 137
  vertex 0.5 -382.75 137
  vertex 0.5 -0.25 137
  endloop
 endfacet

 facet normal 0 0 1
  outer loop
  vertex -0.5 -382.75 137
  vertex 0.5 -0.25 137
  vertex -0.5 -0.25 137
  endloop
 endfacet

 facet normal 0 -1 0
  outer loop
  vertex -0.5 -382.75 0
  vertex 0.5 -382.75 0
  vertex 0.5 -382.75 137
  endloop
 endfacet

 facet normal 0 -1 0
  outer loop
  vertex -0.5 -382.75 0
  vertex 0.5 -382.75 137
  vertex -0.5 -382.75 137
  endloop
 endfacet

 facet normal 1 0 0
  outer loop
  vertex 0.5 -382.75 0
  vertex 0.5 -0.25 0
  vertex 0.5 -0.25 137
  endloop
 endfacet

 facet normal 1 0 0
  outer loop
  vertex 0.5 -382.75 0
  vertex 0.5 -0.25 137
  vertex 0.5 -382.75 137
  endloop
 endfacet

 facet normal 0 1 0
  outer loop
  vertex 0.5 -0.25 0
  vertex -0.5 -0.25 0
  vertex -0.5 -0.25 137
  endloop
 endfacet

 facet normal 0 1 0
  outer loop
  vertex 0.5 -0.25 0
  vertex -0.5 -0.25 137
  vertex 0.5 -0.25 137
  endloop
 endfacet

 facet normal -1 0 0
  outer loop
  vertex -0.5 -0.25 0
  vertex -0.5 -382.75 0
  vertex -0.5 -382.75 137
  endloop
 endfacet

 facet normal -1 0 0
  outer loop
  vertex -0.5 -0.25 0
  vertex -0.5 -382.75 137
  vertex -0.5 -0.25 137
  endloop
 endfacet

endsolidAssimpScene
