solid AssimpScene
 facet normal 0 0 -1
  outer loop
  vertex -85 -0.5 15
  vertex -85 0.5 15
  vertex 85 0.5 15
  endloop
 endfacet

 facet normal 0 0 -1
  outer loop
  vertex -85 -0.5 15
  vertex 85 0.5 15
  vertex 85 -0.5 15
  endloop
 endfacet

 facet normal 0 0 1
  outer loop
  vertex -85 -0.5 120
  vertex 85 -0.5 120
  vertex 85 0.5 120
  endloop
 endfacet

 facet normal 0 0 1
  outer loop
  vertex -85 -0.5 120
  vertex 85 0.5 120
  vertex -85 0.5 120
  endloop
 endfacet

 facet normal 0 -1 0
  outer loop
  vertex -85 -0.5 15
  vertex 85 -0.5 15
  vertex 85 -0.5 120
  endloop
 endfacet

 facet normal 0 -1 0
  outer loop
  vertex -85 -0.5 15
  vertex 85 -0.5 120
  vertex -85 -0.5 120
  endloop
 endfacet

 facet normal 1 0 0
  outer loop
  vertex 85 -0.5 15
  vertex 85 0.5 15
  vertex 85 0.5 120
  endloop
 endfacet

 facet normal 1 0 0
  outer loop
  vertex 85 -0.5 15
  vertex 85 0.5 120
  vertex 85 -0.5 120
  endloop
 endfacet

 facet normal 0 1 0
  outer loop
  vertex 85 0.5 15
  vertex -85 0.5 15
  vertex -85 0.5 120
  endloop
 endfacet

 facet normal 0 1 0
  outer loop
  vertex 85 0.5 15
  vertex -85 0.5 120
  vertex 85 0.5 120
  endloop
 endfacet

 facet normal -1 0 0
  outer loop
  vertex -85 0.5 15
  vertex -85 -0.5 15
  vertex -85 -0.5 120
  endloop
 endfacet

 facet normal -1 0 0
  outer loop
  vertex -85 0.5 15
  vertex -85 -0.5 120
  vertex -85 0.5 120
  endloop
 endfacet

 facet normal 0 0 -1
  outer loop
  vertex -125 -0.5 0
  vertex -125 0.5 0
  vertex 125 0.5 0
  endloop
 endfacet

 facet normal 0 0 -1
  outer loop
  vertex -125 -0.5 0
  vertex 125 0.5 0
  vertex 125 -0.5 0
  endloop
 endfacet

 facet normal 0 0 1
  outer loop
  vertex -125 -0.5 15
  vertex 125 -0.5 15
  vertex 125 0.5 15
  endloop
 endfacet

 facet normal 0 0 1
  outer loop
  vertex -125 -0.5 15
  vertex 125 0.5 15
  vertex -125 0.5 15
  endloop
 endfacet

 facet normal 0 -1 0
  outer loop
  vertex -125 -0.5 0
  vertex 125 -0.5 0
  vertex 125 -0.5 15
  endloop
 endfacet

 facet normal 0 -1 0
  outer loop
  vertex -125 -0.5 0
  vertex 125 -0.5 15
  vertex -125 -0.5 15
  endloop
 endfacet

 facet normal 1 0 0
  outer loop
  vertex 125 -0.5 0
  vertex 125 0.5 0
  vertex 125 0.5 15
  endloop
 endfacet

 facet normal 1 0 0
  outer loop
  vertex 125 -0.5 0
  vertex 125 0.5 15
  vertex 125 -0.5 15
  endloop
 endfacet

 facet normal 0 1 0
  outer loop
  vertex 125 0.5 0
  vertex -125 0.5 0
  vertex -125 0.5 15
  endloop
 endfacet

 facet normal 0 1 0
  outer loop
  vertex 125 0.5 0
  vertex -125 0.5 15
  vertex 125 0.5 15
  endloop
 endfacet

 facet normal -1 0 0
  outer loop
  vertex -125 0.5 0
  vertex -125 -0.5 0
  vertex -125 -0.5 15
  endloop
 endfacet

 facet normal -1 0 0
  outer loop
  vertex -125 0.5 0
  vertex -125 -0.5 15
  vertex -125 0.5 15
  endloop
 endfacet

endsolidAssimpScene
