# 3ds Max Wavefront OBJ Exporter v0.97b - (c)2007 guruware
# File Created: 06.03.2017 16:45:13

#
# object Box001
#

v  -75.0000 -0.5000 0.0000
v  75.0000 -0.5000 0.0000
v  -75.0000 0.5000 0.0000
v  75.0000 0.5000 0.0000
v  -75.0000 -0.5000 80.0000
v  75.0000 -0.5000 80.0000
v  -75.0000 0.5000 80.0000
v  75.0000 0.5000 80.0000
v  -75.0000 -0.5000 80.0000
v  75.0000 -0.5000 80.0000
v  -75.0000 0.5000 80.0000
v  75.0000 0.5000 80.0000
v  -45.0000 -0.5000 110.0000
v  45.0000 -0.5000 110.0000
v  -45.0000 0.5000 110.0000
v  45.0000 0.5000 110.0000
# 16 vertices

vn 0.0000 0.0000 -1.0000
vn 0.0000 0.0000 -1.0000
vn 0.0000 0.0000 -1.0000
vn 0.0000 0.0000 -1.0000
vn 0.0000 0.0000 1.0000
vn 0.0000 0.0000 1.0000
vn 0.0000 0.0000 1.0000
vn 0.0000 0.0000 1.0000
vn 0.0000 -1.0000 0.0000
vn 0.0000 -1.0000 0.0000
vn 0.0000 -1.0000 0.0000
vn 0.0000 -1.0000 0.0000
vn 1.0000 0.0000 0.0000
vn 1.0000 0.0000 0.0000
vn 1.0000 0.0000 0.0000
vn 1.0000 0.0000 0.0000
vn 0.0000 1.0000 0.0000
vn 0.0000 1.0000 0.0000
vn 0.0000 1.0000 0.0000
vn 0.0000 1.0000 0.0000
vn -1.0000 0.0000 0.0000
vn -1.0000 0.0000 0.0000
vn -1.0000 0.0000 0.0000
vn -1.0000 0.0000 0.0000
vn 0.0000 0.0000 -1.0000
vn 0.0000 0.0000 -1.0000
vn 0.0000 0.0000 -1.0000
vn 0.0000 0.0000 -1.0000
vn 0.0000 0.0000 1.0000
vn 0.0000 0.0000 1.0000
vn 0.0000 0.0000 1.0000
vn 0.0000 0.0000 1.0000
vn 0.0000 -1.0000 0.0000
vn 0.0000 -1.0000 0.0000
vn 0.0000 -1.0000 0.0000
vn 0.0000 -1.0000 0.0000
vn 0.7071 0.0000 0.7071
vn 0.7071 0.0000 0.7071
vn 0.7071 0.0000 0.7071
vn 0.7071 0.0000 0.7071
vn 0.0000 1.0000 0.0000
vn 0.0000 1.0000 0.0000
vn 0.0000 1.0000 0.0000
vn 0.0000 1.0000 0.0000
vn -0.7071 0.0000 0.7071
vn -0.7071 0.0000 0.7071
vn -0.7071 0.0000 0.7071
vn -0.7071 0.0000 0.7071
# 48 vertex normals

g Box001
s 2
f 1//1 3//2 4//3 2//4 
s 4
f 5//5 6//6 8//7 7//8 
s 8
f 1//9 2//10 6//11 5//12 
s 16
f 2//13 4//14 8//15 6//16 
s 32
f 4//17 3//18 7//19 8//20 
s 64
f 3//21 1//22 5//23 7//24 
s 2
f 9//25 11//26 12//27 10//28 
s 4
f 13//29 14//30 16//31 15//32 
s 8
f 9//33 10//34 14//35 13//36 
s 16
f 10//37 12//38 16//39 14//40 
s 32
f 12//41 11//42 15//43 16//44 
s 64
f 11//45 9//46 13//47 15//48 
# 12 polygons

