# 3ds Max Wavefront OBJ Exporter v0.97b - (c)2007 guruware
# File Created: 06.03.2017 13:28:35

#
# object Box002
#

v  -25.0000 -0.5000 0.0000
v  -11.5000 -0.5000 0.0000
v  -25.0000 0.5000 0.0000
v  -11.5000 0.5000 0.0000
v  -25.0000 -0.5000 32.0000
v  -11.5000 -0.5000 32.0000
v  -25.0000 0.5000 32.0000
v  -11.5000 0.5000 32.0000
v  -11.5000 -0.5000 0.0000
v  11.5000 -0.5000 0.0000
v  -11.5000 0.5000 0.0000
v  11.5000 0.5000 0.0000
v  -11.5000 -0.5000 50.0000
v  11.5000 -0.5000 50.0000
v  -11.5000 0.5000 50.0000
v  11.5000 0.5000 50.0000
v  11.5000 -0.5000 0.0000
v  25.0000 -0.5000 0.0000
v  11.5000 0.5000 0.0000
v  25.0000 0.5000 0.0000
v  11.5000 -0.5000 32.0000
v  25.0000 -0.5000 32.0000
v  11.5000 0.5000 32.0000
v  25.0000 0.5000 32.0000
# 24 vertices

vn 0.0000 0.0000 -1.0000
vn 0.0000 0.0000 -1.0000
vn 0.0000 0.0000 -1.0000
vn 0.0000 0.0000 -1.0000
vn 0.0000 0.0000 1.0000
vn 0.0000 0.0000 1.0000
vn 0.0000 0.0000 1.0000
vn 0.0000 0.0000 1.0000
vn 0.0000 -1.0000 0.0000
vn 0.0000 -1.0000 0.0000
vn 0.0000 -1.0000 0.0000
vn 0.0000 -1.0000 0.0000
vn 1.0000 0.0000 0.0000
vn 1.0000 0.0000 0.0000
vn 1.0000 0.0000 0.0000
vn 1.0000 0.0000 0.0000
vn 0.0000 1.0000 0.0000
vn 0.0000 1.0000 0.0000
vn 0.0000 1.0000 0.0000
vn 0.0000 1.0000 0.0000
vn -1.0000 0.0000 0.0000
vn -1.0000 0.0000 0.0000
vn -1.0000 0.0000 0.0000
vn -1.0000 0.0000 0.0000
vn 0.0000 0.0000 -1.0000
vn 0.0000 0.0000 -1.0000
vn 0.0000 0.0000 -1.0000
vn 0.0000 0.0000 -1.0000
vn 0.0000 0.0000 1.0000
vn 0.0000 0.0000 1.0000
vn 0.0000 0.0000 1.0000
vn 0.0000 0.0000 1.0000
vn 0.0000 -1.0000 0.0000
vn 0.0000 -1.0000 0.0000
vn 0.0000 -1.0000 0.0000
vn 0.0000 -1.0000 0.0000
vn 1.0000 0.0000 0.0000
vn 1.0000 0.0000 0.0000
vn 1.0000 0.0000 0.0000
vn 1.0000 0.0000 0.0000
vn 0.0000 1.0000 0.0000
vn 0.0000 1.0000 0.0000
vn 0.0000 1.0000 0.0000
vn 0.0000 1.0000 0.0000
vn -1.0000 0.0000 0.0000
vn -1.0000 0.0000 0.0000
vn -1.0000 0.0000 0.0000
vn -1.0000 0.0000 0.0000
vn 0.0000 0.0000 -1.0000
vn 0.0000 0.0000 -1.0000
vn 0.0000 0.0000 -1.0000
vn 0.0000 0.0000 -1.0000
vn 0.0000 0.0000 1.0000
vn 0.0000 0.0000 1.0000
vn 0.0000 0.0000 1.0000
vn 0.0000 0.0000 1.0000
vn 0.0000 -1.0000 0.0000
vn 0.0000 -1.0000 0.0000
vn 0.0000 -1.0000 0.0000
vn 0.0000 -1.0000 0.0000
vn 1.0000 0.0000 0.0000
vn 1.0000 0.0000 0.0000
vn 1.0000 0.0000 0.0000
vn 1.0000 0.0000 0.0000
vn 0.0000 1.0000 0.0000
vn 0.0000 1.0000 0.0000
vn 0.0000 1.0000 0.0000
vn 0.0000 1.0000 0.0000
vn -1.0000 0.0000 0.0000
vn -1.0000 0.0000 0.0000
vn -1.0000 0.0000 0.0000
vn -1.0000 0.0000 0.0000
# 72 vertex normals

g Box002
s 2
f 1//1 3//2 4//3 2//4 
s 4
f 5//5 6//6 8//7 7//8 
s 8
f 1//9 2//10 6//11 5//12 
s 16
f 2//13 4//14 8//15 6//16 
s 32
f 4//17 3//18 7//19 8//20 
s 64
f 3//21 1//22 5//23 7//24 
s 2
f 9//25 11//26 12//27 10//28 
s 4
f 13//29 14//30 16//31 15//32 
s 8
f 9//33 10//34 14//35 13//36 
s 16
f 10//37 12//38 16//39 14//40 
s 32
f 12//41 11//42 15//43 16//44 
s 64
f 11//45 9//46 13//47 15//48 
s 2
f 17//49 19//50 20//51 18//52 
s 4
f 21//53 22//54 24//55 23//56 
s 8
f 17//57 18//58 22//59 21//60 
s 16
f 18//61 20//62 24//63 22//64 
s 32
f 20//65 19//66 23//67 24//68 
s 64
f 19//69 17//70 21//71 23//72 
# 18 polygons

