solid AssimpScene
 facet normal 0 0 -1
  outer loop
  vertex -125 -0.5 0
  vertex -125 0.5 0
  vertex 125 0.5 0
  endloop
 endfacet

 facet normal 0 0 -1
  outer loop
  vertex -125 -0.5 0
  vertex 125 0.5 0
  vertex 125 -0.5 0
  endloop
 endfacet

 facet normal 0 0 1
  outer loop
  vertex -125 -0.5 120
  vertex 125 -0.5 120
  vertex 125 0.5 120
  endloop
 endfacet

 facet normal 0 0 1
  outer loop
  vertex -125 -0.5 120
  vertex 125 0.5 120
  vertex -125 0.5 120
  endloop
 endfacet

 facet normal 0 -1 0
  outer loop
  vertex -125 -0.5 0
  vertex 125 -0.5 0
  vertex 125 -0.5 120
  endloop
 endfacet

 facet normal 0 -1 0
  outer loop
  vertex -125 -0.5 0
  vertex 125 -0.5 120
  vertex -125 -0.5 120
  endloop
 endfacet

 facet normal 1 0 0
  outer loop
  vertex 125 -0.5 0
  vertex 125 0.5 0
  vertex 125 0.5 120
  endloop
 endfacet

 facet normal 1 0 0
  outer loop
  vertex 125 -0.5 0
  vertex 125 0.5 120
  vertex 125 -0.5 120
  endloop
 endfacet

 facet normal 0 1 0
  outer loop
  vertex 125 0.5 0
  vertex -125 0.5 0
  vertex -125 0.5 120
  endloop
 endfacet

 facet normal 0 1 0
  outer loop
  vertex 125 0.5 0
  vertex -125 0.5 120
  vertex 125 0.5 120
  endloop
 endfacet

 facet normal -1 0 0
  outer loop
  vertex -125 0.5 0
  vertex -125 -0.5 0
  vertex -125 -0.5 120
  endloop
 endfacet

 facet normal -1 0 0
  outer loop
  vertex -125 0.5 0
  vertex -125 -0.5 120
  vertex -125 0.5 120
  endloop
 endfacet

 facet normal 0 0 -1
  outer loop
  vertex -125 -0.5 120
  vertex -125 0.5 120
  vertex 125 0.5 120
  endloop
 endfacet

 facet normal 0 0 -1
  outer loop
  vertex -125 -0.5 120
  vertex 125 0.5 120
  vertex 125 -0.5 120
  endloop
 endfacet

 facet normal 0 0 1
  outer loop
  vertex -125 -0.5 135
  vertex 55 -0.5 135
  vertex 55 0.5 135
  endloop
 endfacet

 facet normal 0 0 1
  outer loop
  vertex -125 -0.5 135
  vertex 55 0.5 135
  vertex -125 0.5 135
  endloop
 endfacet

 facet normal 0 -1 0
  outer loop
  vertex -125 -0.5 120
  vertex 125 -0.5 120
  vertex 55 -0.5 135
  endloop
 endfacet

 facet normal 0 -1 0
  outer loop
  vertex -125 -0.5 120
  vertex 55 -0.5 135
  vertex -125 -0.5 135
  endloop
 endfacet

 facet normal 0.20950176 0 0.9778083
  outer loop
  vertex 125 -0.5 120
  vertex 125 0.5 120
  vertex 55 0.5 135
  endloop
 endfacet

 facet normal 0.20950176 0 0.9778083
  outer loop
  vertex 125 -0.5 120
  vertex 55 0.5 135
  vertex 55 -0.5 135
  endloop
 endfacet

 facet normal 0 1 0
  outer loop
  vertex 125 0.5 120
  vertex -125 0.5 120
  vertex -125 0.5 135
  endloop
 endfacet

 facet normal 0 1 0
  outer loop
  vertex 125 0.5 120
  vertex -125 0.5 135
  vertex 55 0.5 135
  endloop
 endfacet

 facet normal -1 0 0
  outer loop
  vertex -125 0.5 120
  vertex -125 -0.5 120
  vertex -125 -0.5 135
  endloop
 endfacet

 facet normal -1 0 0
  outer loop
  vertex -125 0.5 120
  vertex -125 -0.5 135
  vertex -125 0.5 135
  endloop
 endfacet

 facet normal 0 0 -1
  outer loop
  vertex -125 -0.5 135
  vertex -125 0.5 135
  vertex 125 0.5 135
  endloop
 endfacet

 facet normal 0 0 -1
  outer loop
  vertex -125 -0.5 135
  vertex 125 0.5 135
  vertex 125 -0.5 135
  endloop
 endfacet

 facet normal 0 0 1
  outer loop
  vertex -125 -0.5 150
  vertex 125 -0.5 150
  vertex 125 0.5 150
  endloop
 endfacet

 facet normal 0 0 1
  outer loop
  vertex -125 -0.5 150
  vertex 125 0.5 150
  vertex -125 0.5 150
  endloop
 endfacet

 facet normal 0 -1 0
  outer loop
  vertex -125 -0.5 135
  vertex 125 -0.5 135
  vertex 125 -0.5 150
  endloop
 endfacet

 facet normal 0 -1 0
  outer loop
  vertex -125 -0.5 135
  vertex 125 -0.5 150
  vertex -125 -0.5 150
  endloop
 endfacet

 facet normal 1 0 0
  outer loop
  vertex 125 -0.5 135
  vertex 125 0.5 135
  vertex 125 0.5 150
  endloop
 endfacet

 facet normal 1 0 0
  outer loop
  vertex 125 -0.5 135
  vertex 125 0.5 150
  vertex 125 -0.5 150
  endloop
 endfacet

 facet normal 0 1 0
  outer loop
  vertex 125 0.5 135
  vertex -125 0.5 135
  vertex -125 0.5 150
  endloop
 endfacet

 facet normal 0 1 0
  outer loop
  vertex 125 0.5 135
  vertex -125 0.5 150
  vertex 125 0.5 150
  endloop
 endfacet

 facet normal -1 0 0
  outer loop
  vertex -125 0.5 135
  vertex -125 -0.5 135
  vertex -125 -0.5 150
  endloop
 endfacet

 facet normal -1 0 0
  outer loop
  vertex -125 0.5 135
  vertex -125 -0.5 150
  vertex -125 0.5 150
  endloop
 endfacet

endsolidAssimpScene
