solid AssimpScene
 facet normal 0.36240762 0 -0.93201971
  outer loop
  vertex -6.5 -0.5 75
  vertex -6.5 0.5 75
  vertex 11.5 0.5 82
  endloop
 endfacet

 facet normal 0.36240762 0 -0.93201971
  outer loop
  vertex -6.5 -0.5 75
  vertex 11.5 0.5 82
  vertex 11.5 -0.5 82
  endloop
 endfacet

 facet normal 0 0 1
  outer loop
  vertex -6.5 -0.5 100
  vertex 11.5 -0.5 100
  vertex 11.5 0.5 100
  endloop
 endfacet

 facet normal 0 0 1
  outer loop
  vertex -6.5 -0.5 100
  vertex 11.5 0.5 100
  vertex -6.5 0.5 100
  endloop
 endfacet

 facet normal 0 -1 0
  outer loop
  vertex -6.5 -0.5 75
  vertex 11.5 -0.5 82
  vertex 11.5 -0.5 100
  endloop
 endfacet

 facet normal 0 -1 0
  outer loop
  vertex -6.5 -0.5 75
  vertex 11.5 -0.5 100
  vertex -6.5 -0.5 100
  endloop
 endfacet

 facet normal 1 0 0
  outer loop
  vertex 11.5 -0.5 82
  vertex 11.5 0.5 82
  vertex 11.5 0.5 100
  endloop
 endfacet

 facet normal 1 0 0
  outer loop
  vertex 11.5 -0.5 82
  vertex 11.5 0.5 100
  vertex 11.5 -0.5 100
  endloop
 endfacet

 facet normal 0 1 0
  outer loop
  vertex 11.5 0.5 82
  vertex -6.5 0.5 75
  vertex -6.5 0.5 100
  endloop
 endfacet

 facet normal 0 1 0
  outer loop
  vertex 11.5 0.5 82
  vertex -6.5 0.5 100
  vertex 11.5 0.5 100
  endloop
 endfacet

 facet normal -1 0 0
  outer loop
  vertex -6.5 0.5 75
  vertex -6.5 -0.5 75
  vertex -6.5 -0.5 100
  endloop
 endfacet

 facet normal -1 0 0
  outer loop
  vertex -6.5 0.5 75
  vertex -6.5 -0.5 100
  vertex -6.5 0.5 100
  endloop
 endfacet

 facet normal 0 0 -1
  outer loop
  vertex -11.5 -0.5 75
  vertex -11.5 0.5 75
  vertex -6.5 0.5 75
  endloop
 endfacet

 facet normal 0 0 -1
  outer loop
  vertex -11.5 -0.5 75
  vertex -6.5 0.5 75
  vertex -6.5 -0.5 75
  endloop
 endfacet

 facet normal 0 0 1
  outer loop
  vertex -11.5 -0.5 100
  vertex -6.5 -0.5 100
  vertex -6.5 0.5 100
  endloop
 endfacet

 facet normal 0 0 1
  outer loop
  vertex -11.5 -0.5 100
  vertex -6.5 0.5 100
  vertex -11.5 0.5 100
  endloop
 endfacet

 facet normal 0 -1 0
  outer loop
  vertex -11.5 -0.5 75
  vertex -6.5 -0.5 75
  vertex -6.5 -0.5 100
  endloop
 endfacet

 facet normal 0 -1 0
  outer loop
  vertex -11.5 -0.5 75
  vertex -6.5 -0.5 100
  vertex -11.5 -0.5 100
  endloop
 endfacet

 facet normal 1 0 0
  outer loop
  vertex -6.5 -0.5 75
  vertex -6.5 0.5 75
  vertex -6.5 0.5 100
  endloop
 endfacet

 facet normal 1 0 0
  outer loop
  vertex -6.5 -0.5 75
  vertex -6.5 0.5 100
  vertex -6.5 -0.5 100
  endloop
 endfacet

 facet normal 0 1 0
  outer loop
  vertex -6.5 0.5 75
  vertex -11.5 0.5 75
  vertex -11.5 0.5 100
  endloop
 endfacet

 facet normal 0 1 0
  outer loop
  vertex -6.5 0.5 75
  vertex -11.5 0.5 100
  vertex -6.5 0.5 100
  endloop
 endfacet

 facet normal -1 0 0
  outer loop
  vertex -11.5 0.5 75
  vertex -11.5 -0.5 75
  vertex -11.5 -0.5 100
  endloop
 endfacet

 facet normal -1 0 0
  outer loop
  vertex -11.5 0.5 75
  vertex -11.5 -0.5 100
  vertex -11.5 0.5 100
  endloop
 endfacet

 facet normal 0 0 -1
  outer loop
  vertex -15 -0.5 0
  vertex -15 0.5 0
  vertex 25 0.5 0
  endloop
 endfacet

 facet normal 0 0 -1
  outer loop
  vertex -15 -0.5 0
  vertex 25 0.5 0
  vertex 25 -0.5 0
  endloop
 endfacet

 facet normal -0.37139067 0 0.92847669
  outer loop
  vertex -25 -0.5 55
  vertex 25 -0.5 75
  vertex 25 0.5 75
  endloop
 endfacet

 facet normal -0.37139067 0 0.92847669
  outer loop
  vertex -25 -0.5 55
  vertex 25 0.5 75
  vertex -25 0.5 55
  endloop
 endfacet

 facet normal 0 -1 0
  outer loop
  vertex -15 -0.5 0
  vertex 25 -0.5 0
  vertex 25 -0.5 75
  endloop
 endfacet

 facet normal 0 -1 0
  outer loop
  vertex -15 -0.5 0
  vertex 25 -0.5 75
  vertex -25 -0.5 55
  endloop
 endfacet

 facet normal 1 0 0
  outer loop
  vertex 25 -0.5 0
  vertex 25 0.5 0
  vertex 25 0.5 75
  endloop
 endfacet

 facet normal 1 0 0
  outer loop
  vertex 25 -0.5 0
  vertex 25 0.5 75
  vertex 25 -0.5 75
  endloop
 endfacet

 facet normal 0 1 0
  outer loop
  vertex 25 0.5 0
  vertex -15 0.5 0
  vertex -25 0.5 55
  endloop
 endfacet

 facet normal 0 1 0
  outer loop
  vertex 25 0.5 0
  vertex -25 0.5 55
  vertex 25 0.5 75
  endloop
 endfacet

 facet normal -0.98386836 0 -0.17889425
  outer loop
  vertex -15 0.5 0
  vertex -15 -0.5 0
  vertex -25 -0.5 55
  endloop
 endfacet

 facet normal -0.98386836 0 -0.17889425
  outer loop
  vertex -15 0.5 0
  vertex -25 -0.5 55
  vertex -25 0.5 55
  endloop
 endfacet

 facet normal 0.37139067 0 -0.92847669
  outer loop
  vertex -25 -0.5 55
  vertex -25 0.5 55
  vertex 25 0.5 75
  endloop
 endfacet

 facet normal 0.37139067 0 -0.92847669
  outer loop
  vertex -25 -0.5 55
  vertex 25 0.5 75
  vertex 25 -0.5 75
  endloop
 endfacet

 facet normal -0.36240762 0 0.93201971
  outer loop
  vertex -6.5 -0.5 75
  vertex 11.5 -0.5 82
  vertex 11.5 0.5 82
  endloop
 endfacet

 facet normal -0.36240762 0 0.93201971
  outer loop
  vertex -6.5 -0.5 75
  vertex 11.5 0.5 82
  vertex -6.5 0.5 75
  endloop
 endfacet

 facet normal 0 -1 0
  outer loop
  vertex -6.5 -0.5 75
  vertex -25 -0.5 55
  vertex 25 -0.5 75
  endloop
 endfacet

 facet normal 0 -1 0
  outer loop
  vertex -6.5 -0.5 75
  vertex 25 -0.5 75
  vertex 11.5 -0.5 82
  endloop
 endfacet

 facet normal 0.4602851 0 0.88777119
  outer loop
  vertex 25 -0.5 75
  vertex 25 0.5 75
  vertex 11.5 0.5 82
  endloop
 endfacet

 facet normal 0.4602851 0 0.88777119
  outer loop
  vertex 25 -0.5 75
  vertex 11.5 0.5 82
  vertex 11.5 -0.5 82
  endloop
 endfacet

 facet normal 0 1 0
  outer loop
  vertex 25 0.5 75
  vertex -25 0.5 55
  vertex -6.5 0.5 75
  endloop
 endfacet

 facet normal 0 1 0
  outer loop
  vertex 25 0.5 75
  vertex -6.5 0.5 75
  vertex 11.5 0.5 82
  endloop
 endfacet

 facet normal -0.73412061 0 0.67901909
  outer loop
  vertex -25 0.5 55
  vertex -25 -0.5 55
  vertex -6.5 -0.5 75
  endloop
 endfacet

 facet normal -0.73412061 0 0.67901909
  outer loop
  vertex -25 0.5 55
  vertex -6.5 -0.5 75
  vertex -6.5 0.5 75
  endloop
 endfacet

endsolidAssimpScene
