solid AssimpScene
 facet normal 0 0 -1
  outer loop
  vertex -80 -0.5 50
  vertex -80 0.5 50
  vertex 80 0.5 50
  endloop
 endfacet

 facet normal 0 0 -1
  outer loop
  vertex -80 -0.5 50
  vertex 80 0.5 50
  vertex 80 -0.5 50
  endloop
 endfacet

 facet normal 0 0 1
  outer loop
  vertex -50 -0.5 80
  vertex 50 -0.5 80
  vertex 50 0.5 80
  endloop
 endfacet

 facet normal 0 0 1
  outer loop
  vertex -50 -0.5 80
  vertex 50 0.5 80
  vertex -50 0.5 80
  endloop
 endfacet

 facet normal 0 -1 0
  outer loop
  vertex -80 -0.5 50
  vertex 80 -0.5 50
  vertex 50 -0.5 80
  endloop
 endfacet

 facet normal 0 -1 0
  outer loop
  vertex -80 -0.5 50
  vertex 50 -0.5 80
  vertex -50 -0.5 80
  endloop
 endfacet

 facet normal 0.70710677 0 0.70710677
  outer loop
  vertex 80 -0.5 50
  vertex 80 0.5 50
  vertex 50 0.5 80
  endloop
 endfacet

 facet normal 0.70710677 0 0.70710677
  outer loop
  vertex 80 -0.5 50
  vertex 50 0.5 80
  vertex 50 -0.5 80
  endloop
 endfacet

 facet normal 0 1 0
  outer loop
  vertex 80 0.5 50
  vertex -80 0.5 50
  vertex -50 0.5 80
  endloop
 endfacet

 facet normal 0 1 0
  outer loop
  vertex 80 0.5 50
  vertex -50 0.5 80
  vertex 50 0.5 80
  endloop
 endfacet

 facet normal -0.70710677 0 0.70710677
  outer loop
  vertex -80 0.5 50
  vertex -80 -0.5 50
  vertex -50 -0.5 80
  endloop
 endfacet

 facet normal -0.70710677 0 0.70710677
  outer loop
  vertex -80 0.5 50
  vertex -50 -0.5 80
  vertex -50 0.5 80
  endloop
 endfacet

 facet normal 0 0 -1
  outer loop
  vertex -148 -0.5 0
  vertex -148 0.5 0
  vertex 148 0.5 0
  endloop
 endfacet

 facet normal 0 0 -1
  outer loop
  vertex -148 -0.5 0
  vertex 148 0.5 0
  vertex 148 -0.5 0
  endloop
 endfacet

 facet normal 0 0 1
  outer loop
  vertex -148 -0.5 50
  vertex 148 -0.5 50
  vertex 148 0.5 50
  endloop
 endfacet

 facet normal 0 0 1
  outer loop
  vertex -148 -0.5 50
  vertex 148 0.5 50
  vertex -148 0.5 50
  endloop
 endfacet

 facet normal 0 -1 0
  outer loop
  vertex -148 -0.5 0
  vertex 148 -0.5 0
  vertex 148 -0.5 50
  endloop
 endfacet

 facet normal 0 -1 0
  outer loop
  vertex -148 -0.5 0
  vertex 148 -0.5 50
  vertex -148 -0.5 50
  endloop
 endfacet

 facet normal 1 0 0
  outer loop
  vertex 148 -0.5 0
  vertex 148 0.5 0
  vertex 148 0.5 50
  endloop
 endfacet

 facet normal 1 0 0
  outer loop
  vertex 148 -0.5 0
  vertex 148 0.5 50
  vertex 148 -0.5 50
  endloop
 endfacet

 facet normal 0 1 0
  outer loop
  vertex 148 0.5 0
  vertex -148 0.5 0
  vertex -148 0.5 50
  endloop
 endfacet

 facet normal 0 1 0
  outer loop
  vertex 148 0.5 0
  vertex -148 0.5 50
  vertex 148 0.5 50
  endloop
 endfacet

 facet normal -1 0 0
  outer loop
  vertex -148 0.5 0
  vertex -148 -0.5 0
  vertex -148 -0.5 50
  endloop
 endfacet

 facet normal -1 0 0
  outer loop
  vertex -148 0.5 0
  vertex -148 -0.5 50
  vertex -148 0.5 50
  endloop
 endfacet

endsolidAssimpScene
