solid AssimpScene
 facet normal 0 0 -1
  outer loop
  vertex -11.5 -0.5 12
  vertex -11.5 0.5 12
  vertex 11.5 0.5 12
  endloop
 endfacet

 facet normal 0 0 -1
  outer loop
  vertex -11.5 -0.5 12
  vertex 11.5 0.5 12
  vertex 11.5 -0.5 12
  endloop
 endfacet

 facet normal 0 0 1
  outer loop
  vertex -11.5 -0.5 30
  vertex 11.5 -0.5 30
  vertex 11.5 0.5 30
  endloop
 endfacet

 facet normal 0 0 1
  outer loop
  vertex -11.5 -0.5 30
  vertex 11.5 0.5 30
  vertex -11.5 0.5 30
  endloop
 endfacet

 facet normal 0 -1 0
  outer loop
  vertex -11.5 -0.5 12
  vertex 11.5 -0.5 12
  vertex 11.5 -0.5 30
  endloop
 endfacet

 facet normal 0 -1 0
  outer loop
  vertex -11.5 -0.5 12
  vertex 11.5 -0.5 30
  vertex -11.5 -0.5 30
  endloop
 endfacet

 facet normal 1 0 0
  outer loop
  vertex 11.5 -0.5 12
  vertex 11.5 0.5 12
  vertex 11.5 0.5 30
  endloop
 endfacet

 facet normal 1 0 0
  outer loop
  vertex 11.5 -0.5 12
  vertex 11.5 0.5 30
  vertex 11.5 -0.5 30
  endloop
 endfacet

 facet normal 0 1 0
  outer loop
  vertex 11.5 0.5 12
  vertex -11.5 0.5 12
  vertex -11.5 0.5 30
  endloop
 endfacet

 facet normal 0 1 0
  outer loop
  vertex 11.5 0.5 12
  vertex -11.5 0.5 30
  vertex 11.5 0.5 30
  endloop
 endfacet

 facet normal -1 0 0
  outer loop
  vertex -11.5 0.5 12
  vertex -11.5 -0.5 12
  vertex -11.5 -0.5 30
  endloop
 endfacet

 facet normal -1 0 0
  outer loop
  vertex -11.5 0.5 12
  vertex -11.5 -0.5 30
  vertex -11.5 0.5 30
  endloop
 endfacet

 facet normal 0 0 -1
  outer loop
  vertex -7 -0.5 0
  vertex -7 0.5 0
  vertex 7 0.5 0
  endloop
 endfacet

 facet normal 0 0 -1
  outer loop
  vertex -7 -0.5 0
  vertex 7 0.5 0
  vertex 7 -0.5 0
  endloop
 endfacet

 facet normal 0 0 1
  outer loop
  vertex -11.5 -0.5 12
  vertex 11.5 -0.5 12
  vertex 11.5 0.5 12
  endloop
 endfacet

 facet normal 0 0 1
  outer loop
  vertex -11.5 -0.5 12
  vertex 11.5 0.5 12
  vertex -11.5 0.5 12
  endloop
 endfacet

 facet normal 0 -1 0
  outer loop
  vertex -7 -0.5 0
  vertex 7 -0.5 0
  vertex 11.5 -0.5 12
  endloop
 endfacet

 facet normal 0 -1 0
  outer loop
  vertex -7 -0.5 0
  vertex 11.5 -0.5 12
  vertex -11.5 -0.5 12
  endloop
 endfacet

 facet normal 0.9363333 0 -0.35111251
  outer loop
  vertex 7 -0.5 0
  vertex 7 0.5 0
  vertex 11.5 0.5 12
  endloop
 endfacet

 facet normal 0.9363333 0 -0.35111251
  outer loop
  vertex 7 -0.5 0
  vertex 11.5 0.5 12
  vertex 11.5 -0.5 12
  endloop
 endfacet

 facet normal 0 1 0
  outer loop
  vertex 7 0.5 0
  vertex -7 0.5 0
  vertex -11.5 0.5 12
  endloop
 endfacet

 facet normal 0 1 0
  outer loop
  vertex 7 0.5 0
  vertex -11.5 0.5 12
  vertex 11.5 0.5 12
  endloop
 endfacet

 facet normal -0.9363333 0 -0.35111251
  outer loop
  vertex -7 0.5 0
  vertex -7 -0.5 0
  vertex -11.5 -0.5 12
  endloop
 endfacet

 facet normal -0.9363333 0 -0.35111251
  outer loop
  vertex -7 0.5 0
  vertex -11.5 -0.5 12
  vertex -11.5 0.5 12
  endloop
 endfacet

endsolidAssimpScene
