solid AssimpScene
 facet normal 0 0 -1
  outer loop
  vertex -250 -0.5 0
  vertex -250 0.5 0
  vertex -185 0.5 0
  endloop
 endfacet

 facet normal 0 0 -1
  outer loop
  vertex -250 -0.5 0
  vertex -185 0.5 0
  vertex -185 -0.5 0
  endloop
 endfacet

 facet normal 0 0 1
  outer loop
  vertex -250 -0.5 600
  vertex -185 -0.5 600
  vertex -185 0.5 600
  endloop
 endfacet

 facet normal 0 0 1
  outer loop
  vertex -250 -0.5 600
  vertex -185 0.5 600
  vertex -250 0.5 600
  endloop
 endfacet

 facet normal 0 -1 0
  outer loop
  vertex -250 -0.5 0
  vertex -185 -0.5 0
  vertex -185 -0.5 600
  endloop
 endfacet

 facet normal 0 -1 0
  outer loop
  vertex -250 -0.5 0
  vertex -185 -0.5 600
  vertex -250 -0.5 600
  endloop
 endfacet

 facet normal 1 0 0
  outer loop
  vertex -185 -0.5 0
  vertex -185 0.5 0
  vertex -185 0.5 600
  endloop
 endfacet

 facet normal 1 0 0
  outer loop
  vertex -185 -0.5 0
  vertex -185 0.5 600
  vertex -185 -0.5 600
  endloop
 endfacet

 facet normal 0 1 0
  outer loop
  vertex -185 0.5 0
  vertex -250 0.5 0
  vertex -250 0.5 600
  endloop
 endfacet

 facet normal 0 1 0
  outer loop
  vertex -185 0.5 0
  vertex -250 0.5 600
  vertex -185 0.5 600
  endloop
 endfacet

 facet normal -1 0 0
  outer loop
  vertex -250 0.5 0
  vertex -250 -0.5 0
  vertex -250 -0.5 600
  endloop
 endfacet

 facet normal -1 0 0
  outer loop
  vertex -250 0.5 0
  vertex -250 -0.5 600
  vertex -250 0.5 600
  endloop
 endfacet

 facet normal 0 0 -1
  outer loop
  vertex -185 -0.5 250
  vertex -185 0.5 250
  vertex -32.5 0.5 250
  endloop
 endfacet

 facet normal 0 0 -1
  outer loop
  vertex -185 -0.5 250
  vertex -32.5 0.5 250
  vertex -32.5 -0.5 250
  endloop
 endfacet

 facet normal 0 0 1
  outer loop
  vertex -185 -0.5 350
  vertex -32.5 -0.5 350
  vertex -32.5 0.5 350
  endloop
 endfacet

 facet normal 0 0 1
  outer loop
  vertex -185 -0.5 350
  vertex -32.5 0.5 350
  vertex -185 0.5 350
  endloop
 endfacet

 facet normal 0 -1 0
  outer loop
  vertex -185 -0.5 250
  vertex -32.5 -0.5 250
  vertex -32.5 -0.5 350
  endloop
 endfacet

 facet normal 0 -1 0
  outer loop
  vertex -185 -0.5 250
  vertex -32.5 -0.5 350
  vertex -185 -0.5 350
  endloop
 endfacet

 facet normal 1 0 0
  outer loop
  vertex -32.5 -0.5 250
  vertex -32.5 0.5 250
  vertex -32.5 0.5 350
  endloop
 endfacet

 facet normal 1 0 0
  outer loop
  vertex -32.5 -0.5 250
  vertex -32.5 0.5 350
  vertex -32.5 -0.5 350
  endloop
 endfacet

 facet normal 0 1 0
  outer loop
  vertex -32.5 0.5 250
  vertex -185 0.5 250
  vertex -185 0.5 350
  endloop
 endfacet

 facet normal 0 1 0
  outer loop
  vertex -32.5 0.5 250
  vertex -185 0.5 350
  vertex -32.5 0.5 350
  endloop
 endfacet

 facet normal -1 0 0
  outer loop
  vertex -185 0.5 250
  vertex -185 -0.5 250
  vertex -185 -0.5 350
  endloop
 endfacet

 facet normal -1 0 0
  outer loop
  vertex -185 0.5 250
  vertex -185 -0.5 350
  vertex -185 0.5 350
  endloop
 endfacet

 facet normal 0 0 -1
  outer loop
  vertex -185 -0.5 500
  vertex -185 0.5 500
  vertex -32.5 0.5 500
  endloop
 endfacet

 facet normal 0 0 -1
  outer loop
  vertex -185 -0.5 500
  vertex -32.5 0.5 500
  vertex -32.5 -0.5 500
  endloop
 endfacet

 facet normal 0 0 1
  outer loop
  vertex -185 -0.5 600
  vertex -32.5 -0.5 600
  vertex -32.5 0.5 600
  endloop
 endfacet

 facet normal 0 0 1
  outer loop
  vertex -185 -0.5 600
  vertex -32.5 0.5 600
  vertex -185 0.5 600
  endloop
 endfacet

 facet normal 0 -1 0
  outer loop
  vertex -185 -0.5 500
  vertex -32.5 -0.5 500
  vertex -32.5 -0.5 600
  endloop
 endfacet

 facet normal 0 -1 0
  outer loop
  vertex -185 -0.5 500
  vertex -32.5 -0.5 600
  vertex -185 -0.5 600
  endloop
 endfacet

 facet normal 1 0 0
  outer loop
  vertex -32.5 -0.5 500
  vertex -32.5 0.5 500
  vertex -32.5 0.5 600
  endloop
 endfacet

 facet normal 1 0 0
  outer loop
  vertex -32.5 -0.5 500
  vertex -32.5 0.5 600
  vertex -32.5 -0.5 600
  endloop
 endfacet

 facet normal 0 1 0
  outer loop
  vertex -32.5 0.5 500
  vertex -185 0.5 500
  vertex -185 0.5 600
  endloop
 endfacet

 facet normal 0 1 0
  outer loop
  vertex -32.5 0.5 500
  vertex -185 0.5 600
  vertex -32.5 0.5 600
  endloop
 endfacet

 facet normal -1 0 0
  outer loop
  vertex -185 0.5 500
  vertex -185 -0.5 500
  vertex -185 -0.5 600
  endloop
 endfacet

 facet normal -1 0 0
  outer loop
  vertex -185 0.5 500
  vertex -185 -0.5 600
  vertex -185 0.5 600
  endloop
 endfacet

 facet normal 0 0 -1
  outer loop
  vertex 32.5 -0.5 500
  vertex 32.5 0.5 500
  vertex 185 0.5 500
  endloop
 endfacet

 facet normal 0 0 -1
  outer loop
  vertex 32.5 -0.5 500
  vertex 185 0.5 500
  vertex 185 -0.5 500
  endloop
 endfacet

 facet normal 0 0 1
  outer loop
  vertex 32.5 -0.5 600
  vertex 185 -0.5 600
  vertex 185 0.5 600
  endloop
 endfacet

 facet normal 0 0 1
  outer loop
  vertex 32.5 -0.5 600
  vertex 185 0.5 600
  vertex 32.5 0.5 600
  endloop
 endfacet

 facet normal 0 -1 0
  outer loop
  vertex 32.5 -0.5 500
  vertex 185 -0.5 500
  vertex 185 -0.5 600
  endloop
 endfacet

 facet normal 0 -1 0
  outer loop
  vertex 32.5 -0.5 500
  vertex 185 -0.5 600
  vertex 32.5 -0.5 600
  endloop
 endfacet

 facet normal 1 0 0
  outer loop
  vertex 185 -0.5 500
  vertex 185 0.5 500
  vertex 185 0.5 600
  endloop
 endfacet

 facet normal 1 0 0
  outer loop
  vertex 185 -0.5 500
  vertex 185 0.5 600
  vertex 185 -0.5 600
  endloop
 endfacet

 facet normal 0 1 0
  outer loop
  vertex 185 0.5 500
  vertex 32.5 0.5 500
  vertex 32.5 0.5 600
  endloop
 endfacet

 facet normal 0 1 0
  outer loop
  vertex 185 0.5 500
  vertex 32.5 0.5 600
  vertex 185 0.5 600
  endloop
 endfacet

 facet normal -1 0 0
  outer loop
  vertex 32.5 0.5 500
  vertex 32.5 -0.5 500
  vertex 32.5 -0.5 600
  endloop
 endfacet

 facet normal -1 0 0
  outer loop
  vertex 32.5 0.5 500
  vertex 32.5 -0.5 600
  vertex 32.5 0.5 600
  endloop
 endfacet

 facet normal 0 0 -1
  outer loop
  vertex -350 -0.5 600
  vertex -350 0.5 600
  vertex 350 0.5 600
  endloop
 endfacet

 facet normal 0 0 -1
  outer loop
  vertex -350 -0.5 600
  vertex 350 0.5 600
  vertex 350 -0.5 600
  endloop
 endfacet

 facet normal 1 0 0
  outer loop
  vertex 0 -0.5 720
  vertex 0 -0.5 720
  vertex 0 0.5 720
  endloop
 endfacet

 facet normal 1 0 0
  outer loop
  vertex 0 -0.5 720
  vertex 0 0.5 720
  vertex 0 0.5 720
  endloop
 endfacet

 facet normal 0 -1 0
  outer loop
  vertex -350 -0.5 600
  vertex 350 -0.5 600
  vertex 0 -0.5 720
  endloop
 endfacet

 facet normal 0.44721359 -0.89442718 0
  outer loop
  vertex -350 -0.5 600
  vertex 0 -0.5 720
  vertex 0 -0.5 720
  endloop
 endfacet

 facet normal 0.32431665 0 0.9459486
  outer loop
  vertex 350 -0.5 600
  vertex 350 0.5 600
  vertex 0 0.5 720
  endloop
 endfacet

 facet normal 0.32431665 0 0.9459486
  outer loop
  vertex 350 -0.5 600
  vertex 0 0.5 720
  vertex 0 -0.5 720
  endloop
 endfacet

 facet normal 0 1 0
  outer loop
  vertex 350 0.5 600
  vertex -350 0.5 600
  vertex 0 0.5 720
  endloop
 endfacet

 facet normal 0.44721359 0.89442718 0
  outer loop
  vertex 350 0.5 600
  vertex 0 0.5 720
  vertex 0 0.5 720
  endloop
 endfacet

 facet normal -0.32431665 0 0.9459486
  outer loop
  vertex -350 0.5 600
  vertex -350 -0.5 600
  vertex 0 -0.5 720
  endloop
 endfacet

 facet normal -0.32431665 0 0.9459486
  outer loop
  vertex -350 0.5 600
  vertex 0 -0.5 720
  vertex 0 0.5 720
  endloop
 endfacet

 facet normal 0 0 -1
  outer loop
  vertex -32.5 -0.5 0
  vertex -32.5 0.5 0
  vertex 32.5 0.5 0
  endloop
 endfacet

 facet normal 0 0 -1
  outer loop
  vertex -32.5 -0.5 0
  vertex 32.5 0.5 0
  vertex 32.5 -0.5 0
  endloop
 endfacet

 facet normal 0 0 1
  outer loop
  vertex -32.5 -0.5 600
  vertex 32.5 -0.5 600
  vertex 32.5 0.5 600
  endloop
 endfacet

 facet normal 0 0 1
  outer loop
  vertex -32.5 -0.5 600
  vertex 32.5 0.5 600
  vertex -32.5 0.5 600
  endloop
 endfacet

 facet normal 0 -1 0
  outer loop
  vertex -32.5 -0.5 0
  vertex 32.5 -0.5 0
  vertex 32.5 -0.5 600
  endloop
 endfacet

 facet normal 0 -1 0
  outer loop
  vertex -32.5 -0.5 0
  vertex 32.5 -0.5 600
  vertex -32.5 -0.5 600
  endloop
 endfacet

 facet normal 1 0 0
  outer loop
  vertex 32.5 -0.5 0
  vertex 32.5 0.5 0
  vertex 32.5 0.5 600
  endloop
 endfacet

 facet normal 1 0 0
  outer loop
  vertex 32.5 -0.5 0
  vertex 32.5 0.5 600
  vertex 32.5 -0.5 600
  endloop
 endfacet

 facet normal 0 1 0
  outer loop
  vertex 32.5 0.5 0
  vertex -32.5 0.5 0
  vertex -32.5 0.5 600
  endloop
 endfacet

 facet normal 0 1 0
  outer loop
  vertex 32.5 0.5 0
  vertex -32.5 0.5 600
  vertex 32.5 0.5 600
  endloop
 endfacet

 facet normal -1 0 0
  outer loop
  vertex -32.5 0.5 0
  vertex -32.5 -0.5 0
  vertex -32.5 -0.5 600
  endloop
 endfacet

 facet normal -1 0 0
  outer loop
  vertex -32.5 0.5 0
  vertex -32.5 -0.5 600
  vertex -32.5 0.5 600
  endloop
 endfacet

 facet normal 0 0 -1
  outer loop
  vertex 185 -0.5 0
  vertex 185 0.5 0
  vertex 250 0.5 0
  endloop
 endfacet

 facet normal 0 0 -1
  outer loop
  vertex 185 -0.5 0
  vertex 250 0.5 0
  vertex 250 -0.5 0
  endloop
 endfacet

 facet normal 0 0 1
  outer loop
  vertex 185 -0.5 600
  vertex 250 -0.5 600
  vertex 250 0.5 600
  endloop
 endfacet

 facet normal 0 0 1
  outer loop
  vertex 185 -0.5 600
  vertex 250 0.5 600
  vertex 185 0.5 600
  endloop
 endfacet

 facet normal 0 -1 0
  outer loop
  vertex 185 -0.5 0
  vertex 250 -0.5 0
  vertex 250 -0.5 600
  endloop
 endfacet

 facet normal 0 -1 0
  outer loop
  vertex 185 -0.5 0
  vertex 250 -0.5 600
  vertex 185 -0.5 600
  endloop
 endfacet

 facet normal 1 0 0
  outer loop
  vertex 250 -0.5 0
  vertex 250 0.5 0
  vertex 250 0.5 600
  endloop
 endfacet

 facet normal 1 0 0
  outer loop
  vertex 250 -0.5 0
  vertex 250 0.5 600
  vertex 250 -0.5 600
  endloop
 endfacet

 facet normal 0 1 0
  outer loop
  vertex 250 0.5 0
  vertex 185 0.5 0
  vertex 185 0.5 600
  endloop
 endfacet

 facet normal 0 1 0
  outer loop
  vertex 250 0.5 0
  vertex 185 0.5 600
  vertex 250 0.5 600
  endloop
 endfacet

 facet normal -1 0 0
  outer loop
  vertex 185 0.5 0
  vertex 185 -0.5 0
  vertex 185 -0.5 600
  endloop
 endfacet

 facet normal -1 0 0
  outer loop
  vertex 185 0.5 0
  vertex 185 -0.5 600
  vertex 185 0.5 600
  endloop
 endfacet

 facet normal 0 0 -1
  outer loop
  vertex 32.5 -0.5 250
  vertex 32.5 0.5 250
  vertex 185 0.5 250
  endloop
 endfacet

 facet normal 0 0 -1
  outer loop
  vertex 32.5 -0.5 250
  vertex 185 0.5 250
  vertex 185 -0.5 250
  endloop
 endfacet

 facet normal 0 0 1
  outer loop
  vertex 32.5 -0.5 350
  vertex 185 -0.5 350
  vertex 185 0.5 350
  endloop
 endfacet

 facet normal 0 0 1
  outer loop
  vertex 32.5 -0.5 350
  vertex 185 0.5 350
  vertex 32.5 0.5 350
  endloop
 endfacet

 facet normal 0 -1 0
  outer loop
  vertex 32.5 -0.5 250
  vertex 185 -0.5 250
  vertex 185 -0.5 350
  endloop
 endfacet

 facet normal 0 -1 0
  outer loop
  vertex 32.5 -0.5 250
  vertex 185 -0.5 350
  vertex 32.5 -0.5 350
  endloop
 endfacet

 facet normal 1 0 0
  outer loop
  vertex 185 -0.5 250
  vertex 185 0.5 250
  vertex 185 0.5 350
  endloop
 endfacet

 facet normal 1 0 0
  outer loop
  vertex 185 -0.5 250
  vertex 185 0.5 350
  vertex 185 -0.5 350
  endloop
 endfacet

 facet normal 0 1 0
  outer loop
  vertex 185 0.5 250
  vertex 32.5 0.5 250
  vertex 32.5 0.5 350
  endloop
 endfacet

 facet normal 0 1 0
  outer loop
  vertex 185 0.5 250
  vertex 32.5 0.5 350
  vertex 185 0.5 350
  endloop
 endfacet

 facet normal -1 0 0
  outer loop
  vertex 32.5 0.5 250
  vertex 32.5 -0.5 250
  vertex 32.5 -0.5 350
  endloop
 endfacet

 facet normal -1 0 0
  outer loop
  vertex 32.5 0.5 250
  vertex 32.5 -0.5 350
  vertex 32.5 0.5 350
  endloop
 endfacet

 facet normal 0 0 -1
  outer loop
  vertex -185 -0.5 0
  vertex -185 0.5 0
  vertex -32.5 0.5 0
  endloop
 endfacet

 facet normal 0 0 -1
  outer loop
  vertex -185 -0.5 0
  vertex -32.5 0.5 0
  vertex -32.5 -0.5 0
  endloop
 endfacet

 facet normal 0 0 1
  outer loop
  vertex -185 -0.5 100
  vertex -32.5 -0.5 100
  vertex -32.5 0.5 100
  endloop
 endfacet

 facet normal 0 0 1
  outer loop
  vertex -185 -0.5 100
  vertex -32.5 0.5 100
  vertex -185 0.5 100
  endloop
 endfacet

 facet normal 0 -1 0
  outer loop
  vertex -185 -0.5 0
  vertex -32.5 -0.5 0
  vertex -32.5 -0.5 100
  endloop
 endfacet

 facet normal 0 -1 0
  outer loop
  vertex -185 -0.5 0
  vertex -32.5 -0.5 100
  vertex -185 -0.5 100
  endloop
 endfacet

 facet normal 1 0 0
  outer loop
  vertex -32.5 -0.5 0
  vertex -32.5 0.5 0
  vertex -32.5 0.5 100
  endloop
 endfacet

 facet normal 1 0 0
  outer loop
  vertex -32.5 -0.5 0
  vertex -32.5 0.5 100
  vertex -32.5 -0.5 100
  endloop
 endfacet

 facet normal 0 1 0
  outer loop
  vertex -32.5 0.5 0
  vertex -185 0.5 0
  vertex -185 0.5 100
  endloop
 endfacet

 facet normal 0 1 0
  outer loop
  vertex -32.5 0.5 0
  vertex -185 0.5 100
  vertex -32.5 0.5 100
  endloop
 endfacet

 facet normal -1 0 0
  outer loop
  vertex -185 0.5 0
  vertex -185 -0.5 0
  vertex -185 -0.5 100
  endloop
 endfacet

 facet normal -1 0 0
  outer loop
  vertex -185 0.5 0
  vertex -185 -0.5 100
  vertex -185 0.5 100
  endloop
 endfacet

endsolidAssimpScene
