# 3ds Max Wavefront OBJ Exporter v0.97b - (c)2007 guruware
# File Created: 06.03.2017 17:05:03

#
# object Box002
#

v  -18.2000 -0.5000 50.0000
v  25.0000 -0.5000 50.0000
v  -18.2000 0.5000 50.0000
v  25.0000 0.5000 50.0000
v  -25.0000 -0.5000 105.0000
v  25.0000 -0.5000 125.0000
v  -25.0000 0.5000 105.0000
v  25.0000 0.5000 125.0000
v  -12.0000 -0.5000 0.0000
v  13.0000 -0.5000 0.0000
v  -12.0000 0.5000 0.0000
v  13.0000 0.5000 0.0000
v  -18.2000 -0.5000 50.0000
v  25.0000 -0.5000 50.0000
v  -18.2000 0.5000 50.0000
v  25.0000 0.5000 50.0000
v  -0.5000 -17.0000 132.0000
v  0.5000 -17.0000 132.0000
v  -0.5000 -0.5000 132.0000
v  0.5000 -0.5000 132.0000
v  -0.5000 -17.0000 150.0000
v  0.5000 -17.0000 150.0000
v  -0.5000 -0.5000 150.0000
v  0.5000 -0.5000 150.0000
v  -0.5000 -24.5000 50.0000
v  0.5000 -24.5000 50.0000
v  -0.5000 -0.5000 50.0000
v  0.5000 -0.5000 50.0000
v  -0.5000 -24.5000 132.0000
v  0.5000 -24.5000 132.0000
v  -0.5000 -0.5000 132.0000
v  0.5000 -0.5000 132.0000
v  -0.5000 -0.5000 0.0000
v  -0.5000 -13.0000 0.0000
v  0.5000 -0.5000 0.0000
v  0.5000 -13.0000 0.0000
v  -0.5000 -0.5000 50.0000
v  -0.5000 -24.5000 50.0000
v  0.5000 -0.5000 50.0000
v  0.5000 -24.5000 50.0000
v  -11.5000 -0.5000 132.0000
v  11.5000 -0.5000 132.0000
v  -11.5000 0.5000 132.0000
v  11.5000 0.5000 132.0000
v  -11.5000 -0.5000 150.0000
v  11.5000 -0.5000 150.0000
v  -11.5000 0.5000 150.0000
v  11.5000 0.5000 150.0000
v  -25.0000 -0.5000 105.0000
v  25.0000 -0.5000 125.0000
v  -25.0000 0.5000 105.0000
v  25.0000 0.5000 125.0000
v  -6.5000 -0.5000 132.0000
v  11.5000 -0.5000 132.0000
v  -6.5000 0.5000 132.0000
v  11.5000 0.5000 132.0000
# 56 vertices

vn 0.0000 0.0000 -1.0000
vn 0.0000 0.0000 -1.0000
vn 0.0000 0.0000 -1.0000
vn 0.0000 0.0000 -1.0000
vn -0.3714 0.0000 0.9285
vn -0.3714 0.0000 0.9285
vn -0.3714 0.0000 0.9285
vn -0.3714 0.0000 0.9285
vn 0.0000 -1.0000 0.0000
vn 0.0000 -1.0000 0.0000
vn 0.0000 -1.0000 0.0000
vn 0.0000 -1.0000 0.0000
vn 1.0000 0.0000 0.0000
vn 1.0000 0.0000 0.0000
vn 1.0000 0.0000 0.0000
vn 1.0000 0.0000 0.0000
vn 0.0000 1.0000 0.0000
vn 0.0000 1.0000 0.0000
vn 0.0000 1.0000 0.0000
vn 0.0000 1.0000 0.0000
vn -0.9924 0.0000 -0.1227
vn -0.9924 0.0000 -0.1227
vn -0.9924 0.0000 -0.1227
vn -0.9924 0.0000 -0.1227
vn 0.0000 0.0000 -1.0000
vn 0.0000 0.0000 -1.0000
vn 0.0000 0.0000 -1.0000
vn 0.0000 0.0000 -1.0000
vn 0.0000 0.0000 1.0000
vn 0.0000 0.0000 1.0000
vn 0.0000 0.0000 1.0000
vn 0.0000 0.0000 1.0000
vn 0.0000 -1.0000 0.0000
vn 0.0000 -1.0000 0.0000
vn 0.0000 -1.0000 0.0000
vn 0.0000 -1.0000 0.0000
vn 0.9724 0.0000 -0.2334
vn 0.9724 0.0000 -0.2334
vn 0.9724 0.0000 -0.2334
vn 0.9724 0.0000 -0.2334
vn 0.0000 1.0000 0.0000
vn 0.0000 1.0000 0.0000
vn 0.0000 1.0000 0.0000
vn 0.0000 1.0000 0.0000
vn -0.9924 0.0000 -0.1231
vn -0.9924 0.0000 -0.1231
vn -0.9924 0.0000 -0.1231
vn -0.9924 0.0000 -0.1231
vn 0.0000 0.0000 -1.0000
vn 0.0000 0.0000 -1.0000
vn 0.0000 0.0000 -1.0000
vn 0.0000 0.0000 -1.0000
vn 0.0000 0.0000 1.0000
vn 0.0000 0.0000 1.0000
vn 0.0000 0.0000 1.0000
vn 0.0000 0.0000 1.0000
vn 0.0000 -1.0000 0.0000
vn 0.0000 -1.0000 0.0000
vn 0.0000 -1.0000 0.0000
vn 0.0000 -1.0000 0.0000
vn 1.0000 0.0000 0.0000
vn 1.0000 0.0000 0.0000
vn 1.0000 0.0000 0.0000
vn 1.0000 0.0000 0.0000
vn 0.0000 1.0000 0.0000
vn 0.0000 1.0000 0.0000
vn 0.0000 1.0000 0.0000
vn 0.0000 1.0000 0.0000
vn -1.0000 0.0000 0.0000
vn -1.0000 0.0000 0.0000
vn -1.0000 0.0000 0.0000
vn -1.0000 0.0000 0.0000
vn 0.0000 0.0000 -1.0000
vn 0.0000 0.0000 -1.0000
vn 0.0000 0.0000 -1.0000
vn 0.0000 0.0000 -1.0000
vn 0.0000 0.0000 1.0000
vn 0.0000 0.0000 1.0000
vn 0.0000 0.0000 1.0000
vn 0.0000 0.0000 1.0000
vn 0.0000 -1.0000 0.0000
vn 0.0000 -1.0000 0.0000
vn 0.0000 -1.0000 0.0000
vn 0.0000 -1.0000 0.0000
vn 1.0000 0.0000 0.0000
vn 1.0000 0.0000 0.0000
vn 1.0000 0.0000 0.0000
vn 1.0000 0.0000 0.0000
vn 0.0000 1.0000 0.0000
vn 0.0000 1.0000 0.0000
vn 0.0000 1.0000 0.0000
vn 0.0000 1.0000 0.0000
vn -1.0000 0.0000 0.0000
vn -1.0000 0.0000 0.0000
vn -1.0000 0.0000 0.0000
vn -1.0000 0.0000 0.0000
vn 0.0000 0.0000 -1.0000
vn 0.0000 0.0000 -1.0000
vn 0.0000 0.0000 -1.0000
vn 0.0000 0.0000 -1.0000
vn 0.0000 0.0000 1.0000
vn 0.0000 0.0000 1.0000
vn 0.0000 0.0000 1.0000
vn 0.0000 0.0000 1.0000
vn -1.0000 0.0000 0.0000
vn -1.0000 0.0000 0.0000
vn -1.0000 0.0000 0.0000
vn -1.0000 0.0000 0.0000
vn 0.0000 -0.9746 -0.2241
vn 0.0000 -0.9746 -0.2241
vn 0.0000 -0.9746 -0.2241
vn 0.0000 -0.9746 -0.2241
vn 1.0000 -0.0000 -0.0000
vn 1.0000 -0.0000 0.0000
vn 1.0000 -0.0000 -0.0000
vn 1.0000 -0.0000 -0.0000
vn 0.0000 1.0000 0.0000
vn 0.0000 1.0000 0.0000
vn 0.0000 1.0000 0.0000
vn 0.0000 1.0000 0.0000
vn 0.0000 0.0000 -1.0000
vn 0.0000 0.0000 -1.0000
vn 0.0000 0.0000 -1.0000
vn 0.0000 0.0000 -1.0000
vn 0.0000 0.0000 1.0000
vn 0.0000 0.0000 1.0000
vn 0.0000 0.0000 1.0000
vn 0.0000 0.0000 1.0000
vn 0.0000 -1.0000 0.0000
vn 0.0000 -1.0000 0.0000
vn 0.0000 -1.0000 0.0000
vn 0.0000 -1.0000 0.0000
vn 1.0000 0.0000 0.0000
vn 1.0000 0.0000 0.0000
vn 1.0000 0.0000 0.0000
vn 1.0000 0.0000 0.0000
vn 0.0000 1.0000 0.0000
vn 0.0000 1.0000 0.0000
vn 0.0000 1.0000 0.0000
vn 0.0000 1.0000 0.0000
vn -1.0000 0.0000 0.0000
vn -1.0000 0.0000 0.0000
vn -1.0000 0.0000 0.0000
vn -1.0000 0.0000 0.0000
vn 0.3714 0.0000 -0.9285
vn 0.3714 0.0000 -0.9285
vn 0.3714 0.0000 -0.9285
vn 0.3714 0.0000 -0.9285
vn 0.0000 0.0000 1.0000
vn 0.0000 0.0000 1.0000
vn 0.0000 0.0000 1.0000
vn 0.0000 0.0000 1.0000
vn 0.0000 -1.0000 0.0000
vn 0.0000 -1.0000 0.0000
vn 0.0000 -1.0000 0.0000
vn 0.0000 -1.0000 0.0000
vn 0.4603 0.0000 0.8878
vn 0.4603 0.0000 0.8878
vn 0.4603 0.0000 0.8878
vn 0.4603 0.0000 0.8878
vn 0.0000 1.0000 0.0000
vn 0.0000 1.0000 0.0000
vn 0.0000 1.0000 0.0000
vn 0.0000 1.0000 0.0000
vn -0.8249 0.0000 0.5652
vn -0.8249 0.0000 0.5652
vn -0.8249 0.0000 0.5652
vn -0.8249 0.0000 0.5652
# 168 vertex normals

g Box002
s 2
f 1//1 3//2 4//3 2//4 
s 4
f 5//5 6//6 8//7 7//8 
s 8
f 1//9 2//10 6//11 5//12 
s 16
f 2//13 4//14 8//15 6//16 
s 32
f 4//17 3//18 7//19 8//20 
s 64
f 3//21 1//22 5//23 7//24 
s 2
f 9//25 11//26 12//27 10//28 
s 4
f 13//29 14//30 16//31 15//32 
s 8
f 9//33 10//34 14//35 13//36 
s 16
f 10//37 12//38 16//39 14//40 
s 32
f 12//41 11//42 15//43 16//44 
s 64
f 11//45 9//46 13//47 15//48 
s 2
f 17//49 19//50 20//51 18//52 
s 4
f 21//53 22//54 24//55 23//56 
s 8
f 17//57 18//58 22//59 21//60 
s 16
f 18//61 20//62 24//63 22//64 
s 32
f 20//65 19//66 23//67 24//68 
s 64
f 19//69 17//70 21//71 23//72 
s 2
f 25//73 27//74 28//75 26//76 
s 4
f 29//77 30//78 32//79 31//80 
s 8
f 25//81 26//82 30//83 29//84 
s 16
f 26//85 28//86 32//87 30//88 
s 32
f 28//89 27//90 31//91 32//92 
s 64
f 27//93 25//94 29//95 31//96 
s 2
f 33//97 35//98 36//99 34//100 
s 4
f 37//101 38//102 40//103 39//104 
s 8
f 33//105 34//106 38//107 37//108 
s 16
f 34//109 36//110 40//111 38//112 
s 32
f 36//113 35//114 39//115 40//116 
s 64
f 35//117 33//118 37//119 39//120 
s 2
f 41//121 43//122 44//123 42//124 
s 4
f 45//125 46//126 48//127 47//128 
s 8
f 41//129 42//130 46//131 45//132 
s 16
f 42//133 44//134 48//135 46//136 
s 32
f 44//137 43//138 47//139 48//140 
s 64
f 43//141 41//142 45//143 47//144 
s 2
f 49//145 51//146 52//147 50//148 
s 4
f 53//149 54//150 56//151 55//152 
s 8
f 49//153 50//154 54//155 53//156 
s 16
f 50//157 52//158 56//159 54//160 
s 32
f 52//161 51//162 55//163 56//164 
s 64
f 51//165 49//166 53//167 55//168 
# 42 polygons

