solid AssimpScene
 facet normal 0 0 -1
  outer loop
  vertex -12 -0.5 0
  vertex -12 0.5 0
  vertex 13 0.5 0
  endloop
 endfacet

 facet normal 0 0 -1
  outer loop
  vertex -12 -0.5 0
  vertex 13 0.5 0
  vertex 13 -0.5 0
  endloop
 endfacet

 facet normal 0 0 1
  outer loop
  vertex -18.200001 -0.5 50
  vertex 25 -0.5 50
  vertex 25 0.5 50
  endloop
 endfacet

 facet normal 0 0 1
  outer loop
  vertex -18.200001 -0.5 50
  vertex 25 0.5 50
  vertex -18.200001 0.5 50
  endloop
 endfacet

 facet normal 0 -1 0
  outer loop
  vertex -12 -0.5 0
  vertex 13 -0.5 0
  vertex 25 -0.5 50
  endloop
 endfacet

 facet normal 0 -1 0
  outer loop
  vertex -12 -0.5 0
  vertex 25 -0.5 50
  vertex -18.200001 -0.5 50
  endloop
 endfacet

 facet normal 0.97238189 0 -0.23339565
  outer loop
  vertex 13 -0.5 0
  vertex 13 0.5 0
  vertex 25 0.5 50
  endloop
 endfacet

 facet normal 0.97238189 0 -0.23339565
  outer loop
  vertex 13 -0.5 0
  vertex 25 0.5 50
  vertex 25 -0.5 50
  endloop
 endfacet

 facet normal 0 1 0
  outer loop
  vertex 13 0.5 0
  vertex -12 0.5 0
  vertex -18.200001 0.5 50
  endloop
 endfacet

 facet normal 0 1 0
  outer loop
  vertex 13 0.5 0
  vertex -18.200001 0.5 50
  vertex 25 0.5 50
  endloop
 endfacet

 facet normal -0.99239445 0 -0.12309931
  outer loop
  vertex -12 0.5 0
  vertex -12 -0.5 0
  vertex -18.200001 -0.5 50
  endloop
 endfacet

 facet normal -0.99239445 0 -0.12309931
  outer loop
  vertex -12 0.5 0
  vertex -18.200001 -0.5 50
  vertex -18.200001 0.5 50
  endloop
 endfacet

 facet normal 0 0 -1
  outer loop
  vertex -18.200001 -0.5 50
  vertex -18.200001 0.5 50
  vertex 25 0.5 50
  endloop
 endfacet

 facet normal 0 0 -1
  outer loop
  vertex -18.200001 -0.5 50
  vertex 25 0.5 50
  vertex 25 -0.5 50
  endloop
 endfacet

 facet normal -0.37139067 0 0.92847669
  outer loop
  vertex -25 -0.5 105
  vertex 25 -0.5 125
  vertex 25 0.5 125
  endloop
 endfacet

 facet normal -0.37139067 0 0.92847669
  outer loop
  vertex -25 -0.5 105
  vertex 25 0.5 125
  vertex -25 0.5 105
  endloop
 endfacet

 facet normal 0 -1 0
  outer loop
  vertex -18.200001 -0.5 50
  vertex 25 -0.5 50
  vertex 25 -0.5 125
  endloop
 endfacet

 facet normal 0 -1 0
  outer loop
  vertex -18.200001 -0.5 50
  vertex 25 -0.5 125
  vertex -25 -0.5 105
  endloop
 endfacet

 facet normal 1 0 0
  outer loop
  vertex 25 -0.5 50
  vertex 25 0.5 50
  vertex 25 0.5 125
  endloop
 endfacet

 facet normal 1 0 0
  outer loop
  vertex 25 -0.5 50
  vertex 25 0.5 125
  vertex 25 -0.5 125
  endloop
 endfacet

 facet normal 0 1 0
  outer loop
  vertex 25 0.5 50
  vertex -18.200001 0.5 50
  vertex -25 0.5 105
  endloop
 endfacet

 facet normal 0 1 0
  outer loop
  vertex 25 0.5 50
  vertex -25 0.5 105
  vertex 25 0.5 125
  endloop
 endfacet

 facet normal -0.99244314 0 -0.12270533
  outer loop
  vertex -18.200001 0.5 50
  vertex -18.200001 -0.5 50
  vertex -25 -0.5 105
  endloop
 endfacet

 facet normal -0.99244314 0 -0.12270533
  outer loop
  vertex -18.200001 0.5 50
  vertex -25 -0.5 105
  vertex -25 0.5 105
  endloop
 endfacet

 facet normal 0.37139067 0 -0.92847669
  outer loop
  vertex -25 -0.5 105
  vertex -25 0.5 105
  vertex 25 0.5 125
  endloop
 endfacet

 facet normal 0.37139067 0 -0.92847669
  outer loop
  vertex -25 -0.5 105
  vertex 25 0.5 125
  vertex 25 -0.5 125
  endloop
 endfacet

 facet normal 0 0 1
  outer loop
  vertex -6.5 -0.5 132
  vertex 11.5 -0.5 132
  vertex 11.5 0.5 132
  endloop
 endfacet

 facet normal 0 0 1
  outer loop
  vertex -6.5 -0.5 132
  vertex 11.5 0.5 132
  vertex -6.5 0.5 132
  endloop
 endfacet

 facet normal 0 -1 0
  outer loop
  vertex -25 -0.5 105
  vertex 25 -0.5 125
  vertex 11.5 -0.5 132
  endloop
 endfacet

 facet normal 0 -1 0
  outer loop
  vertex -25 -0.5 105
  vertex 11.5 -0.5 132
  vertex -6.5 -0.5 132
  endloop
 endfacet

 facet normal 0.4602851 0 0.88777119
  outer loop
  vertex 25 -0.5 125
  vertex 25 0.5 125
  vertex 11.5 0.5 132
  endloop
 endfacet

 facet normal 0.4602851 0 0.88777119
  outer loop
  vertex 25 -0.5 125
  vertex 11.5 0.5 132
  vertex 11.5 -0.5 132
  endloop
 endfacet

 facet normal 0 1 0
  outer loop
  vertex 25 0.5 125
  vertex -25 0.5 105
  vertex -6.5 0.5 132
  endloop
 endfacet

 facet normal 0 1 0
  outer loop
  vertex 25 0.5 125
  vertex -6.5 0.5 132
  vertex 11.5 0.5 132
  endloop
 endfacet

 facet normal -0.82493669 0 0.56522512
  outer loop
  vertex -25 0.5 105
  vertex -25 -0.5 105
  vertex -6.5 -0.5 132
  endloop
 endfacet

 facet normal -0.82493669 0 0.56522512
  outer loop
  vertex -25 0.5 105
  vertex -6.5 -0.5 132
  vertex -6.5 0.5 132
  endloop
 endfacet

 facet normal 0 0 -1
  outer loop
  vertex -11.5 -0.5 132
  vertex -11.5 0.5 132
  vertex 11.5 0.5 132
  endloop
 endfacet

 facet normal 0 0 -1
  outer loop
  vertex -11.5 -0.5 132
  vertex 11.5 0.5 132
  vertex 11.5 -0.5 132
  endloop
 endfacet

 facet normal 0 0 1
  outer loop
  vertex -11.5 -0.5 150
  vertex 11.5 -0.5 150
  vertex 11.5 0.5 150
  endloop
 endfacet

 facet normal 0 0 1
  outer loop
  vertex -11.5 -0.5 150
  vertex 11.5 0.5 150
  vertex -11.5 0.5 150
  endloop
 endfacet

 facet normal 0 -1 0
  outer loop
  vertex -11.5 -0.5 132
  vertex 11.5 -0.5 132
  vertex 11.5 -0.5 150
  endloop
 endfacet

 facet normal 0 -1 0
  outer loop
  vertex -11.5 -0.5 132
  vertex 11.5 -0.5 150
  vertex -11.5 -0.5 150
  endloop
 endfacet

 facet normal 1 0 0
  outer loop
  vertex 11.5 -0.5 132
  vertex 11.5 0.5 132
  vertex 11.5 0.5 150
  endloop
 endfacet

 facet normal 1 0 0
  outer loop
  vertex 11.5 -0.5 132
  vertex 11.5 0.5 150
  vertex 11.5 -0.5 150
  endloop
 endfacet

 facet normal 0 1 0
  outer loop
  vertex 11.5 0.5 132
  vertex -11.5 0.5 132
  vertex -11.5 0.5 150
  endloop
 endfacet

 facet normal 0 1 0
  outer loop
  vertex 11.5 0.5 132
  vertex -11.5 0.5 150
  vertex 11.5 0.5 150
  endloop
 endfacet

 facet normal -1 0 0
  outer loop
  vertex -11.5 0.5 132
  vertex -11.5 -0.5 132
  vertex -11.5 -0.5 150
  endloop
 endfacet

 facet normal -1 0 0
  outer loop
  vertex -11.5 0.5 132
  vertex -11.5 -0.5 150
  vertex -11.5 0.5 150
  endloop
 endfacet

endsolidAssimpScene
