solid AssimpScene
 facet normal 0 0 -1
  outer loop
  vertex -140 -0.5 0
  vertex -140 0.5 0
  vertex 140 0.5 0
  endloop
 endfacet

 facet normal 0 0 -1
  outer loop
  vertex -140 -0.5 0
  vertex 140 0.5 0
  vertex 140 -0.5 0
  endloop
 endfacet

 facet normal 0 0 1
  outer loop
  vertex -140 -0.5 100
  vertex 140 -0.5 100
  vertex 140 0.5 100
  endloop
 endfacet

 facet normal 0 0 1
  outer loop
  vertex -140 -0.5 100
  vertex 140 0.5 100
  vertex -140 0.5 100
  endloop
 endfacet

 facet normal 0 -1 0
  outer loop
  vertex -140 -0.5 0
  vertex 140 -0.5 0
  vertex 140 -0.5 100
  endloop
 endfacet

 facet normal 0 -1 0
  outer loop
  vertex -140 -0.5 0
  vertex 140 -0.5 100
  vertex -140 -0.5 100
  endloop
 endfacet

 facet normal 1 0 0
  outer loop
  vertex 140 -0.5 0
  vertex 140 0.5 0
  vertex 140 0.5 100
  endloop
 endfacet

 facet normal 1 0 0
  outer loop
  vertex 140 -0.5 0
  vertex 140 0.5 100
  vertex 140 -0.5 100
  endloop
 endfacet

 facet normal 0 1 0
  outer loop
  vertex 140 0.5 0
  vertex -140 0.5 0
  vertex -140 0.5 100
  endloop
 endfacet

 facet normal 0 1 0
  outer loop
  vertex 140 0.5 0
  vertex -140 0.5 100
  vertex 140 0.5 100
  endloop
 endfacet

 facet normal -1 0 0
  outer loop
  vertex -140 0.5 0
  vertex -140 -0.5 0
  vertex -140 -0.5 100
  endloop
 endfacet

 facet normal -1 0 0
  outer loop
  vertex -140 0.5 0
  vertex -140 -0.5 100
  vertex -140 0.5 100
  endloop
 endfacet

endsolidAssimpScene
