solid AssimpScene
 facet normal 0 0 -1
  outer loop
  vertex -12.5 -0.5 0
  vertex -12.5 0.5 0
  vertex 12.5 0.5 0
  endloop
 endfacet

 facet normal 0 0 -1
  outer loop
  vertex -12.5 -0.5 0
  vertex 12.5 0.5 0
  vertex 12.5 -0.5 0
  endloop
 endfacet

 facet normal 0 0 1
  outer loop
  vertex -25 -0.5 50
  vertex 25 -0.5 50
  vertex 25 0.5 50
  endloop
 endfacet

 facet normal 0 0 1
  outer loop
  vertex -25 -0.5 50
  vertex 25 0.5 50
  vertex -25 0.5 50
  endloop
 endfacet

 facet normal 0 -1 0
  outer loop
  vertex -12.5 -0.5 0
  vertex 12.5 -0.5 0
  vertex 25 -0.5 50
  endloop
 endfacet

 facet normal 0 -1 0
  outer loop
  vertex -12.5 -0.5 0
  vertex 25 -0.5 50
  vertex -25 -0.5 50
  endloop
 endfacet

 facet normal 0.97014844 0 -0.24251211
  outer loop
  vertex 12.5 -0.5 0
  vertex 12.5 0.5 0
  vertex 25 0.5 50
  endloop
 endfacet

 facet normal 0.97014844 0 -0.24251211
  outer loop
  vertex 12.5 -0.5 0
  vertex 25 0.5 50
  vertex 25 -0.5 50
  endloop
 endfacet

 facet normal 0 1 0
  outer loop
  vertex 12.5 0.5 0
  vertex -12.5 0.5 0
  vertex -25 0.5 50
  endloop
 endfacet

 facet normal 0 1 0
  outer loop
  vertex 12.5 0.5 0
  vertex -25 0.5 50
  vertex 25 0.5 50
  endloop
 endfacet

 facet normal -0.97014844 0 -0.24251211
  outer loop
  vertex -12.5 0.5 0
  vertex -12.5 -0.5 0
  vertex -25 -0.5 50
  endloop
 endfacet

 facet normal -0.97014844 0 -0.24251211
  outer loop
  vertex -12.5 0.5 0
  vertex -25 -0.5 50
  vertex -25 0.5 50
  endloop
 endfacet

 facet normal 0 0 -1
  outer loop
  vertex -25 -0.5 50
  vertex -25 0.5 50
  vertex 25 0.5 50
  endloop
 endfacet

 facet normal 0 0 -1
  outer loop
  vertex -25 -0.5 50
  vertex 25 0.5 50
  vertex 25 -0.5 50
  endloop
 endfacet

 facet normal 0 0 1
  outer loop
  vertex -25 -0.5 132
  vertex 25 -0.5 132
  vertex 25 0.5 132
  endloop
 endfacet

 facet normal 0 0 1
  outer loop
  vertex -25 -0.5 132
  vertex 25 0.5 132
  vertex -25 0.5 132
  endloop
 endfacet

 facet normal 0 -1 0
  outer loop
  vertex -25 -0.5 50
  vertex 25 -0.5 50
  vertex 25 -0.5 132
  endloop
 endfacet

 facet normal 0 -1 0
  outer loop
  vertex -25 -0.5 50
  vertex 25 -0.5 132
  vertex -25 -0.5 132
  endloop
 endfacet

 facet normal 1 0 0
  outer loop
  vertex 25 -0.5 50
  vertex 25 0.5 50
  vertex 25 0.5 132
  endloop
 endfacet

 facet normal 1 0 0
  outer loop
  vertex 25 -0.5 50
  vertex 25 0.5 132
  vertex 25 -0.5 132
  endloop
 endfacet

 facet normal 0 1 0
  outer loop
  vertex 25 0.5 50
  vertex -25 0.5 50
  vertex -25 0.5 132
  endloop
 endfacet

 facet normal 0 1 0
  outer loop
  vertex 25 0.5 50
  vertex -25 0.5 132
  vertex 25 0.5 132
  endloop
 endfacet

 facet normal -1 0 0
  outer loop
  vertex -25 0.5 50
  vertex -25 -0.5 50
  vertex -25 -0.5 132
  endloop
 endfacet

 facet normal -1 0 0
  outer loop
  vertex -25 0.5 50
  vertex -25 -0.5 132
  vertex -25 0.5 132
  endloop
 endfacet

 facet normal 0 0 -1
  outer loop
  vertex -11.5 -0.5 132
  vertex -11.5 0.5 132
  vertex 11.5 0.5 132
  endloop
 endfacet

 facet normal 0 0 -1
  outer loop
  vertex -11.5 -0.5 132
  vertex 11.5 0.5 132
  vertex 11.5 -0.5 132
  endloop
 endfacet

 facet normal 0 0 1
  outer loop
  vertex -11.5 -0.5 150
  vertex 11.5 -0.5 150
  vertex 11.5 0.5 150
  endloop
 endfacet

 facet normal 0 0 1
  outer loop
  vertex -11.5 -0.5 150
  vertex 11.5 0.5 150
  vertex -11.5 0.5 150
  endloop
 endfacet

 facet normal 0 -1 0
  outer loop
  vertex -11.5 -0.5 132
  vertex 11.5 -0.5 132
  vertex 11.5 -0.5 150
  endloop
 endfacet

 facet normal 0 -1 0
  outer loop
  vertex -11.5 -0.5 132
  vertex 11.5 -0.5 150
  vertex -11.5 -0.5 150
  endloop
 endfacet

 facet normal 1 0 0
  outer loop
  vertex 11.5 -0.5 132
  vertex 11.5 0.5 132
  vertex 11.5 0.5 150
  endloop
 endfacet

 facet normal 1 0 0
  outer loop
  vertex 11.5 -0.5 132
  vertex 11.5 0.5 150
  vertex 11.5 -0.5 150
  endloop
 endfacet

 facet normal 0 1 0
  outer loop
  vertex 11.5 0.5 132
  vertex -11.5 0.5 132
  vertex -11.5 0.5 150
  endloop
 endfacet

 facet normal 0 1 0
  outer loop
  vertex 11.5 0.5 132
  vertex -11.5 0.5 150
  vertex 11.5 0.5 150
  endloop
 endfacet

 facet normal -1 0 0
  outer loop
  vertex -11.5 0.5 132
  vertex -11.5 -0.5 132
  vertex -11.5 -0.5 150
  endloop
 endfacet

 facet normal -1 0 0
  outer loop
  vertex -11.5 0.5 132
  vertex -11.5 -0.5 150
  vertex -11.5 0.5 150
  endloop
 endfacet

endsolidAssimpScene
