solid AssimpScene
 facet normal 0 0 -1
  outer loop
  vertex -200 -0.5 0
  vertex -200 0.5 0
  vertex 200 0.5 0
  endloop
 endfacet

 facet normal 0 0 -1
  outer loop
  vertex -200 -0.5 0
  vertex 200 0.5 0
  vertex 200 -0.5 0
  endloop
 endfacet

 facet normal 0 0 1
  outer loop
  vertex -110 -0.5 240
  vertex 200 -0.5 240
  vertex 200 0.5 240
  endloop
 endfacet

 facet normal 0 0 1
  outer loop
  vertex -110 -0.5 240
  vertex 200 0.5 240
  vertex -110 0.5 240
  endloop
 endfacet

 facet normal 0 -1 0
  outer loop
  vertex -200 -0.5 0
  vertex 200 -0.5 0
  vertex 200 -0.5 240
  endloop
 endfacet

 facet normal 0 -1 0
  outer loop
  vertex -200 -0.5 0
  vertex 200 -0.5 240
  vertex -110 -0.5 240
  endloop
 endfacet

 facet normal 1 0 0
  outer loop
  vertex 200 -0.5 0
  vertex 200 0.5 0
  vertex 200 0.5 240
  endloop
 endfacet

 facet normal 1 0 0
  outer loop
  vertex 200 -0.5 0
  vertex 200 0.5 240
  vertex 200 -0.5 240
  endloop
 endfacet

 facet normal 0 1 0
  outer loop
  vertex 200 0.5 0
  vertex -200 0.5 0
  vertex -110 0.5 240
  endloop
 endfacet

 facet normal 0 1 0
  outer loop
  vertex 200 0.5 0
  vertex -110 0.5 240
  vertex 200 0.5 240
  endloop
 endfacet

 facet normal -0.9363333 0 0.35111251
  outer loop
  vertex -200 0.5 0
  vertex -200 -0.5 0
  vertex -110 -0.5 240
  endloop
 endfacet

 facet normal -0.9363333 0 0.35111251
  outer loop
  vertex -200 0.5 0
  vertex -110 -0.5 240
  vertex -110 0.5 240
  endloop
 endfacet

 facet normal 0.44721359 0 -0.89442718
  outer loop
  vertex 200 -0.5 0
  vertex 200 0.5 0
  vertex 300 0.5 50
  endloop
 endfacet

 facet normal 0.44721359 0 -0.89442718
  outer loop
  vertex 200 -0.5 0
  vertex 300 0.5 50
  vertex 300 -0.5 50
  endloop
 endfacet

 facet normal 0.79262024 0 0.60971558
  outer loop
  vertex 200 -0.5 240
  vertex 300 -0.5 110
  vertex 300 0.5 110
  endloop
 endfacet

 facet normal 0.79262024 0 0.60971558
  outer loop
  vertex 200 -0.5 240
  vertex 300 0.5 110
  vertex 200 0.5 240
  endloop
 endfacet

 facet normal 0 -1 0
  outer loop
  vertex 200 -0.5 0
  vertex 300 -0.5 50
  vertex 300 -0.5 110
  endloop
 endfacet

 facet normal 0 -1 0
  outer loop
  vertex 200 -0.5 0
  vertex 300 -0.5 110
  vertex 200 -0.5 240
  endloop
 endfacet

 facet normal 1 0 0
  outer loop
  vertex 300 -0.5 50
  vertex 300 0.5 50
  vertex 300 0.5 110
  endloop
 endfacet

 facet normal 1 0 0
  outer loop
  vertex 300 -0.5 50
  vertex 300 0.5 110
  vertex 300 -0.5 110
  endloop
 endfacet

 facet normal 0 1 0
  outer loop
  vertex 300 0.5 50
  vertex 200 0.5 0
  vertex 200 0.5 240
  endloop
 endfacet

 facet normal 0 1 0
  outer loop
  vertex 300 0.5 50
  vertex 200 0.5 240
  vertex 300 0.5 110
  endloop
 endfacet

 facet normal -1 0 0
  outer loop
  vertex 200 0.5 0
  vertex 200 -0.5 0
  vertex 200 -0.5 240
  endloop
 endfacet

 facet normal -1 0 0
  outer loop
  vertex 200 0.5 0
  vertex 200 -0.5 240
  vertex 200 0.5 240
  endloop
 endfacet

 facet normal 0 0 -1
  outer loop
  vertex -110 -0.5 240
  vertex -110 0.5 240
  vertex 40 0.5 240
  endloop
 endfacet

 facet normal 0 0 -1
  outer loop
  vertex -110 -0.5 240
  vertex 40 0.5 240
  vertex 40 -0.5 240
  endloop
 endfacet

 facet normal 0 0 1
  outer loop
  vertex -110 -0.5 320
  vertex 40 -0.5 320
  vertex 40 0.5 320
  endloop
 endfacet

 facet normal 0 0 1
  outer loop
  vertex -110 -0.5 320
  vertex 40 0.5 320
  vertex -110 0.5 320
  endloop
 endfacet

 facet normal 0 -1 0
  outer loop
  vertex -110 -0.5 240
  vertex 40 -0.5 240
  vertex 40 -0.5 320
  endloop
 endfacet

 facet normal 0 -1 0
  outer loop
  vertex -110 -0.5 240
  vertex 40 -0.5 320
  vertex -110 -0.5 320
  endloop
 endfacet

 facet normal 1 0 0
  outer loop
  vertex 40 -0.5 240
  vertex 40 0.5 240
  vertex 40 0.5 320
  endloop
 endfacet

 facet normal 1 0 0
  outer loop
  vertex 40 -0.5 240
  vertex 40 0.5 320
  vertex 40 -0.5 320
  endloop
 endfacet

 facet normal 0 1 0
  outer loop
  vertex 40 0.5 240
  vertex -110 0.5 240
  vertex -110 0.5 320
  endloop
 endfacet

 facet normal 0 1 0
  outer loop
  vertex 40 0.5 240
  vertex -110 0.5 320
  vertex 40 0.5 320
  endloop
 endfacet

 facet normal -1 0 0
  outer loop
  vertex -110 0.5 240
  vertex -110 -0.5 240
  vertex -110 -0.5 320
  endloop
 endfacet

 facet normal -1 0 0
  outer loop
  vertex -110 0.5 240
  vertex -110 -0.5 320
  vertex -110 0.5 320
  endloop
 endfacet

 facet normal -0.60000002 0 -0.80000007
  outer loop
  vertex -400 -0.5 150
  vertex -400 0.5 150
  vertex -200 0.5 0
  endloop
 endfacet

 facet normal -0.60000002 0 -0.80000007
  outer loop
  vertex -400 -0.5 150
  vertex -200 0.5 0
  vertex -200 -0.5 0
  endloop
 endfacet

 facet normal -0.11460134 0 0.99341154
  outer loop
  vertex -370 -0.5 210
  vertex -110 -0.5 240
  vertex -110 0.5 240
  endloop
 endfacet

 facet normal -0.11460134 0 0.99341154
  outer loop
  vertex -370 -0.5 210
  vertex -110 0.5 240
  vertex -370 0.5 210
  endloop
 endfacet

 facet normal 0 -1 0
  outer loop
  vertex -400 -0.5 150
  vertex -200 -0.5 0
  vertex -110 -0.5 240
  endloop
 endfacet

 facet normal 0 -1 0
  outer loop
  vertex -400 -0.5 150
  vertex -110 -0.5 240
  vertex -370 -0.5 210
  endloop
 endfacet

 facet normal 0.9363333 0 -0.35111251
  outer loop
  vertex -200 -0.5 0
  vertex -200 0.5 0
  vertex -110 0.5 240
  endloop
 endfacet

 facet normal 0.9363333 0 -0.35111251
  outer loop
  vertex -200 -0.5 0
  vertex -110 0.5 240
  vertex -110 -0.5 240
  endloop
 endfacet

 facet normal 0 1 0
  outer loop
  vertex -200 0.5 0
  vertex -400 0.5 150
  vertex -370 0.5 210
  endloop
 endfacet

 facet normal 0 1 0
  outer loop
  vertex -200 0.5 0
  vertex -370 0.5 210
  vertex -110 0.5 240
  endloop
 endfacet

 facet normal -0.89442718 0 0.44721359
  outer loop
  vertex -400 0.5 150
  vertex -400 -0.5 150
  vertex -370 -0.5 210
  endloop
 endfacet

 facet normal -0.89442718 0 0.44721359
  outer loop
  vertex -400 0.5 150
  vertex -370 -0.5 210
  vertex -370 0.5 210
  endloop
 endfacet

 facet normal -0.049897723 0 -0.99875438
  outer loop
  vertex -800 -0.5 170
  vertex -800 0.5 170
  vertex -400 0.5 150
  endloop
 endfacet

 facet normal -0.049897723 0 -0.99875438
  outer loop
  vertex -800 -0.5 170
  vertex -400 0.5 150
  vertex -400 -0.5 150
  endloop
 endfacet

 facet normal 0 0 1
  outer loop
  vertex -740 -0.5 210
  vertex -370 -0.5 210
  vertex -370 0.5 210
  endloop
 endfacet

 facet normal 0 0 1
  outer loop
  vertex -740 -0.5 210
  vertex -370 0.5 210
  vertex -740 0.5 210
  endloop
 endfacet

 facet normal 0 -1 0
  outer loop
  vertex -800 -0.5 170
  vertex -400 -0.5 150
  vertex -370 -0.5 210
  endloop
 endfacet

 facet normal 0 -1 0
  outer loop
  vertex -800 -0.5 170
  vertex -370 -0.5 210
  vertex -740 -0.5 210
  endloop
 endfacet

 facet normal 0.89442718 0 -0.44721359
  outer loop
  vertex -400 -0.5 150
  vertex -400 0.5 150
  vertex -370 0.5 210
  endloop
 endfacet

 facet normal 0.89442718 0 -0.44721359
  outer loop
  vertex -400 -0.5 150
  vertex -370 0.5 210
  vertex -370 -0.5 210
  endloop
 endfacet

 facet normal 0 1 0
  outer loop
  vertex -400 0.5 150
  vertex -800 0.5 170
  vertex -740 0.5 210
  endloop
 endfacet

 facet normal 0 1 0
  outer loop
  vertex -400 0.5 150
  vertex -740 0.5 210
  vertex -370 0.5 210
  endloop
 endfacet

 facet normal -0.55467713 0 0.83206564
  outer loop
  vertex -800 0.5 170
  vertex -800 -0.5 170
  vertex -740 -0.5 210
  endloop
 endfacet

 facet normal -0.55467713 0 0.83206564
  outer loop
  vertex -800 0.5 170
  vertex -740 -0.5 210
  vertex -740 0.5 210
  endloop
 endfacet

 facet normal 0.55467713 0 -0.83206564
  outer loop
  vertex -800 -0.5 170
  vertex -800 0.5 170
  vertex -740 0.5 210
  endloop
 endfacet

 facet normal 0.55467713 0 -0.83206564
  outer loop
  vertex -800 -0.5 170
  vertex -740 0.5 210
  vertex -740 -0.5 210
  endloop
 endfacet

 facet normal 0 0 1
  outer loop
  vertex -900 -0.5 320
  vertex -845 -0.5 320
  vertex -845 0.5 320
  endloop
 endfacet

 facet normal 0 0 1
  outer loop
  vertex -900 -0.5 320
  vertex -845 0.5 320
  vertex -900 0.5 320
  endloop
 endfacet

 facet normal 0 -1 0
  outer loop
  vertex -845 -0.5 320
  vertex -900 -0.5 320
  vertex -800 -0.5 170
  endloop
 endfacet

 facet normal 0 -1 0
  outer loop
  vertex -845 -0.5 320
  vertex -800 -0.5 170
  vertex -740 -0.5 210
  endloop
 endfacet

 facet normal 0.72336459 0 0.69046628
  outer loop
  vertex -740 -0.5 210
  vertex -740 0.5 210
  vertex -845 0.5 320
  endloop
 endfacet

 facet normal 0.72336459 0 0.69046628
  outer loop
  vertex -740 -0.5 210
  vertex -845 0.5 320
  vertex -845 -0.5 320
  endloop
 endfacet

 facet normal 0 1 0
  outer loop
  vertex -900 0.5 320
  vertex -845 0.5 320
  vertex -740 0.5 210
  endloop
 endfacet

 facet normal 0 1 0
  outer loop
  vertex -900 0.5 320
  vertex -740 0.5 210
  vertex -800 0.5 170
  endloop
 endfacet

 facet normal -0.83206564 0 -0.55467713
  outer loop
  vertex -800 0.5 170
  vertex -800 -0.5 170
  vertex -900 -0.5 320
  endloop
 endfacet

 facet normal -0.83206564 0 -0.55467713
  outer loop
  vertex -800 0.5 170
  vertex -900 -0.5 320
  vertex -900 0.5 320
  endloop
 endfacet

endsolidAssimpScene
