solid AssimpScene
 facet normal 0 0 -1
  outer loop
  vertex -90 -0.5 0
  vertex -90 0.5 0
  vertex 90 0.5 0
  endloop
 endfacet

 facet normal 0 0 -1
  outer loop
  vertex -90 -0.5 0
  vertex 90 0.5 0
  vertex 90 -0.5 0
  endloop
 endfacet

 facet normal 0 0 1
  outer loop
  vertex -90 -0.5 50
  vertex 90 -0.5 50
  vertex 90 0.5 50
  endloop
 endfacet

 facet normal 0 0 1
  outer loop
  vertex -90 -0.5 50
  vertex 90 0.5 50
  vertex -90 0.5 50
  endloop
 endfacet

 facet normal 0 -1 0
  outer loop
  vertex -90 -0.5 0
  vertex 90 -0.5 0
  vertex 90 -0.5 50
  endloop
 endfacet

 facet normal 0 -1 0
  outer loop
  vertex -90 -0.5 0
  vertex 90 -0.5 50
  vertex -90 -0.5 50
  endloop
 endfacet

 facet normal 1 0 0
  outer loop
  vertex 90 -0.5 0
  vertex 90 0.5 0
  vertex 90 0.5 50
  endloop
 endfacet

 facet normal 1 0 0
  outer loop
  vertex 90 -0.5 0
  vertex 90 0.5 50
  vertex 90 -0.5 50
  endloop
 endfacet

 facet normal 0 1 0
  outer loop
  vertex 90 0.5 0
  vertex -90 0.5 0
  vertex -90 0.5 50
  endloop
 endfacet

 facet normal 0 1 0
  outer loop
  vertex 90 0.5 0
  vertex -90 0.5 50
  vertex 90 0.5 50
  endloop
 endfacet

 facet normal -1 0 0
  outer loop
  vertex -90 0.5 0
  vertex -90 -0.5 0
  vertex -90 -0.5 50
  endloop
 endfacet

 facet normal -1 0 0
  outer loop
  vertex -90 0.5 0
  vertex -90 -0.5 50
  vertex -90 0.5 50
  endloop
 endfacet

 facet normal 0 0 -1
  outer loop
  vertex -40 -0.5 50
  vertex -40 0.5 50
  vertex 40 0.5 50
  endloop
 endfacet

 facet normal 0 0 -1
  outer loop
  vertex -40 -0.5 50
  vertex 40 0.5 50
  vertex 40 -0.5 50
  endloop
 endfacet

 facet normal 0 0 1
  outer loop
  vertex -40 -0.5 80
  vertex 40 -0.5 80
  vertex 40 0.5 80
  endloop
 endfacet

 facet normal 0 0 1
  outer loop
  vertex -40 -0.5 80
  vertex 40 0.5 80
  vertex -40 0.5 80
  endloop
 endfacet

 facet normal 0 -1 0
  outer loop
  vertex -40 -0.5 50
  vertex 40 -0.5 50
  vertex 40 -0.5 80
  endloop
 endfacet

 facet normal 0 -1 0
  outer loop
  vertex -40 -0.5 50
  vertex 40 -0.5 80
  vertex -40 -0.5 80
  endloop
 endfacet

 facet normal 1 0 0
  outer loop
  vertex 40 -0.5 50
  vertex 40 0.5 50
  vertex 40 0.5 80
  endloop
 endfacet

 facet normal 1 0 0
  outer loop
  vertex 40 -0.5 50
  vertex 40 0.5 80
  vertex 40 -0.5 80
  endloop
 endfacet

 facet normal 0 1 0
  outer loop
  vertex 40 0.5 50
  vertex -40 0.5 50
  vertex -40 0.5 80
  endloop
 endfacet

 facet normal 0 1 0
  outer loop
  vertex 40 0.5 50
  vertex -40 0.5 80
  vertex 40 0.5 80
  endloop
 endfacet

 facet normal -1 0 0
  outer loop
  vertex -40 0.5 50
  vertex -40 -0.5 50
  vertex -40 -0.5 80
  endloop
 endfacet

 facet normal -1 0 0
  outer loop
  vertex -40 0.5 50
  vertex -40 -0.5 80
  vertex -40 0.5 80
  endloop
 endfacet

endsolidAssimpScene
