solid AssimpScene
 facet normal 0 0 -1
  outer loop
  vertex -11.5 -0.5 -0.25009999
  vertex -11.5 0.5 -0.25009999
  vertex 11.5 0.5 -0.25009999
  endloop
 endfacet

 facet normal 0 0 -1
  outer loop
  vertex -11.5 -0.5 -0.25009999
  vertex 11.5 0.5 -0.25009999
  vertex 11.5 -0.5 -0.25009999
  endloop
 endfacet

 facet normal 0 0 1
  outer loop
  vertex -11.5 -0.5 29.749901
  vertex 11.5 -0.5 29.749901
  vertex 11.5 0.5 29.749901
  endloop
 endfacet

 facet normal 0 0 1
  outer loop
  vertex -11.5 -0.5 29.749901
  vertex 11.5 0.5 29.749901
  vertex -11.5 0.5 29.749901
  endloop
 endfacet

 facet normal 0 -1 0
  outer loop
  vertex -11.5 -0.5 -0.25009999
  vertex 11.5 -0.5 -0.25009999
  vertex 11.5 -0.5 29.749901
  endloop
 endfacet

 facet normal 0 -1 0
  outer loop
  vertex -11.5 -0.5 -0.25009999
  vertex 11.5 -0.5 29.749901
  vertex -11.5 -0.5 29.749901
  endloop
 endfacet

 facet normal 1 0 0
  outer loop
  vertex 11.5 -0.5 -0.25009999
  vertex 11.5 0.5 -0.25009999
  vertex 11.5 0.5 29.749901
  endloop
 endfacet

 facet normal 1 0 0
  outer loop
  vertex 11.5 -0.5 -0.25009999
  vertex 11.5 0.5 29.749901
  vertex 11.5 -0.5 29.749901
  endloop
 endfacet

 facet normal 0 1 0
  outer loop
  vertex 11.5 0.5 -0.25009999
  vertex -11.5 0.5 -0.25009999
  vertex -11.5 0.5 29.749901
  endloop
 endfacet

 facet normal 0 1 0
  outer loop
  vertex 11.5 0.5 -0.25009999
  vertex -11.5 0.5 29.749901
  vertex 11.5 0.5 29.749901
  endloop
 endfacet

 facet normal -1 0 0
  outer loop
  vertex -11.5 0.5 -0.25009999
  vertex -11.5 -0.5 -0.25009999
  vertex -11.5 -0.5 29.749901
  endloop
 endfacet

 facet normal -1 0 0
  outer loop
  vertex -11.5 0.5 -0.25009999
  vertex -11.5 -0.5 29.749901
  vertex -11.5 0.5 29.749901
  endloop
 endfacet

 facet normal 0 0.00059999991 -0.99999988
  outer loop
  vertex -25 -0.5 -0.25009999
  vertex -25 0.5 -0.24950001
  vertex -11.5 0.5 -0.24950001
  endloop
 endfacet

 facet normal 0 0.00059999991 -0.99999988
  outer loop
  vertex -25 -0.5 -0.25009999
  vertex -11.5 0.5 -0.24950001
  vertex -11.5 -0.5 -0.25009999
  endloop
 endfacet

 facet normal 0 -0.24260624 0.9701249
  outer loop
  vertex -25 -0.5 11.7499
  vertex -11.5 -0.5 11.7499
  vertex -11.5 0.5 12
  endloop
 endfacet

 facet normal 0 -0.24260624 0.9701249
  outer loop
  vertex -25 -0.5 11.7499
  vertex -11.5 0.5 12
  vertex -25 0.5 12
  endloop
 endfacet

 facet normal 0 -1 0
  outer loop
  vertex -25 -0.5 -0.25009999
  vertex -11.5 -0.5 -0.25009999
  vertex -11.5 -0.5 11.7499
  endloop
 endfacet

 facet normal 0 -1 0
  outer loop
  vertex -25 -0.5 -0.25009999
  vertex -11.5 -0.5 11.7499
  vertex -25 -0.5 11.7499
  endloop
 endfacet

 facet normal 1 0 0
  outer loop
  vertex -11.5 -0.5 -0.25009999
  vertex -11.5 0.5 -0.24950001
  vertex -11.5 0.5 12
  endloop
 endfacet

 facet normal 1 0 0
  outer loop
  vertex -11.5 -0.5 -0.25009999
  vertex -11.5 0.5 12
  vertex -11.5 -0.5 11.7499
  endloop
 endfacet

 facet normal 0 1 0
  outer loop
  vertex -11.5 0.5 -0.24950001
  vertex -25 0.5 -0.24950001
  vertex -25 0.5 12
  endloop
 endfacet

 facet normal 0 1 0
  outer loop
  vertex -11.5 0.5 -0.24950001
  vertex -25 0.5 12
  vertex -11.5 0.5 12
  endloop
 endfacet

 facet normal -1 0 0
  outer loop
  vertex -25 0.5 -0.24950001
  vertex -25 -0.5 -0.25009999
  vertex -25 -0.5 11.7499
  endloop
 endfacet

 facet normal -1 0 0
  outer loop
  vertex -25 0.5 -0.24950001
  vertex -25 -0.5 11.7499
  vertex -25 0.5 12
  endloop
 endfacet

 facet normal 0 0 -1
  outer loop
  vertex 11.5 -0.5 -0.25009999
  vertex 11.5 0.5 -0.25009999
  vertex 25 0.5 -0.25009999
  endloop
 endfacet

 facet normal 0 0 -1
  outer loop
  vertex 11.5 -0.5 -0.25009999
  vertex 25 0.5 -0.25009999
  vertex 25 -0.5 -0.25009999
  endloop
 endfacet

 facet normal 0 0 1
  outer loop
  vertex 11.5 -0.5 11.7499
  vertex 25 -0.5 11.7499
  vertex 25 0.5 11.7499
  endloop
 endfacet

 facet normal 0 0 1
  outer loop
  vertex 11.5 -0.5 11.7499
  vertex 25 0.5 11.7499
  vertex 11.5 0.5 11.7499
  endloop
 endfacet

 facet normal 0 -1 0
  outer loop
  vertex 11.5 -0.5 -0.25009999
  vertex 25 -0.5 -0.25009999
  vertex 25 -0.5 11.7499
  endloop
 endfacet

 facet normal 0 -1 0
  outer loop
  vertex 11.5 -0.5 -0.25009999
  vertex 25 -0.5 11.7499
  vertex 11.5 -0.5 11.7499
  endloop
 endfacet

 facet normal 1 0 0
  outer loop
  vertex 25 -0.5 -0.25009999
  vertex 25 0.5 -0.25009999
  vertex 25 0.5 11.7499
  endloop
 endfacet

 facet normal 1 0 0
  outer loop
  vertex 25 -0.5 -0.25009999
  vertex 25 0.5 11.7499
  vertex 25 -0.5 11.7499
  endloop
 endfacet

 facet normal 0 1 0
  outer loop
  vertex 25 0.5 -0.25009999
  vertex 11.5 0.5 -0.25009999
  vertex 11.5 0.5 11.7499
  endloop
 endfacet

 facet normal 0 1 0
  outer loop
  vertex 25 0.5 -0.25009999
  vertex 11.5 0.5 11.7499
  vertex 25 0.5 11.7499
  endloop
 endfacet

 facet normal -1 0 0
  outer loop
  vertex 11.5 0.5 -0.25009999
  vertex 11.5 -0.5 -0.25009999
  vertex 11.5 -0.5 11.7499
  endloop
 endfacet

 facet normal -1 0 0
  outer loop
  vertex 11.5 0.5 -0.25009999
  vertex 11.5 -0.5 11.7499
  vertex 11.5 0.5 11.7499
  endloop
 endfacet

endsolidAssimpScene
