# 3ds Max Wavefront OBJ Exporter v0.97b - (c)2007 guruware
# File Created: 06.03.2017 14:14:09

#
# object Box010
#

v  -10.5000 -0.5000 20.0000
v  4.5000 -0.5000 20.0000
v  -10.5000 0.5000 20.0000
v  4.5000 0.5000 20.0000
v  -10.5000 -0.5000 38.0000
v  4.5000 -0.5000 38.0000
v  -10.5000 0.5000 38.0000
v  4.5000 0.5000 38.0000
v  -11.5000 -0.5000 38.0000
v  11.5000 -0.5000 38.0000
v  -11.5000 0.5000 38.0000
v  11.5000 0.5000 38.0000
v  -11.5000 -0.5000 50.0000
v  11.5000 -0.5000 50.0000
v  -11.5000 0.5000 50.0000
v  11.5000 0.5000 50.0000
v  4.5000 -0.5000 32.0000
v  11.5000 -0.5000 32.0000
v  4.5000 0.5000 32.0000
v  11.5000 0.5000 32.0000
v  4.5000 -0.5000 38.0000
v  11.5000 -0.5000 38.0000
v  4.5000 0.5000 38.0000
v  11.5000 0.5000 38.0000
v  4.5000 -0.5000 8.0000
v  25.0000 -0.5000 8.0000
v  4.5000 0.5000 8.0000
v  25.0000 0.5000 8.0000
v  4.5000 -0.5000 32.0000
v  25.0000 -0.5000 32.0000
v  4.5000 0.5000 32.0000
v  25.0000 0.5000 32.0000
v  -25.0000 -0.5000 0.0000
v  25.0000 -0.5000 0.0000
v  -25.0000 0.5000 0.0000
v  25.0000 0.5000 0.0000
v  -25.0000 -0.5000 8.0000
v  25.0000 -0.5000 8.0000
v  -25.0000 0.5000 8.0000
v  25.0000 0.5000 8.0000
v  -45.0000 -0.5000 7.0000
v  -25.0000 -0.5000 7.0000
v  -45.0000 0.5000 7.0000
v  -25.0000 0.5000 7.0000
v  -45.0000 -0.5000 8.0000
v  -25.0000 -0.5000 8.0000
v  -45.0000 0.5000 8.0000
v  -25.0000 0.5000 8.0000
v  -45.0000 -0.5000 20.0000
v  -45.0000 -0.5000 8.0000
v  -45.0000 0.5000 20.0000
v  -45.0000 0.5000 8.0000
v  -44.0000 -0.5000 20.0000
v  -44.0000 -0.5000 8.0000
v  -44.0000 0.5000 20.0000
v  -44.0000 0.5000 8.0000
v  -30.5000 -0.5000 21.0000
v  -45.0000 -0.5000 21.0000
v  -30.5000 0.5000 21.0000
v  -45.0000 0.5000 21.0000
v  -30.5000 -0.5000 20.0000
v  -45.0000 -0.5000 20.0000
v  -30.5000 0.5000 20.0000
v  -45.0000 0.5000 20.0000
v  -31.5000 -0.5000 38.0000
v  -31.5000 -0.5000 21.0000
v  -31.5000 0.5000 38.0000
v  -31.5000 0.5000 21.0000
v  -30.5000 -0.5000 38.0000
v  -30.5000 -0.5000 21.0000
v  -30.5000 0.5000 38.0000
v  -30.5000 0.5000 21.0000
v  -31.5000 -0.5000 38.0000
v  -11.5000 -0.5000 38.0000
v  -31.5000 0.5000 38.0000
v  -11.5000 0.5000 38.0000
v  -31.5000 -0.5000 39.0000
v  -11.5000 -0.5000 39.0000
v  -31.5000 0.5000 39.0000
v  -11.5000 0.5000 39.0000
# 80 vertices

vn 0.0000 0.0000 -1.0000
vn 0.0000 0.0000 -1.0000
vn 0.0000 0.0000 -1.0000
vn 0.0000 0.0000 -1.0000
vn 0.0000 0.0000 1.0000
vn 0.0000 0.0000 1.0000
vn 0.0000 0.0000 1.0000
vn 0.0000 0.0000 1.0000
vn 0.0000 -1.0000 0.0000
vn 0.0000 -1.0000 0.0000
vn 0.0000 -1.0000 0.0000
vn 0.0000 -1.0000 0.0000
vn 1.0000 0.0000 0.0000
vn 1.0000 0.0000 0.0000
vn 1.0000 0.0000 0.0000
vn 1.0000 0.0000 0.0000
vn 0.0000 1.0000 0.0000
vn 0.0000 1.0000 0.0000
vn 0.0000 1.0000 0.0000
vn 0.0000 1.0000 0.0000
vn -1.0000 0.0000 0.0000
vn -1.0000 0.0000 0.0000
vn -1.0000 0.0000 0.0000
vn -1.0000 0.0000 0.0000
vn 0.0000 0.0000 -1.0000
vn 0.0000 0.0000 -1.0000
vn 0.0000 0.0000 -1.0000
vn 0.0000 0.0000 -1.0000
vn 0.0000 0.0000 1.0000
vn 0.0000 0.0000 1.0000
vn 0.0000 0.0000 1.0000
vn 0.0000 0.0000 1.0000
vn 0.0000 -1.0000 0.0000
vn 0.0000 -1.0000 0.0000
vn 0.0000 -1.0000 0.0000
vn 0.0000 -1.0000 0.0000
vn 1.0000 0.0000 0.0000
vn 1.0000 0.0000 0.0000
vn 1.0000 0.0000 0.0000
vn 1.0000 0.0000 0.0000
vn 0.0000 1.0000 0.0000
vn 0.0000 1.0000 0.0000
vn 0.0000 1.0000 0.0000
vn 0.0000 1.0000 0.0000
vn -1.0000 0.0000 0.0000
vn -1.0000 0.0000 0.0000
vn -1.0000 0.0000 0.0000
vn -1.0000 0.0000 0.0000
vn 0.0000 0.0000 -1.0000
vn 0.0000 0.0000 -1.0000
vn 0.0000 0.0000 -1.0000
vn 0.0000 0.0000 -1.0000
vn 0.0000 0.0000 1.0000
vn 0.0000 0.0000 1.0000
vn 0.0000 0.0000 1.0000
vn 0.0000 0.0000 1.0000
vn 0.0000 -1.0000 0.0000
vn 0.0000 -1.0000 0.0000
vn 0.0000 -1.0000 0.0000
vn 0.0000 -1.0000 0.0000
vn 1.0000 0.0000 0.0000
vn 1.0000 0.0000 0.0000
vn 1.0000 0.0000 0.0000
vn 1.0000 0.0000 0.0000
vn 0.0000 1.0000 0.0000
vn 0.0000 1.0000 0.0000
vn 0.0000 1.0000 0.0000
vn 0.0000 1.0000 0.0000
vn -1.0000 0.0000 0.0000
vn -1.0000 0.0000 0.0000
vn -1.0000 0.0000 0.0000
vn -1.0000 0.0000 0.0000
vn 0.0000 0.0000 -1.0000
vn 0.0000 0.0000 -1.0000
vn 0.0000 0.0000 -1.0000
vn 0.0000 0.0000 -1.0000
vn 0.0000 0.0000 1.0000
vn 0.0000 0.0000 1.0000
vn 0.0000 0.0000 1.0000
vn 0.0000 0.0000 1.0000
vn 0.0000 -1.0000 0.0000
vn 0.0000 -1.0000 0.0000
vn 0.0000 -1.0000 0.0000
vn 0.0000 -1.0000 0.0000
vn 1.0000 0.0000 0.0000
vn 1.0000 0.0000 0.0000
vn 1.0000 0.0000 0.0000
vn 1.0000 0.0000 0.0000
vn 0.0000 1.0000 0.0000
vn 0.0000 1.0000 0.0000
vn 0.0000 1.0000 0.0000
vn 0.0000 1.0000 0.0000
vn -1.0000 0.0000 0.0000
vn -1.0000 0.0000 0.0000
vn -1.0000 0.0000 0.0000
vn -1.0000 0.0000 0.0000
vn 0.0000 0.0000 -1.0000
vn 0.0000 0.0000 -1.0000
vn 0.0000 0.0000 -1.0000
vn 0.0000 0.0000 -1.0000
vn 0.0000 0.0000 1.0000
vn 0.0000 0.0000 1.0000
vn 0.0000 0.0000 1.0000
vn 0.0000 0.0000 1.0000
vn 0.0000 -1.0000 0.0000
vn 0.0000 -1.0000 0.0000
vn 0.0000 -1.0000 0.0000
vn 0.0000 -1.0000 0.0000
vn 1.0000 0.0000 0.0000
vn 1.0000 0.0000 0.0000
vn 1.0000 0.0000 0.0000
vn 1.0000 0.0000 0.0000
vn 0.0000 1.0000 0.0000
vn 0.0000 1.0000 0.0000
vn 0.0000 1.0000 0.0000
vn 0.0000 1.0000 0.0000
vn -1.0000 0.0000 0.0000
vn -1.0000 0.0000 0.0000
vn -1.0000 0.0000 0.0000
vn -1.0000 0.0000 0.0000
vn 0.0000 0.0000 -1.0000
vn 0.0000 0.0000 -1.0000
vn 0.0000 0.0000 -1.0000
vn 0.0000 0.0000 -1.0000
vn 0.0000 0.0000 1.0000
vn 0.0000 0.0000 1.0000
vn 0.0000 0.0000 1.0000
vn 0.0000 0.0000 1.0000
vn 0.0000 -1.0000 0.0000
vn 0.0000 -1.0000 0.0000
vn 0.0000 -1.0000 0.0000
vn 0.0000 -1.0000 0.0000
vn 1.0000 0.0000 0.0000
vn 1.0000 0.0000 0.0000
vn 1.0000 0.0000 0.0000
vn 1.0000 0.0000 0.0000
vn 0.0000 1.0000 0.0000
vn 0.0000 1.0000 0.0000
vn 0.0000 1.0000 0.0000
vn 0.0000 1.0000 0.0000
vn -1.0000 0.0000 0.0000
vn -1.0000 0.0000 0.0000
vn -1.0000 0.0000 0.0000
vn -1.0000 0.0000 0.0000
vn -1.0000 0.0000 0.0000
vn -1.0000 0.0000 0.0000
vn -1.0000 0.0000 0.0000
vn -1.0000 0.0000 0.0000
vn 1.0000 0.0000 0.0000
vn 1.0000 0.0000 0.0000
vn 1.0000 0.0000 0.0000
vn 1.0000 0.0000 0.0000
vn 0.0000 -1.0000 0.0000
vn 0.0000 -1.0000 0.0000
vn 0.0000 -1.0000 0.0000
vn 0.0000 -1.0000 0.0000
vn 0.0000 0.0000 -1.0000
vn 0.0000 0.0000 -1.0000
vn 0.0000 0.0000 -1.0000
vn 0.0000 0.0000 -1.0000
vn 0.0000 1.0000 0.0000
vn 0.0000 1.0000 0.0000
vn 0.0000 1.0000 0.0000
vn 0.0000 1.0000 0.0000
vn 0.0000 0.0000 1.0000
vn 0.0000 0.0000 1.0000
vn 0.0000 0.0000 1.0000
vn 0.0000 0.0000 1.0000
vn 0.0000 0.0000 1.0000
vn 0.0000 0.0000 1.0000
vn 0.0000 0.0000 1.0000
vn 0.0000 0.0000 1.0000
vn -0.0000 0.0000 -1.0000
vn -0.0000 0.0000 -1.0000
vn -0.0000 0.0000 -1.0000
vn -0.0000 0.0000 -1.0000
vn 0.0000 -1.0000 0.0000
vn 0.0000 -1.0000 0.0000
vn 0.0000 -1.0000 0.0000
vn 0.0000 -1.0000 0.0000
vn -1.0000 0.0000 0.0000
vn -1.0000 0.0000 0.0000
vn -1.0000 0.0000 0.0000
vn -1.0000 0.0000 0.0000
vn 0.0000 1.0000 0.0000
vn 0.0000 1.0000 0.0000
vn 0.0000 1.0000 0.0000
vn 0.0000 1.0000 0.0000
vn 1.0000 0.0000 0.0000
vn 1.0000 0.0000 0.0000
vn 1.0000 0.0000 0.0000
vn 1.0000 0.0000 0.0000
vn -1.0000 0.0000 0.0000
vn -1.0000 0.0000 0.0000
vn -1.0000 0.0000 0.0000
vn -1.0000 0.0000 0.0000
vn 1.0000 0.0000 0.0000
vn 1.0000 0.0000 0.0000
vn 1.0000 0.0000 0.0000
vn 1.0000 0.0000 0.0000
vn 0.0000 -1.0000 0.0000
vn 0.0000 -1.0000 0.0000
vn 0.0000 -1.0000 0.0000
vn 0.0000 -1.0000 0.0000
vn 0.0000 0.0000 -1.0000
vn 0.0000 0.0000 -1.0000
vn 0.0000 0.0000 -1.0000
vn 0.0000 0.0000 -1.0000
vn 0.0000 1.0000 0.0000
vn 0.0000 1.0000 0.0000
vn 0.0000 1.0000 0.0000
vn 0.0000 1.0000 0.0000
vn 0.0000 0.0000 1.0000
vn 0.0000 0.0000 1.0000
vn 0.0000 0.0000 1.0000
vn 0.0000 0.0000 1.0000
vn 0.0000 0.0000 -1.0000
vn 0.0000 0.0000 -1.0000
vn 0.0000 0.0000 -1.0000
vn 0.0000 0.0000 -1.0000
vn 0.0000 0.0000 1.0000
vn 0.0000 0.0000 1.0000
vn 0.0000 0.0000 1.0000
vn 0.0000 0.0000 1.0000
vn 0.0000 -1.0000 0.0000
vn 0.0000 -1.0000 0.0000
vn 0.0000 -1.0000 0.0000
vn 0.0000 -1.0000 0.0000
vn 1.0000 0.0000 0.0000
vn 1.0000 0.0000 0.0000
vn 1.0000 0.0000 0.0000
vn 1.0000 0.0000 0.0000
vn 0.0000 1.0000 0.0000
vn 0.0000 1.0000 0.0000
vn 0.0000 1.0000 0.0000
vn 0.0000 1.0000 0.0000
vn -1.0000 0.0000 0.0000
vn -1.0000 0.0000 0.0000
vn -1.0000 0.0000 0.0000
vn -1.0000 0.0000 0.0000
# 240 vertex normals

g Box010
s 2
f 1//1 3//2 4//3 2//4 
s 4
f 5//5 6//6 8//7 7//8 
s 8
f 1//9 2//10 6//11 5//12 
s 16
f 2//13 4//14 8//15 6//16 
s 32
f 4//17 3//18 7//19 8//20 
s 64
f 3//21 1//22 5//23 7//24 
s 2
f 9//25 11//26 12//27 10//28 
s 4
f 13//29 14//30 16//31 15//32 
s 8
f 9//33 10//34 14//35 13//36 
s 16
f 10//37 12//38 16//39 14//40 
s 32
f 12//41 11//42 15//43 16//44 
s 64
f 11//45 9//46 13//47 15//48 
s 2
f 17//49 19//50 20//51 18//52 
s 4
f 21//53 22//54 24//55 23//56 
s 8
f 17//57 18//58 22//59 21//60 
s 16
f 18//61 20//62 24//63 22//64 
s 32
f 20//65 19//66 23//67 24//68 
s 64
f 19//69 17//70 21//71 23//72 
s 2
f 25//73 27//74 28//75 26//76 
s 4
f 29//77 30//78 32//79 31//80 
s 8
f 25//81 26//82 30//83 29//84 
s 16
f 26//85 28//86 32//87 30//88 
s 32
f 28//89 27//90 31//91 32//92 
s 64
f 27//93 25//94 29//95 31//96 
s 2
f 33//97 35//98 36//99 34//100 
s 4
f 37//101 38//102 40//103 39//104 
s 8
f 33//105 34//106 38//107 37//108 
s 16
f 34//109 36//110 40//111 38//112 
s 32
f 36//113 35//114 39//115 40//116 
s 64
f 35//117 33//118 37//119 39//120 
s 2
f 41//121 43//122 44//123 42//124 
s 4
f 45//125 46//126 48//127 47//128 
s 8
f 41//129 42//130 46//131 45//132 
s 16
f 42//133 44//134 48//135 46//136 
s 32
f 44//137 43//138 47//139 48//140 
s 64
f 43//141 41//142 45//143 47//144 
s 2
f 49//145 51//146 52//147 50//148 
s 4
f 53//149 54//150 56//151 55//152 
s 8
f 49//153 50//154 54//155 53//156 
s 16
f 50//157 52//158 56//159 54//160 
s 32
f 52//161 51//162 55//163 56//164 
s 64
f 51//165 49//166 53//167 55//168 
s 2
f 57//169 59//170 60//171 58//172 
s 4
f 61//173 62//174 64//175 63//176 
s 8
f 57//177 58//178 62//179 61//180 
s 16
f 58//181 60//182 64//183 62//184 
s 32
f 60//185 59//186 63//187 64//188 
s 64
f 59//189 57//190 61//191 63//192 
s 2
f 65//193 67//194 68//195 66//196 
s 4
f 69//197 70//198 72//199 71//200 
s 8
f 65//201 66//202 70//203 69//204 
s 16
f 66//205 68//206 72//207 70//208 
s 32
f 68//209 67//210 71//211 72//212 
s 64
f 67//213 65//214 69//215 71//216 
s 2
f 73//217 75//218 76//219 74//220 
s 4
f 77//221 78//222 80//223 79//224 
s 8
f 73//225 74//226 78//227 77//228 
s 16
f 74//229 76//230 80//231 78//232 
s 32
f 76//233 75//234 79//235 80//236 
s 64
f 75//237 73//238 77//239 79//240 
# 60 polygons

