solid AssimpScene
 facet normal 0 0 -1
  outer loop
  vertex -10.5 -0.5 20
  vertex -10.5 0.5 20
  vertex 4.5 0.5 20
  endloop
 endfacet

 facet normal 0 0 -1
  outer loop
  vertex -10.5 -0.5 20
  vertex 4.5 0.5 20
  vertex 4.5 -0.5 20
  endloop
 endfacet

 facet normal 0 0 1
  outer loop
  vertex -10.5 -0.5 38
  vertex 4.5 -0.5 38
  vertex 4.5 0.5 38
  endloop
 endfacet

 facet normal 0 0 1
  outer loop
  vertex -10.5 -0.5 38
  vertex 4.5 0.5 38
  vertex -10.5 0.5 38
  endloop
 endfacet

 facet normal 0 -1 0
  outer loop
  vertex -10.5 -0.5 20
  vertex 4.5 -0.5 20
  vertex 4.5 -0.5 38
  endloop
 endfacet

 facet normal 0 -1 0
  outer loop
  vertex -10.5 -0.5 20
  vertex 4.5 -0.5 38
  vertex -10.5 -0.5 38
  endloop
 endfacet

 facet normal 1 0 0
  outer loop
  vertex 4.5 -0.5 20
  vertex 4.5 0.5 20
  vertex 4.5 0.5 38
  endloop
 endfacet

 facet normal 1 0 0
  outer loop
  vertex 4.5 -0.5 20
  vertex 4.5 0.5 38
  vertex 4.5 -0.5 38
  endloop
 endfacet

 facet normal 0 1 0
  outer loop
  vertex 4.5 0.5 20
  vertex -10.5 0.5 20
  vertex -10.5 0.5 38
  endloop
 endfacet

 facet normal 0 1 0
  outer loop
  vertex 4.5 0.5 20
  vertex -10.5 0.5 38
  vertex 4.5 0.5 38
  endloop
 endfacet

 facet normal -1 0 0
  outer loop
  vertex -10.5 0.5 20
  vertex -10.5 -0.5 20
  vertex -10.5 -0.5 38
  endloop
 endfacet

 facet normal -1 0 0
  outer loop
  vertex -10.5 0.5 20
  vertex -10.5 -0.5 38
  vertex -10.5 0.5 38
  endloop
 endfacet

 facet normal 0 0 -1
  outer loop
  vertex -11.5 -0.5 38
  vertex -11.5 0.5 38
  vertex 11.5 0.5 38
  endloop
 endfacet

 facet normal 0 0 -1
  outer loop
  vertex -11.5 -0.5 38
  vertex 11.5 0.5 38
  vertex 11.5 -0.5 38
  endloop
 endfacet

 facet normal 0 0 1
  outer loop
  vertex -11.5 -0.5 50
  vertex 11.5 -0.5 50
  vertex 11.5 0.5 50
  endloop
 endfacet

 facet normal 0 0 1
  outer loop
  vertex -11.5 -0.5 50
  vertex 11.5 0.5 50
  vertex -11.5 0.5 50
  endloop
 endfacet

 facet normal 0 -1 0
  outer loop
  vertex -11.5 -0.5 38
  vertex 11.5 -0.5 38
  vertex 11.5 -0.5 50
  endloop
 endfacet

 facet normal 0 -1 0
  outer loop
  vertex -11.5 -0.5 38
  vertex 11.5 -0.5 50
  vertex -11.5 -0.5 50
  endloop
 endfacet

 facet normal 1 0 0
  outer loop
  vertex 11.5 -0.5 38
  vertex 11.5 0.5 38
  vertex 11.5 0.5 50
  endloop
 endfacet

 facet normal 1 0 0
  outer loop
  vertex 11.5 -0.5 38
  vertex 11.5 0.5 50
  vertex 11.5 -0.5 50
  endloop
 endfacet

 facet normal 0 1 0
  outer loop
  vertex 11.5 0.5 38
  vertex -11.5 0.5 38
  vertex -11.5 0.5 50
  endloop
 endfacet

 facet normal 0 1 0
  outer loop
  vertex 11.5 0.5 38
  vertex -11.5 0.5 50
  vertex 11.5 0.5 50
  endloop
 endfacet

 facet normal -1 0 0
  outer loop
  vertex -11.5 0.5 38
  vertex -11.5 -0.5 38
  vertex -11.5 -0.5 50
  endloop
 endfacet

 facet normal -1 0 0
  outer loop
  vertex -11.5 0.5 38
  vertex -11.5 -0.5 50
  vertex -11.5 0.5 50
  endloop
 endfacet

 facet normal 0 0 -1
  outer loop
  vertex 4.5 -0.5 32
  vertex 4.5 0.5 32
  vertex 11.5 0.5 32
  endloop
 endfacet

 facet normal 0 0 -1
  outer loop
  vertex 4.5 -0.5 32
  vertex 11.5 0.5 32
  vertex 11.5 -0.5 32
  endloop
 endfacet

 facet normal 0 0 1
  outer loop
  vertex 4.5 -0.5 38
  vertex 11.5 -0.5 38
  vertex 11.5 0.5 38
  endloop
 endfacet

 facet normal 0 0 1
  outer loop
  vertex 4.5 -0.5 38
  vertex 11.5 0.5 38
  vertex 4.5 0.5 38
  endloop
 endfacet

 facet normal 0 -1 0
  outer loop
  vertex 4.5 -0.5 32
  vertex 11.5 -0.5 32
  vertex 11.5 -0.5 38
  endloop
 endfacet

 facet normal 0 -1 0
  outer loop
  vertex 4.5 -0.5 32
  vertex 11.5 -0.5 38
  vertex 4.5 -0.5 38
  endloop
 endfacet

 facet normal 1 0 0
  outer loop
  vertex 11.5 -0.5 32
  vertex 11.5 0.5 32
  vertex 11.5 0.5 38
  endloop
 endfacet

 facet normal 1 0 0
  outer loop
  vertex 11.5 -0.5 32
  vertex 11.5 0.5 38
  vertex 11.5 -0.5 38
  endloop
 endfacet

 facet normal 0 1 0
  outer loop
  vertex 11.5 0.5 32
  vertex 4.5 0.5 32
  vertex 4.5 0.5 38
  endloop
 endfacet

 facet normal 0 1 0
  outer loop
  vertex 11.5 0.5 32
  vertex 4.5 0.5 38
  vertex 11.5 0.5 38
  endloop
 endfacet

 facet normal -1 0 0
  outer loop
  vertex 4.5 0.5 32
  vertex 4.5 -0.5 32
  vertex 4.5 -0.5 38
  endloop
 endfacet

 facet normal -1 0 0
  outer loop
  vertex 4.5 0.5 32
  vertex 4.5 -0.5 38
  vertex 4.5 0.5 38
  endloop
 endfacet

 facet normal 0 0 -1
  outer loop
  vertex 4.5 -0.5 8
  vertex 4.5 0.5 8
  vertex 25 0.5 8
  endloop
 endfacet

 facet normal 0 0 -1
  outer loop
  vertex 4.5 -0.5 8
  vertex 25 0.5 8
  vertex 25 -0.5 8
  endloop
 endfacet

 facet normal 0 0 1
  outer loop
  vertex 4.5 -0.5 32
  vertex 25 -0.5 32
  vertex 25 0.5 32
  endloop
 endfacet

 facet normal 0 0 1
  outer loop
  vertex 4.5 -0.5 32
  vertex 25 0.5 32
  vertex 4.5 0.5 32
  endloop
 endfacet

 facet normal 0 -1 0
  outer loop
  vertex 4.5 -0.5 8
  vertex 25 -0.5 8
  vertex 25 -0.5 32
  endloop
 endfacet

 facet normal 0 -1 0
  outer loop
  vertex 4.5 -0.5 8
  vertex 25 -0.5 32
  vertex 4.5 -0.5 32
  endloop
 endfacet

 facet normal 1 0 0
  outer loop
  vertex 25 -0.5 8
  vertex 25 0.5 8
  vertex 25 0.5 32
  endloop
 endfacet

 facet normal 1 0 0
  outer loop
  vertex 25 -0.5 8
  vertex 25 0.5 32
  vertex 25 -0.5 32
  endloop
 endfacet

 facet normal 0 1 0
  outer loop
  vertex 25 0.5 8
  vertex 4.5 0.5 8
  vertex 4.5 0.5 32
  endloop
 endfacet

 facet normal 0 1 0
  outer loop
  vertex 25 0.5 8
  vertex 4.5 0.5 32
  vertex 25 0.5 32
  endloop
 endfacet

 facet normal -1 0 0
  outer loop
  vertex 4.5 0.5 8
  vertex 4.5 -0.5 8
  vertex 4.5 -0.5 32
  endloop
 endfacet

 facet normal -1 0 0
  outer loop
  vertex 4.5 0.5 8
  vertex 4.5 -0.5 32
  vertex 4.5 0.5 32
  endloop
 endfacet

 facet normal 0 0 -1
  outer loop
  vertex -25 -0.5 0
  vertex -25 0.5 0
  vertex 25 0.5 0
  endloop
 endfacet

 facet normal 0 0 -1
  outer loop
  vertex -25 -0.5 0
  vertex 25 0.5 0
  vertex 25 -0.5 0
  endloop
 endfacet

 facet normal 0 0 1
  outer loop
  vertex -25 -0.5 8
  vertex 25 -0.5 8
  vertex 25 0.5 8
  endloop
 endfacet

 facet normal 0 0 1
  outer loop
  vertex -25 -0.5 8
  vertex 25 0.5 8
  vertex -25 0.5 8
  endloop
 endfacet

 facet normal 0 -1 0
  outer loop
  vertex -25 -0.5 0
  vertex 25 -0.5 0
  vertex 25 -0.5 8
  endloop
 endfacet

 facet normal 0 -1 0
  outer loop
  vertex -25 -0.5 0
  vertex 25 -0.5 8
  vertex -25 -0.5 8
  endloop
 endfacet

 facet normal 1 0 0
  outer loop
  vertex 25 -0.5 0
  vertex 25 0.5 0
  vertex 25 0.5 8
  endloop
 endfacet

 facet normal 1 0 0
  outer loop
  vertex 25 -0.5 0
  vertex 25 0.5 8
  vertex 25 -0.5 8
  endloop
 endfacet

 facet normal 0 1 0
  outer loop
  vertex 25 0.5 0
  vertex -25 0.5 0
  vertex -25 0.5 8
  endloop
 endfacet

 facet normal 0 1 0
  outer loop
  vertex 25 0.5 0
  vertex -25 0.5 8
  vertex 25 0.5 8
  endloop
 endfacet

 facet normal -1 0 0
  outer loop
  vertex -25 0.5 0
  vertex -25 -0.5 0
  vertex -25 -0.5 8
  endloop
 endfacet

 facet normal -1 0 0
  outer loop
  vertex -25 0.5 0
  vertex -25 -0.5 8
  vertex -25 0.5 8
  endloop
 endfacet

 facet normal 0 0 -1
  outer loop
  vertex -45 -0.5 7
  vertex -45 0.5 7
  vertex -25 0.5 7
  endloop
 endfacet

 facet normal 0 0 -1
  outer loop
  vertex -45 -0.5 7
  vertex -25 0.5 7
  vertex -25 -0.5 7
  endloop
 endfacet

 facet normal 0 0 1
  outer loop
  vertex -45 -0.5 8
  vertex -25 -0.5 8
  vertex -25 0.5 8
  endloop
 endfacet

 facet normal 0 0 1
  outer loop
  vertex -45 -0.5 8
  vertex -25 0.5 8
  vertex -45 0.5 8
  endloop
 endfacet

 facet normal 0 -1 0
  outer loop
  vertex -45 -0.5 7
  vertex -25 -0.5 7
  vertex -25 -0.5 8
  endloop
 endfacet

 facet normal 0 -1 0
  outer loop
  vertex -45 -0.5 7
  vertex -25 -0.5 8
  vertex -45 -0.5 8
  endloop
 endfacet

 facet normal 1 0 0
  outer loop
  vertex -25 -0.5 7
  vertex -25 0.5 7
  vertex -25 0.5 8
  endloop
 endfacet

 facet normal 1 0 0
  outer loop
  vertex -25 -0.5 7
  vertex -25 0.5 8
  vertex -25 -0.5 8
  endloop
 endfacet

 facet normal 0 1 0
  outer loop
  vertex -25 0.5 7
  vertex -45 0.5 7
  vertex -45 0.5 8
  endloop
 endfacet

 facet normal 0 1 0
  outer loop
  vertex -25 0.5 7
  vertex -45 0.5 8
  vertex -25 0.5 8
  endloop
 endfacet

 facet normal -1 0 0
  outer loop
  vertex -45 0.5 7
  vertex -45 -0.5 7
  vertex -45 -0.5 8
  endloop
 endfacet

 facet normal -1 0 0
  outer loop
  vertex -45 0.5 7
  vertex -45 -0.5 8
  vertex -45 0.5 8
  endloop
 endfacet

 facet normal -1 0 0
  outer loop
  vertex -45 -0.5 20
  vertex -45 0.5 20
  vertex -45 0.5 8
  endloop
 endfacet

 facet normal -1 0 0
  outer loop
  vertex -45 -0.5 20
  vertex -45 0.5 8
  vertex -45 -0.5 8
  endloop
 endfacet

 facet normal 1 0 0
  outer loop
  vertex -44 -0.5 20
  vertex -44 -0.5 8
  vertex -44 0.5 8
  endloop
 endfacet

 facet normal 1 0 0
  outer loop
  vertex -44 -0.5 20
  vertex -44 0.5 8
  vertex -44 0.5 20
  endloop
 endfacet

 facet normal 0 -1 0
  outer loop
  vertex -45 -0.5 20
  vertex -45 -0.5 8
  vertex -44 -0.5 8
  endloop
 endfacet

 facet normal 0 -1 0
  outer loop
  vertex -45 -0.5 20
  vertex -44 -0.5 8
  vertex -44 -0.5 20
  endloop
 endfacet

 facet normal 0 0 -1
  outer loop
  vertex -45 -0.5 8
  vertex -45 0.5 8
  vertex -44 0.5 8
  endloop
 endfacet

 facet normal 0 0 -1
  outer loop
  vertex -45 -0.5 8
  vertex -44 0.5 8
  vertex -44 -0.5 8
  endloop
 endfacet

 facet normal 0 1 0
  outer loop
  vertex -45 0.5 8
  vertex -45 0.5 20
  vertex -44 0.5 20
  endloop
 endfacet

 facet normal 0 1 0
  outer loop
  vertex -45 0.5 8
  vertex -44 0.5 20
  vertex -44 0.5 8
  endloop
 endfacet

 facet normal 0 0 1
  outer loop
  vertex -45 0.5 20
  vertex -45 -0.5 20
  vertex -44 -0.5 20
  endloop
 endfacet

 facet normal 0 0 1
  outer loop
  vertex -45 0.5 20
  vertex -44 -0.5 20
  vertex -44 0.5 20
  endloop
 endfacet

 facet normal 0 0 1
  outer loop
  vertex -30.5 -0.5 21
  vertex -30.5 0.5 21
  vertex -45 0.5 21
  endloop
 endfacet

 facet normal 0 0 1
  outer loop
  vertex -30.5 -0.5 21
  vertex -45 0.5 21
  vertex -45 -0.5 21
  endloop
 endfacet

 facet normal 0 0 -1
  outer loop
  vertex -30.5 -0.5 20
  vertex -45 -0.5 20
  vertex -45 0.5 20
  endloop
 endfacet

 facet normal 0 0 -1
  outer loop
  vertex -30.5 -0.5 20
  vertex -45 0.5 20
  vertex -30.5 0.5 20
  endloop
 endfacet

 facet normal 0 -1 0
  outer loop
  vertex -30.5 -0.5 21
  vertex -45 -0.5 21
  vertex -45 -0.5 20
  endloop
 endfacet

 facet normal 0 -1 0
  outer loop
  vertex -30.5 -0.5 21
  vertex -45 -0.5 20
  vertex -30.5 -0.5 20
  endloop
 endfacet

 facet normal -1 0 0
  outer loop
  vertex -45 -0.5 21
  vertex -45 0.5 21
  vertex -45 0.5 20
  endloop
 endfacet

 facet normal -1 0 0
  outer loop
  vertex -45 -0.5 21
  vertex -45 0.5 20
  vertex -45 -0.5 20
  endloop
 endfacet

 facet normal 0 1 0
  outer loop
  vertex -45 0.5 21
  vertex -30.5 0.5 21
  vertex -30.5 0.5 20
  endloop
 endfacet

 facet normal 0 1 0
  outer loop
  vertex -45 0.5 21
  vertex -30.5 0.5 20
  vertex -45 0.5 20
  endloop
 endfacet

 facet normal 1 0 0
  outer loop
  vertex -30.5 0.5 21
  vertex -30.5 -0.5 21
  vertex -30.5 -0.5 20
  endloop
 endfacet

 facet normal 1 0 0
  outer loop
  vertex -30.5 0.5 21
  vertex -30.5 -0.5 20
  vertex -30.5 0.5 20
  endloop
 endfacet

 facet normal -1 0 0
  outer loop
  vertex -31.5 -0.5 38
  vertex -31.5 0.5 38
  vertex -31.5 0.5 21
  endloop
 endfacet

 facet normal -1 0 0
  outer loop
  vertex -31.5 -0.5 38
  vertex -31.5 0.5 21
  vertex -31.5 -0.5 21
  endloop
 endfacet

 facet normal 1 0 0
  outer loop
  vertex -30.5 -0.5 38
  vertex -30.5 -0.5 21
  vertex -30.5 0.5 21
  endloop
 endfacet

 facet normal 1 0 0
  outer loop
  vertex -30.5 -0.5 38
  vertex -30.5 0.5 21
  vertex -30.5 0.5 38
  endloop
 endfacet

 facet normal 0 -1 0
  outer loop
  vertex -31.5 -0.5 38
  vertex -31.5 -0.5 21
  vertex -30.5 -0.5 21
  endloop
 endfacet

 facet normal 0 -1 0
  outer loop
  vertex -31.5 -0.5 38
  vertex -30.5 -0.5 21
  vertex -30.5 -0.5 38
  endloop
 endfacet

 facet normal 0 0 -1
  outer loop
  vertex -31.5 -0.5 21
  vertex -31.5 0.5 21
  vertex -30.5 0.5 21
  endloop
 endfacet

 facet normal 0 0 -1
  outer loop
  vertex -31.5 -0.5 21
  vertex -30.5 0.5 21
  vertex -30.5 -0.5 21
  endloop
 endfacet

 facet normal 0 1 0
  outer loop
  vertex -31.5 0.5 21
  vertex -31.5 0.5 38
  vertex -30.5 0.5 38
  endloop
 endfacet

 facet normal 0 1 0
  outer loop
  vertex -31.5 0.5 21
  vertex -30.5 0.5 38
  vertex -30.5 0.5 21
  endloop
 endfacet

 facet normal 0 0 1
  outer loop
  vertex -31.5 0.5 38
  vertex -31.5 -0.5 38
  vertex -30.5 -0.5 38
  endloop
 endfacet

 facet normal 0 0 1
  outer loop
  vertex -31.5 0.5 38
  vertex -30.5 -0.5 38
  vertex -30.5 0.5 38
  endloop
 endfacet

 facet normal 0 0 -1
  outer loop
  vertex -31.5 -0.5 38
  vertex -31.5 0.5 38
  vertex -11.5 0.5 38
  endloop
 endfacet

 facet normal 0 0 -1
  outer loop
  vertex -31.5 -0.5 38
  vertex -11.5 0.5 38
  vertex -11.5 -0.5 38
  endloop
 endfacet

 facet normal 0 0 1
  outer loop
  vertex -31.5 -0.5 39
  vertex -11.5 -0.5 39
  vertex -11.5 0.5 39
  endloop
 endfacet

 facet normal 0 0 1
  outer loop
  vertex -31.5 -0.5 39
  vertex -11.5 0.5 39
  vertex -31.5 0.5 39
  endloop
 endfacet

 facet normal 0 -1 0
  outer loop
  vertex -31.5 -0.5 38
  vertex -11.5 -0.5 38
  vertex -11.5 -0.5 39
  endloop
 endfacet

 facet normal 0 -1 0
  outer loop
  vertex -31.5 -0.5 38
  vertex -11.5 -0.5 39
  vertex -31.5 -0.5 39
  endloop
 endfacet

 facet normal 1 0 0
  outer loop
  vertex -11.5 -0.5 38
  vertex -11.5 0.5 38
  vertex -11.5 0.5 39
  endloop
 endfacet

 facet normal 1 0 0
  outer loop
  vertex -11.5 -0.5 38
  vertex -11.5 0.5 39
  vertex -11.5 -0.5 39
  endloop
 endfacet

 facet normal 0 1 0
  outer loop
  vertex -11.5 0.5 38
  vertex -31.5 0.5 38
  vertex -31.5 0.5 39
  endloop
 endfacet

 facet normal 0 1 0
  outer loop
  vertex -11.5 0.5 38
  vertex -31.5 0.5 39
  vertex -11.5 0.5 39
  endloop
 endfacet

 facet normal -1 0 0
  outer loop
  vertex -31.5 0.5 38
  vertex -31.5 -0.5 38
  vertex -31.5 -0.5 39
  endloop
 endfacet

 facet normal -1 0 0
  outer loop
  vertex -31.5 0.5 38
  vertex -31.5 -0.5 39
  vertex -31.5 0.5 39
  endloop
 endfacet

endsolidAssimpScene
