# Aspose.3D Wavefront OBJ Exporter
# Copyright 2004-2020 Aspose Pty Ltd.
# File created: 3/1/2021 3:55:58 AM


#
# object Figure1
#

v -3.09739721413966862 -0.29792723502174452 42.59154225204498088
v -3.09739145408958904 -0.29792723502174452 -33.7026344462515368
v -3.09739387921517562 75.99625196189423088 42.5915422520452296
v -3.09738811916509604 75.99625196189423088 -33.70263444625128816
v 0.91203061057666448 75.99625178663671936 42.59154255474835792
v 0.91202727565217152 -0.29792741027925516 42.5915425547481092
v 0.91203303570225104 -0.29792741027925516 -33.70263414354840848
v 0.912036370626744 75.99625178663671936 -33.70263414354815976
# 8 vertices

vn -0.99999999999999616 4.3711388286737916E-08 -7.549789948768648E-08
vn -0.99999999999999616 4.3711388286737916E-08 -7.549789948768648E-08
vn -0.99999999999999616 4.3711388286737916E-08 -7.549789948768648E-08
vn -0.99999999999999616 4.3711388286737916E-08 -7.549789948768648E-08
vn 0.99999999999999616 -4.3711388286737916E-08 7.549789948768648E-08
vn 0.99999999999999616 -4.3711388286737916E-08 7.549789948768648E-08
vn 0.99999999999999616 -4.3711388286737916E-08 7.549789948768648E-08
vn 0.99999999999999616 -4.3711388286737916E-08 7.549789948768648E-08
vn 7.549789948768648E-08 3.308722450212111E-24 -0.99999999999999712
vn 7.549789948768648E-08 3.308722450212111E-24 -0.99999999999999712
vn 7.549789948768648E-08 3.308722450212111E-24 -0.99999999999999712
vn 7.549789948768648E-08 3.308722450212111E-24 -0.99999999999999712
vn -7.549789948768648E-08 -3.308722450212111E-24 0.99999999999999712
vn -7.549789948768648E-08 -3.308722450212111E-24 0.99999999999999712
vn -7.549789948768648E-08 -3.308722450212111E-24 0.99999999999999712
vn -7.549789948768648E-08 -3.308722450212111E-24 0.99999999999999712
vn 4.371138828673778E-08 0.99999999999999904 3.3001180016750483E-15
vn 4.371138828673778E-08 0.99999999999999904 3.3001180016750483E-15
vn 4.371138828673778E-08 0.99999999999999904 3.3001180016750483E-15
vn 4.371138828673778E-08 0.99999999999999904 3.3001180016750483E-15
vn -4.371138828673778E-08 -0.99999999999999904 -3.3001180016750483E-15
vn -4.371138828673778E-08 -0.99999999999999904 -3.3001180016750483E-15
vn -4.371138828673778E-08 -0.99999999999999904 -3.3001180016750483E-15
vn -4.371138828673778E-08 -0.99999999999999904 -3.3001180016750483E-15
# 24 vertex normals

vt 0.04652652144432068 0.97331154346466064 0
vt 0.25324004888534544 0.96952861547470096 0
vt 0.04274353384971618 0.76659810543060304 0
vt 0.04274353384971618 0.76659810543060304 0
vt 0.24945704638957976 0.76281511783599856 0
vt 0.25324004888534544 0.96952861547470096 0
vt 0.25301292538642884 0.12846338748931884 0
vt 0.24945704638957976 0.76281511783599856 0
vt 0.2569285035133362 0.3424212634563446 0
vt 0.04297064244747162 0.34633669257164 0
vt 0.04652652144432068 0.97331154346466064 0
vt 0.03905507922172546 0.1323789656162262 0
# 12 texture coords

g Figure1
usemtl Material.001
s 1
f 1/3/1 3/1/2 4/2/3 2/5/4
f 6/12/5 7/7/6 8/9/7 5/10/8
f 2/5/9 4/2/10 8/6/11 7/8/12
f 3/1/13 1/3/14 6/4/15 5/11/16
f 4/2/17 3/1/18 5/11/19 8/6/20
f 1/3/21 2/5/22 7/8/23 6/4/24
#6 polygons

