# Aspose.3D Wavefront OBJ Exporter
# Copyright 2004-2020 Aspose Pty Ltd.
# File created: 2/23/2021 11:48:25 AM


#
# object Plane.018
#

v -2.9781267628509624 -0.297927034002956 42.59154121194322328
v -2.97812100280088288 -0.297927034002956 -33.7026354863532944
v -2.97812342792646944 75.99625216291302368 42.591541211943472
v -2.97811766787638992 75.99625216291302368 -33.70263548635304576
v 1.03129606462672285 75.99625198765572528 42.59154151464622376
v 1.03129272970222985 -0.29792720926024824 42.59154151464597504
v 1.03129848975230942 -0.29792720926024824 -33.70263518365054264
v 1.03130182467680242 75.99625198765572528 -33.702635183650294
# 8 vertices

vn -0.99999999999999616 4.3711388286737916E-08 -7.549789948768648E-08
vn -0.99999999999999616 4.3711388286737916E-08 -7.549789948768648E-08
vn -0.99999999999999616 4.3711388286737916E-08 -7.549789948768648E-08
vn -0.99999999999999616 4.3711388286737916E-08 -7.549789948768648E-08
vn 0.99999999999999616 -4.3711388286737916E-08 7.549789948768648E-08
vn 0.99999999999999616 -4.3711388286737916E-08 7.549789948768648E-08
vn 0.99999999999999616 -4.3711388286737916E-08 7.549789948768648E-08
vn 0.99999999999999616 -4.3711388286737916E-08 7.549789948768648E-08
vn 7.549789948768648E-08 3.308722450212111E-24 -0.99999999999999712
vn 7.549789948768648E-08 3.308722450212111E-24 -0.99999999999999712
vn 7.549789948768648E-08 3.308722450212111E-24 -0.99999999999999712
vn 7.549789948768648E-08 3.308722450212111E-24 -0.99999999999999712
vn -7.549789948768648E-08 -3.308722450212111E-24 0.99999999999999712
vn -7.549789948768648E-08 -3.308722450212111E-24 0.99999999999999712
vn -7.549789948768648E-08 -3.308722450212111E-24 0.99999999999999712
vn -7.549789948768648E-08 -3.308722450212111E-24 0.99999999999999712
vn 4.371138828673778E-08 0.99999999999999904 3.3001180016750483E-15
vn 4.371138828673778E-08 0.99999999999999904 3.3001180016750483E-15
vn 4.371138828673778E-08 0.99999999999999904 3.3001180016750483E-15
vn 4.371138828673778E-08 0.99999999999999904 3.3001180016750483E-15
vn -4.371138828673778E-08 -0.99999999999999904 -3.3001180016750483E-15
vn -4.371138828673778E-08 -0.99999999999999904 -3.3001180016750483E-15
vn -4.371138828673778E-08 -0.99999999999999904 -3.3001180016750483E-15
vn -4.371138828673778E-08 -0.99999999999999904 -3.3001180016750483E-15
# 24 vertex normals

vt 0.04652652144432068 0.97331154346466064 0
vt 0.25324004888534544 0.96952861547470096 0
vt 0.04274353384971618 0.76659810543060304 0
vt 0.04274353384971618 0.76659810543060304 0
vt 0.24945704638957976 0.76281511783599856 0
vt 0.25324004888534544 0.96952861547470096 0
vt 0.25301292538642884 0.33851495385169984 0
vt 0.24945704638957976 0.76281511783599856 0
vt 0.2569285035133362 0.5524728298187256 0
vt 0.04297064244747162 0.55638825893402096 0
vt 0.04652652144432068 0.97331154346466064 0
vt 0.03905507922172546 0.34243053197860716 0
# 12 texture coords

g Plane.018
usemtl Material.001
s 1
f 1/3/1 3/1/2 4/2/3 2/5/4
f 6/12/5 7/7/6 8/9/7 5/10/8
f 2/5/9 4/2/10 8/6/11 7/8/12
f 3/1/13 1/3/14 6/4/15 5/11/16
f 4/2/17 3/1/18 5/11/19 8/6/20
f 1/3/21 2/5/22 7/8/23 6/4/24
#6 polygons

