# Aspose.3D Wavefront OBJ Exporter
# Copyright 2004-2020 Aspose Pty Ltd.
# File created: 3/1/2021 3:57:58 AM


#
# object Figure-3a
#

v -0.55376706506371672 -0.18714490068851916 18.22771784842898768
v -0.55376459390830136 0.09424604134277448 -14.34080975318940076
v -0.55376412643466288 5.75244904693941632 -17.25672783759370076
v -0.55376386730515392 8.05853560525245527 -19.35383581446062708
v -0.55376384569675352 10.15387256585607112 -18.42690008107039648
v -0.55376383758726712 11.630588462705056 -17.67933191173873552
v -0.55376374891706168 15.06878780396593598 -16.86317297809401344
v -0.55376385700414408 18.763300282949416 -13.292485836355036
v -0.5537639740774676 18.917151301510188 -11.6527267579834
v -0.55376394065184976 19.69397869270275688 -11.6456988732043332
v -0.55376371908210056 19.64842184081746272 -14.60685545460673216
v -0.5537636687459848 20.70550586755242864 -14.66155230205642112
v -0.553763902015584 20.76601068525539168 -11.5367720096311572
v -0.55376393406709032 21.34615494930127612 -10.77634792088351648
v -0.5537639271053152 22.84146250403838608 -10.0028137638603507
v -0.55376398165272352 22.93516050042282112 -9.22606261732564368
v -0.55376401169144888 23.14903345385343058 -8.70436055234372216
v -0.55376404505455312 24.57333984298858096 -7.43781506132952328
v -0.55376398609475432 25.87877144713794304 -7.4629490459124268
v -0.55376397003831456 27.43757608799270288 -6.7731141340891688
v -0.55376389996614424 29.53766696989528736 -6.48534806856014968
v -0.55376388083186968 31.74919008807588128 -5.45837265592718168
v -0.5537639088485484 33.60811242903328376 -4.01101095235503724
v -0.55376395361200184 34.4680291081628596 -2.92023079972182272
v -0.55376406380172584 35.27216412550018988 -0.99514958135108288
v -0.553764215782838 35.53497277302239608 1.1700609264934747
v -0.55376439691212728 35.20889978623285544 3.38040300489158832
v -0.5537645658232844 34.34869150472759004 5.11966002414746768
v -0.55376469983239576 33.53821346690638448 6.42541800893749568
v -0.55376476969637704 33.01016971906615538 7.04507038201162405
v -0.55376488339900472 31.84116789796890144 7.87428454128321856
v -0.55376502619700216 30.03003089310728413 8.71709833979134352
v -0.55376512920704536 28.25150252455019384 9.05178429766812087
v -0.55376516250983344 27.05066253948049138 8.79763677575391328
v -0.55376521013151248 26.32348914731411328 9.00738984240882167
v -0.5537652597495288 25.92422128897711536 9.43343428953669872
v -0.553765307569714 25.85418856429256352 10.02628465893399401
v -0.5537653243618372 25.65025416889553608 10.13063015490756946
v -0.5537653270452356 25.3873786400945036 10.01397449075323109
v -0.5537653054466176 25.11025472365232502 9.56744430792087112
v -0.55376522850114896 25.13385578932453512 8.56193511053998432
v -0.55376523776859976 24.68947249554249624 8.427399405304234
v -0.55376524202390696 24.24571788578142772 8.22683983923677964
v -0.55376600849728952 19.20957096641993188 15.4632845229406364
v -0.55376688015265248 8.24281225517686876 20.65923088180166192
# 45 vertices

vn 0.99999999999999488 -4.371139539216527E-08 9.13527671286829E-08
vn 0.99999999999999488 -4.371139539216527E-08 9.13527671286829E-08
vn 0.99999999999999488 -4.371139539216527E-08 9.13527671286829E-08
vn 0.99999999999999488 -4.371139539216527E-08 9.13527671286829E-08
vn 0.99999999999999488 -4.371139539216527E-08 9.13527671286829E-08
vn 0.99999999999999488 -4.371139539216527E-08 9.13527671286829E-08
vn 0.99999999999999488 -4.371139539216527E-08 9.13527671286829E-08
vn 0.99999999999999488 -4.371139539216527E-08 9.13527671286829E-08
vn 0.99999999999999488 -4.371139539216527E-08 9.13527671286829E-08
vn 0.99999999999999488 -4.371139539216527E-08 9.13527671286829E-08
vn 0.99999999999999488 -4.371139539216527E-08 9.13527671286829E-08
vn 0.99999999999999488 -4.371139539216527E-08 9.13527671286829E-08
vn 0.99999999999999488 -4.371139539216527E-08 9.13527671286829E-08
vn 0.99999999999999488 -4.371139539216527E-08 9.13527671286829E-08
vn 0.99999999999999488 -4.371139539216527E-08 9.13527671286829E-08
vn 0.99999999999999488 -4.371139539216527E-08 9.13527671286829E-08
vn 0.99999999999999488 -4.371139539216527E-08 9.13527671286829E-08
vn 0.99999999999999488 -4.371139539216527E-08 9.13527671286829E-08
vn 0.99999999999999488 -4.371139539216527E-08 9.13527671286829E-08
vn 0.99999999999999488 -4.371139539216527E-08 9.13527671286829E-08
vn 0.99999999999999488 -4.371139539216527E-08 9.13527671286829E-08
vn 0.99999999999999488 -4.371139539216527E-08 9.13527671286829E-08
vn 0.99999999999999488 -4.371139539216527E-08 9.13527671286829E-08
vn 0.99999999999999488 -4.371139539216527E-08 9.13527671286829E-08
vn 0.99999999999999488 -4.371139539216527E-08 9.13527671286829E-08
vn 0.99999999999999488 -4.371139539216527E-08 9.13527671286829E-08
vn 0.99999999999999488 -4.371139539216527E-08 9.13527671286829E-08
vn 0.99999999999999488 -4.371139539216527E-08 9.13527671286829E-08
vn 0.99999999999999488 -4.371139539216527E-08 9.13527671286829E-08
vn 0.99999999999999488 -4.371139539216527E-08 9.13527671286829E-08
vn 0.99999999999999488 -4.371139539216527E-08 9.13527671286829E-08
vn 0.99999999999999488 -4.371139539216527E-08 9.13527671286829E-08
vn 0.99999999999999488 -4.371139539216527E-08 9.13527671286829E-08
vn 0.99999999999999488 -4.371139539216527E-08 9.13527671286829E-08
vn 0.99999999999999488 -4.371139539216527E-08 9.13527671286829E-08
vn 0.99999999999999488 -4.371139539216527E-08 9.13527671286829E-08
vn 0.99999999999999488 -4.371139539216527E-08 9.13527671286829E-08
vn 0.99999999999999488 -4.371139539216527E-08 9.13527671286829E-08
vn 0.99999999999999488 -4.371139539216527E-08 9.13527671286829E-08
vn 0.99999999999999488 -4.371139539216527E-08 9.13527671286829E-08
vn 0.99999999999999488 -4.371139539216527E-08 9.13527671286829E-08
vn 0.99999999999999488 -4.371139539216527E-08 9.13527671286829E-08
vn 0.99999999999999488 -4.371139539216527E-08 9.13527671286829E-08
vn 0.99999999999999488 -4.371139539216527E-08 9.13527671286829E-08
vn 0.99999999999999488 -4.371139539216527E-08 9.13527671286829E-08
# 45 vertex normals

vt 0.62432134151458744 0.6035835146903992 0
vt 0.27832108736038208 0.62487280368804928 0
vt 0.55558288097381592 0.73688876628875728 0
vt 0.48963692784309384 0.84906327724456784 0
vt 0.39127457141876224 0.78565466403961184 0
vt 0.39902532100677488 0.82660704851150512 0
vt 0.39325305819511416 0.76926851272583008 0
vt 0.56288039684295656 0.7227649092674256 0
vt 0.52197885513305664 0.78896230459213264 0
vt 0.43674802780151368 0.85539674758911136 0
vt 0.38096100091934208 0.77542644739151008 0
vt 0.62786877155303952 0.6538336873054504 0
vt 0.56196606159210208 0.73192936182022096 0
vt 0.49879312515258792 0.84171211719512944 0
vt 0.38914120197296144 0.79592031240463264 0
vt 0.58550375699996952 0.55521333217620848 0
vt 0.33532163500785828 0.71862387657165528 0
vt 0.56293934583663944 0.71612405776977536 0
vt 0.52776950597763064 0.775636613368988 0
vt 0.40598598122596744 0.83660054206848144 0
vt 0.38481265306472776 0.76906681060791008 0
vt 0.63414400815963744 0.64120978116989136 0
vt 0.54256945848464968 0.7504726648330688 0
vt 0.45530208945274352 0.85818409919738768 0
vt 0.38593754172325136 0.77602517604827888 0
vt 0.3121163845062256 0.55280786752700808 0
vt 0.39606598019599912 0.7616761922836304 0
vt 0.58819603919982912 0.73141205310821536 0
vt 0.5109426379203796 0.82582080364227296 0
vt 0.41118746995925904 0.8411146402359008 0
vt 0.38106435537338256 0.7714358568191528 0
vt 0.57670390605926512 0.7148088812828064 0
vt 0.52755850553512576 0.76447689533233648 0
vt 0.5490896701812744 0.74967163801193232 0
vt 0.47347736358642576 0.8559375405311584 0
vt 0.3895138502120972 0.7794382572174072 0
vt 0.64192491769790648 0.62329739332199096 0
vt 0.58773696422576904 0.72237551212310784 0
vt 0.5195632576942444 0.80691516399383552 0
vt 0.39195060729980472 0.811124324798584 0
vt 0.39438238739967344 0.76546967029571536 0
vt 0.60667699575424192 0.6832256317138672 0
vt 0.53819018602371216 0.75230097770690912 0
vt 0.4221482872962952 0.84804308414459232 0
vt 0.38008514046669008 0.77368307113647456 0
# 45 texture coords

g Figure-3a
usemtl Material.001
s 1
f 45/2/1 1/26/2 2/16/3 3/1/4 4/37/5 5/22/6 6/12/7 7/42/8 8/32/9 9/18/10 10/8/11 11/38/12 12/28/13 13/13/14 14/3/15 15/34/16 16/23/17 17/43/18 18/33/19 19/19/20 20/9/21 21/39/22 22/29/23 23/14/24 24/4/25 25/35/26 26/24/27 27/10/28 28/44/29 29/30/30 30/20/31 31/6/32 32/40/33 33/15/34 34/5/35 35/36/36 36/25/37 37/11/38 38/45/39 39/31/40 40/21/41 41/7/42 42/41/43 43/27/44 44/17/45
#1 polygons

