solid AssimpScene
 facet normal 0 0 -1
  outer loop
  vertex -50 -0.5 40
  vertex -50 0.5 40
  vertex 50 0.5 40
  endloop
 endfacet

 facet normal 0 0 -1
  outer loop
  vertex -50 -0.5 40
  vertex 50 0.5 40
  vertex 50 -0.5 40
  endloop
 endfacet

 facet normal 0 0 1
  outer loop
  vertex -65.910004 -0.5 110
  vertex 65.910004 -0.5 110
  vertex 65.910004 0.5 110
  endloop
 endfacet

 facet normal 0 0 1
  outer loop
  vertex -65.910004 -0.5 110
  vertex 65.910004 0.5 110
  vertex -65.910004 0.5 110
  endloop
 endfacet

 facet normal 0 -1 0
  outer loop
  vertex -50 -0.5 40
  vertex 50 -0.5 40
  vertex 65.910004 -0.5 110
  endloop
 endfacet

 facet normal 0 -1 0
  outer loop
  vertex -50 -0.5 40
  vertex 65.910004 -0.5 110
  vertex -65.910004 -0.5 110
  endloop
 endfacet

 facet normal 0.97513574 0 -0.22160813
  outer loop
  vertex 50 -0.5 40
  vertex 50 0.5 40
  vertex 65.910004 0.5 110
  endloop
 endfacet

 facet normal 0.97513574 0 -0.22160813
  outer loop
  vertex 50 -0.5 40
  vertex 65.910004 0.5 110
  vertex 65.910004 -0.5 110
  endloop
 endfacet

 facet normal 0 1 0
  outer loop
  vertex 50 0.5 40
  vertex -50 0.5 40
  vertex -65.910004 0.5 110
  endloop
 endfacet

 facet normal 0 1 0
  outer loop
  vertex 50 0.5 40
  vertex -65.910004 0.5 110
  vertex 65.910004 0.5 110
  endloop
 endfacet

 facet normal -0.97513574 0 -0.22160813
  outer loop
  vertex -50 0.5 40
  vertex -50 -0.5 40
  vertex -65.910004 -0.5 110
  endloop
 endfacet

 facet normal -0.97513574 0 -0.22160813
  outer loop
  vertex -50 0.5 40
  vertex -65.910004 -0.5 110
  vertex -65.910004 0.5 110
  endloop
 endfacet

 facet normal 0 0 -1
  outer loop
  vertex 15 -0.5 0
  vertex 15 0.5 0
  vertex 45 0.5 0
  endloop
 endfacet

 facet normal 0 0 -1
  outer loop
  vertex 15 -0.5 0
  vertex 45 0.5 0
  vertex 45 -0.5 0
  endloop
 endfacet

 facet normal 0 0 1
  outer loop
  vertex 15 -0.5 40
  vertex 45 -0.5 40
  vertex 45 0.5 40
  endloop
 endfacet

 facet normal 0 0 1
  outer loop
  vertex 15 -0.5 40
  vertex 45 0.5 40
  vertex 15 0.5 40
  endloop
 endfacet

 facet normal 0 -1 0
  outer loop
  vertex 15 -0.5 0
  vertex 45 -0.5 0
  vertex 45 -0.5 40
  endloop
 endfacet

 facet normal 0 -1 0
  outer loop
  vertex 15 -0.5 0
  vertex 45 -0.5 40
  vertex 15 -0.5 40
  endloop
 endfacet

 facet normal 1 0 0
  outer loop
  vertex 45 -0.5 0
  vertex 45 0.5 0
  vertex 45 0.5 40
  endloop
 endfacet

 facet normal 1 0 0
  outer loop
  vertex 45 -0.5 0
  vertex 45 0.5 40
  vertex 45 -0.5 40
  endloop
 endfacet

 facet normal 0 1 0
  outer loop
  vertex 45 0.5 0
  vertex 15 0.5 0
  vertex 15 0.5 40
  endloop
 endfacet

 facet normal 0 1 0
  outer loop
  vertex 45 0.5 0
  vertex 15 0.5 40
  vertex 45 0.5 40
  endloop
 endfacet

 facet normal -1 0 0
  outer loop
  vertex 15 0.5 0
  vertex 15 -0.5 0
  vertex 15 -0.5 40
  endloop
 endfacet

 facet normal -1 0 0
  outer loop
  vertex 15 0.5 0
  vertex 15 -0.5 40
  vertex 15 0.5 40
  endloop
 endfacet

 facet normal 0 0 -1
  outer loop
  vertex -45 -0.5 0
  vertex -45 0.5 0
  vertex -15 0.5 0
  endloop
 endfacet

 facet normal 0 0 -1
  outer loop
  vertex -45 -0.5 0
  vertex -15 0.5 0
  vertex -15 -0.5 0
  endloop
 endfacet

 facet normal 0 0 1
  outer loop
  vertex -45 -0.5 40
  vertex -15 -0.5 40
  vertex -15 0.5 40
  endloop
 endfacet

 facet normal 0 0 1
  outer loop
  vertex -45 -0.5 40
  vertex -15 0.5 40
  vertex -45 0.5 40
  endloop
 endfacet

 facet normal 0 -1 0
  outer loop
  vertex -45 -0.5 0
  vertex -15 -0.5 0
  vertex -15 -0.5 40
  endloop
 endfacet

 facet normal 0 -1 0
  outer loop
  vertex -45 -0.5 0
  vertex -15 -0.5 40
  vertex -45 -0.5 40
  endloop
 endfacet

 facet normal 1 0 0
  outer loop
  vertex -15 -0.5 0
  vertex -15 0.5 0
  vertex -15 0.5 40
  endloop
 endfacet

 facet normal 1 0 0
  outer loop
  vertex -15 -0.5 0
  vertex -15 0.5 40
  vertex -15 -0.5 40
  endloop
 endfacet

 facet normal 0 1 0
  outer loop
  vertex -15 0.5 0
  vertex -45 0.5 0
  vertex -45 0.5 40
  endloop
 endfacet

 facet normal 0 1 0
  outer loop
  vertex -15 0.5 0
  vertex -45 0.5 40
  vertex -15 0.5 40
  endloop
 endfacet

 facet normal -1 0 0
  outer loop
  vertex -45 0.5 0
  vertex -45 -0.5 0
  vertex -45 -0.5 40
  endloop
 endfacet

 facet normal -1 0 0
  outer loop
  vertex -45 0.5 0
  vertex -45 -0.5 40
  vertex -45 0.5 40
  endloop
 endfacet

 facet normal 0 0 -1
  outer loop
  vertex -43 0.5 110
  vertex -43 -0.5 110
  vertex -65.910004 -0.5 110
  endloop
 endfacet

 facet normal 0 0 -1
  outer loop
  vertex -43 0.5 110
  vertex -65.910004 -0.5 110
  vertex -65.910004 0.5 110
  endloop
 endfacet

 facet normal 0 0 1
  outer loop
  vertex -43 0.5 130
  vertex -70.459999 0.5 130
  vertex -70.459999 -0.5 130
  endloop
 endfacet

 facet normal 0 0 1
  outer loop
  vertex -43 0.5 130
  vertex -70.459999 -0.5 130
  vertex -43 -0.5 130
  endloop
 endfacet

 facet normal 0 1 0
  outer loop
  vertex -43 0.5 110
  vertex -65.910004 0.5 110
  vertex -70.459999 0.5 130
  endloop
 endfacet

 facet normal 0 1 0
  outer loop
  vertex -43 0.5 110
  vertex -70.459999 0.5 130
  vertex -43 0.5 130
  endloop
 endfacet

 facet normal -0.97509247 0 -0.22179832
  outer loop
  vertex -65.910004 0.5 110
  vertex -65.910004 -0.5 110
  vertex -70.459999 -0.5 130
  endloop
 endfacet

 facet normal -0.97509247 0 -0.22179832
  outer loop
  vertex -65.910004 0.5 110
  vertex -70.459999 -0.5 130
  vertex -70.459999 0.5 130
  endloop
 endfacet

 facet normal 0 -1 0
  outer loop
  vertex -65.910004 -0.5 110
  vertex -43 -0.5 110
  vertex -43 -0.5 130
  endloop
 endfacet

 facet normal 0 -1 0
  outer loop
  vertex -65.910004 -0.5 110
  vertex -43 -0.5 130
  vertex -70.459999 -0.5 130
  endloop
 endfacet

 facet normal 1 0 0
  outer loop
  vertex -43 -0.5 110
  vertex -43 0.5 110
  vertex -43 0.5 130
  endloop
 endfacet

 facet normal 1 0 0
  outer loop
  vertex -43 -0.5 110
  vertex -43 0.5 130
  vertex -43 -0.5 130
  endloop
 endfacet

 facet normal 0 0 -1
  outer loop
  vertex -70.459999 -0.5 130
  vertex -70.459999 0.5 130
  vertex 70.459999 0.5 130
  endloop
 endfacet

 facet normal 0 0 -1
  outer loop
  vertex -70.459999 -0.5 130
  vertex 70.459999 0.5 130
  vertex 70.459999 -0.5 130
  endloop
 endfacet

 facet normal 0 0 1
  outer loop
  vertex -75 -0.5 150
  vertex 75 -0.5 150
  vertex 75 0.5 150
  endloop
 endfacet

 facet normal 0 0 1
  outer loop
  vertex -75 -0.5 150
  vertex 75 0.5 150
  vertex -75 0.5 150
  endloop
 endfacet

 facet normal 0 -1 0
  outer loop
  vertex -70.459999 -0.5 130
  vertex 70.459999 -0.5 130
  vertex 75 -0.5 150
  endloop
 endfacet

 facet normal 0 -1 0
  outer loop
  vertex -70.459999 -0.5 130
  vertex 75 -0.5 150
  vertex -75 -0.5 150
  endloop
 endfacet

 facet normal 0.97518402 0 -0.22139634
  outer loop
  vertex 70.459999 -0.5 130
  vertex 70.459999 0.5 130
  vertex 75 0.5 150
  endloop
 endfacet

 facet normal 0.97518402 0 -0.22139634
  outer loop
  vertex 70.459999 -0.5 130
  vertex 75 0.5 150
  vertex 75 -0.5 150
  endloop
 endfacet

 facet normal 0 1 0
  outer loop
  vertex 70.459999 0.5 130
  vertex -70.459999 0.5 130
  vertex -75 0.5 150
  endloop
 endfacet

 facet normal 0 1 0
  outer loop
  vertex 70.459999 0.5 130
  vertex -75 0.5 150
  vertex 75 0.5 150
  endloop
 endfacet

 facet normal -0.97518402 0 -0.22139634
  outer loop
  vertex -70.459999 0.5 130
  vertex -70.459999 -0.5 130
  vertex -75 -0.5 150
  endloop
 endfacet

 facet normal -0.97518402 0 -0.22139634
  outer loop
  vertex -70.459999 0.5 130
  vertex -75 -0.5 150
  vertex -75 0.5 150
  endloop
 endfacet

 facet normal 0 0 -1
  outer loop
  vertex -8 -0.5 110
  vertex -8 0.5 110
  vertex 8 0.5 110
  endloop
 endfacet

 facet normal 0 0 -1
  outer loop
  vertex -8 -0.5 110
  vertex 8 0.5 110
  vertex 8 -0.5 110
  endloop
 endfacet

 facet normal 0 0 1
  outer loop
  vertex -8 -0.5 130
  vertex 8 -0.5 130
  vertex 8 0.5 130
  endloop
 endfacet

 facet normal 0 0 1
  outer loop
  vertex -8 -0.5 130
  vertex 8 0.5 130
  vertex -8 0.5 130
  endloop
 endfacet

 facet normal 0 -1 0
  outer loop
  vertex -8 -0.5 110
  vertex 8 -0.5 110
  vertex 8 -0.5 130
  endloop
 endfacet

 facet normal 0 -1 0
  outer loop
  vertex -8 -0.5 110
  vertex 8 -0.5 130
  vertex -8 -0.5 130
  endloop
 endfacet

 facet normal 1 0 0
  outer loop
  vertex 8 -0.5 110
  vertex 8 0.5 110
  vertex 8 0.5 130
  endloop
 endfacet

 facet normal 1 0 0
  outer loop
  vertex 8 -0.5 110
  vertex 8 0.5 130
  vertex 8 -0.5 130
  endloop
 endfacet

 facet normal 0 1 0
  outer loop
  vertex 8 0.5 110
  vertex -8 0.5 110
  vertex -8 0.5 130
  endloop
 endfacet

 facet normal 0 1 0
  outer loop
  vertex 8 0.5 110
  vertex -8 0.5 130
  vertex 8 0.5 130
  endloop
 endfacet

 facet normal -1 0 0
  outer loop
  vertex -8 0.5 110
  vertex -8 -0.5 110
  vertex -8 -0.5 130
  endloop
 endfacet

 facet normal -1 0 0
  outer loop
  vertex -8 0.5 110
  vertex -8 -0.5 130
  vertex -8 0.5 130
  endloop
 endfacet

 facet normal 0 0 -1
  outer loop
  vertex 75 0.5 150
  vertex 75 -0.5 150
  vertex -75 -0.5 150
  endloop
 endfacet

 facet normal 0 0 -1
  outer loop
  vertex 75 0.5 150
  vertex -75 -0.5 150
  vertex -75 0.5 150
  endloop
 endfacet

 facet normal 0 0 1
  outer loop
  vertex 50 0.5 200
  vertex -50 0.5 200
  vertex -50 -0.5 200
  endloop
 endfacet

 facet normal 0 0 1
  outer loop
  vertex 50 0.5 200
  vertex -50 -0.5 200
  vertex 50 -0.5 200
  endloop
 endfacet

 facet normal 0 -1 0
  outer loop
  vertex 50 -0.5 200
  vertex -50 -0.5 200
  vertex -75 -0.5 150
  endloop
 endfacet

 facet normal 0 -1 0
  outer loop
  vertex 50 -0.5 200
  vertex -75 -0.5 150
  vertex 75 -0.5 150
  endloop
 endfacet

 facet normal 0.89442718 0 0.44721359
  outer loop
  vertex 50 0.5 200
  vertex 50 -0.5 200
  vertex 75 -0.5 150
  endloop
 endfacet

 facet normal 0.89442718 0 0.44721359
  outer loop
  vertex 50 0.5 200
  vertex 75 -0.5 150
  vertex 75 0.5 150
  endloop
 endfacet

 facet normal 0 1 0
  outer loop
  vertex -50 0.5 200
  vertex 50 0.5 200
  vertex 75 0.5 150
  endloop
 endfacet

 facet normal 0 1 0
  outer loop
  vertex -50 0.5 200
  vertex 75 0.5 150
  vertex -75 0.5 150
  endloop
 endfacet

 facet normal -0.89442718 0 0.44721359
  outer loop
  vertex -50 -0.5 200
  vertex -50 0.5 200
  vertex -75 0.5 150
  endloop
 endfacet

 facet normal -0.89442718 0 0.44721359
  outer loop
  vertex -50 -0.5 200
  vertex -75 0.5 150
  vertex -75 -0.5 150
  endloop
 endfacet

 facet normal 0 0 -1
  outer loop
  vertex 43 -0.5 110
  vertex 43 0.5 110
  vertex 65.910004 0.5 110
  endloop
 endfacet

 facet normal 0 0 -1
  outer loop
  vertex 43 -0.5 110
  vertex 65.910004 0.5 110
  vertex 65.910004 -0.5 110
  endloop
 endfacet

 facet normal 0 0 1
  outer loop
  vertex 43 -0.5 130
  vertex 70.459999 -0.5 130
  vertex 70.459999 0.5 130
  endloop
 endfacet

 facet normal 0 0 1
  outer loop
  vertex 43 -0.5 130
  vertex 70.459999 0.5 130
  vertex 43 0.5 130
  endloop
 endfacet

 facet normal 0 -1 0
  outer loop
  vertex 43 -0.5 110
  vertex 65.910004 -0.5 110
  vertex 70.459999 -0.5 130
  endloop
 endfacet

 facet normal 0 -1 0
  outer loop
  vertex 43 -0.5 110
  vertex 70.459999 -0.5 130
  vertex 43 -0.5 130
  endloop
 endfacet

 facet normal 0.97509247 0 -0.22179832
  outer loop
  vertex 65.910004 -0.5 110
  vertex 65.910004 0.5 110
  vertex 70.459999 0.5 130
  endloop
 endfacet

 facet normal 0.97509247 0 -0.22179832
  outer loop
  vertex 65.910004 -0.5 110
  vertex 70.459999 0.5 130
  vertex 70.459999 -0.5 130
  endloop
 endfacet

 facet normal 0 1 0
  outer loop
  vertex 65.910004 0.5 110
  vertex 43 0.5 110
  vertex 43 0.5 130
  endloop
 endfacet

 facet normal 0 1 0
  outer loop
  vertex 65.910004 0.5 110
  vertex 43 0.5 130
  vertex 70.459999 0.5 130
  endloop
 endfacet

 facet normal -1 0 0
  outer loop
  vertex 43 0.5 110
  vertex 43 -0.5 110
  vertex 43 -0.5 130
  endloop
 endfacet

 facet normal -1 0 0
  outer loop
  vertex 43 0.5 110
  vertex 43 -0.5 130
  vertex 43 0.5 130
  endloop
 endfacet

endsolidAssimpScene
